<svg id="about" xmlns="http://www.w3.org/2000/svg" viewBox="0 0 95 95"><title>about-isd</title><path id="about-icon" d="M49,33.66c-1.81-1.24-5.21-.77-6,.85a1.54,1.54,0,0,0-.15,1.31c.43,1.47,2.88,2.3,5,1.71h0C50.22,36.88,50.81,34.9,49,33.66ZM97.5,50A47.53,47.53,0,1,0,85.74,81.27H76.63V63.73h9.22V81.14A47.3,47.3,0,0,0,97.5,50ZM65.07,56.1l-1.38.74c-2.58,1.43-4,2.18-4,2.18s-.88.48-1.92,1-2.48,1.37-3.2,1.75c-1.87,1-2.21,1.19-4,2.18-2.17,1.2-3.83,2.09-4.09,2.19a5,5,0,0,1-1.3-.58h0l-2.43-1.34c-.7-.38-1.67-.92-2.17-1.18s-1-.5-1-.54l-.9-.5L36,60.58,33.13,59l-1.81-1L29,56.79,27.61,56V50.74c0-3.56,0-5.29.09-5.33a.2.2,0,0,1,.21,0l.79.45,3,1.64,6,3.26,2.49,1.36,2.08,1.13,2.22,1.22c.59.34,1.27.71,1.51.84l.42.23,1.34-.75L50.9,53.1l2.67-1.45,1.4-.76L56.55,50l1.85-1,5.37-2.93c.72-.39,1.34-.71,1.38-.71s.08,2.27.08,5.34C65.23,55.71,65.22,56.05,65.07,56.1ZM74,38.79,71.7,40l-3.53,1.9-5,2.67-3.8,2-3.85,2C51.31,51,51.34,51,50.4,51.45l-2.33,1.26a13.63,13.63,0,0,1-1.61.8c-.16,0-.83-.35-5.24-2.73L36.79,48.4c-1.52-.8-5.66-3-6-3.21-.15-.09-.84-.46-1.54-.82l-2-1.08c-.42-.24-.94-.52-1.16-.62l-.38-.2V52c0,5.26,0,9.58,0,9.59a5.7,5.7,0,0,1-.7.21l-1.89.5-2.4.65-1.32.35a.22.22,0,0,1-.24-.07h0c-.1-.13-1.74-6.19-1.74-6.45a2.5,2.5,0,0,1,.93-.35l3.77-1,.95-.25,0-7.07,0-7.07-.57-.28L19.2,39l-4.7-2.54c-.28-.15-.5-.32-.5-.39s.92-.65,4.11-2.34L22,31.64l2.89-1.56c1.1-.57,1.72-.9,5.61-3l3.75-2,3.17-1.7,3.52-1.9c2-1,3.74-2,4.52-2.41a4.8,4.8,0,0,1,1-.46c.1,0,1.4.66,2.9,1.46,3.14,1.69,4.23,2.28,5.62,3L62.29,27l1,.53c.15.07,1.49.79,3,1.6L69.8,31l1.49.79,2.89,1.55,3,1.63a8.23,8.23,0,0,1,1.77,1C79,36.13,77.31,37.05,74,38.79ZM84.46,57.71A4.72,4.72,0,0,1,82.17,59a3.82,3.82,0,0,1-1.9,0h0a4.66,4.66,0,0,1-3.39-6.13,4.76,4.76,0,0,1,3.18-2.91A4.57,4.57,0,0,1,85,51.76a4.2,4.2,0,0,1,.83,2.34A4.39,4.39,0,0,1,84.46,57.71Z" transform="translate(-2.5 -2.5)"/></svg>