<svg xmlns="http://www.w3.org/2000/svg" viewBox="0 0 100 100"><title>admissions-icon</title><g id="export"><path d="M98,0H2A2,2,0,0,0,0,2V98a2,2,0,0,0,2,2H98a2,2,0,0,0,2-2V2A2,2,0,0,0,98,0ZM94,92.88A1.12,1.12,0,0,1,92.88,94H7.12A1.12,1.12,0,0,1,6,92.88V7.12A1.12,1.12,0,0,1,7.12,6H92.88A1.12,1.12,0,0,1,94,7.12Z" style="fill:#231f20"/><path id="pen" d="M73,21.61V66h0L77.14,83.5,81.36,66h0V21.61Zm4.18,55.64L74.43,66h5.42ZM79.9,26.32H74.47V23.11H79.9Z" style="fill:#231f20"/><path id="lines" d="M18,26.5v5.66h42.4V26.5Zm0,43.82h42.4V64.66H18Zm0-19.08h42.4V45.58H18Z" style="fill:#231f20"/></g></svg>