<svg xmlns="http://www.w3.org/2000/svg" viewBox="0 0 100 100"><title>community-icon-reverse</title><g id="community-reverse"><path id="icon" d="M44.57,63C51.93,66,57.1,73.74,57.1,82.8v1.91H53.56V82.8c0-9.77-7.22-17.63-16-17.63s-16,7.86-16,17.63v1.91H18V82.8c0-9,5.17-16.71,12.53-19.82A12.45,12.45,0,1,1,50,52.71,12.37,12.37,0,0,1,44.57,63Zm-7-19.19a8.92,8.92,0,1,0,8.92,8.92A8.93,8.93,0,0,0,37.56,43.79Zm31.93-5.73C76.85,41.1,82,48.82,82,57.88v1.91H78.48V57.88c0-9.77-7.22-17.63-16-17.63a12.53,12.53,0,1,1,7-2.19Zm-7-19.19a8.92,8.92,0,1,0,0,17.84,8.92,8.92,0,1,0,0-17.84Z"/></g></svg>