<svg xmlns="http://www.w3.org/2000/svg" viewBox="0 0 100 100"><title>community-icon</title><g id="community-export"><path id="comunity" d="M40.44,45.22a6.85,6.85,0,1,0,6.84,6.84A6.85,6.85,0,0,0,40.44,45.22ZM59.56,26.09a6.85,6.85,0,0,0,0,13.69,6.85,6.85,0,1,0,0-13.69ZM50,1A49,49,0,1,0,99,50,49,49,0,0,0,50,1Zm5.43,75.63H52.72V75.16c0-7.5-5.55-13.53-12.28-13.53s-12.28,6-12.28,13.53v1.47H25.44V75.16a16.37,16.37,0,0,1,9.62-15.22A9.55,9.55,0,1,1,50,52.06a9.47,9.47,0,0,1-4.18,7.88,16.25,16.25,0,0,1,9.61,15.22ZM74.56,57.5H71.84V56c0-7.5-5.54-13.53-12.28-13.53a9.62,9.62,0,1,1,5.38-1.68A16.23,16.23,0,0,1,74.56,56Z"/></g></svg>