<svg id="family-heart-export" xmlns="http://www.w3.org/2000/svg" viewBox="0 0 100 100"><title>families</title><path id="family" d="M78.07,27.6a5.75,5.75,0,1,0-5.74-5.73A5.74,5.74,0,0,0,78.07,27.6ZM50,53.53a5.06,5.06,0,1,0-5.05-5A5,5,0,0,0,50,53.53Zm43.87-1.61s-5.72-15.5-7.13-18.39-2.8-4.68-8.15-4.68H77.52c-5.35,0-6.74,1.82-8.14,4.7C68.2,36,64.06,47.08,62.71,50.78l-4.37,2.15a18.92,18.92,0,0,1-16.65,0l-4.36-2.15C36,47.1,31.82,36,30.66,33.55c-1.41-2.88-2.8-4.7-8.15-4.7H21.42c-5.35,0-6.74,1.8-8.15,4.68S6.11,51.92,6.11,51.92A1.35,1.35,0,1,0,8.59,53l7.78-15.43L12.5,61.44h3V81.15a2.68,2.68,0,1,0,5.35,0V61.44H23V81.15a2.68,2.68,0,1,0,5.35,0V61.44h3L27.48,37.55l7.23,14.37a1.65,1.65,0,0,0,.61,1.46l6,4.65c3.38,2.55,3.34,9.43,3.34,9.43v14a2.35,2.35,0,0,0,2,2.36,2.31,2.31,0,0,0,2.61-2.27v-12a.79.79,0,0,1,1.58,0v12a2.29,2.29,0,0,0,2.6,2.27,2.37,2.37,0,0,0,2-2.36v-14s0-6.87,3.35-9.43l6-4.65A1.64,1.64,0,0,0,65.33,52l6-12,.3,41.22a2.68,2.68,0,0,0,2.86,2.67A2.75,2.75,0,0,0,77,81.12V57.48a1.12,1.12,0,0,1,1.12-1.12,1.13,1.13,0,0,1,1.13,1.12v23.6a2.68,2.68,0,1,0,5.35.09L84.9,40l6.56,13a1.33,1.33,0,1,0,2.43-1.06Zm-72-24.32a5.75,5.75,0,1,0-5.73-5.73A5.74,5.74,0,0,0,21.93,27.6Z"/></svg>