<svg xmlns="http://www.w3.org/2000/svg" viewBox="0 0 636 627"><title>families</title><g id="familiy_3" data-name="familiy#3"><path d="M618.1,339.78s-.16-17.93-2.15-34.87-2.33-21.92-8.64-31.22-18.77-28.24-25.91-35.87S568.78,227,568.78,227s-8.48-5.65-9.14-6.31-4.32-1.66-5.15-5.82.17-6.14-.66-9.13a4.65,4.65,0,0,0-3.16-3.49s2-3,1.5-5.64a4.81,4.81,0,0,0-2.16-3.49,4.72,4.72,0,0,0,1.49-5.65c-1.49-3.49-3.32-3.82-3.32-3.82s1.5-4-.17-6.31a31.15,31.15,0,0,1-3-5.81s.67-2.5-1.16-8.48S536.55,146.8,529.58,142s-10.3-2.15-10.3-2.15-16.77-4.66-27.57,1.65-13.95,17.11-13.62,22.26,2.49,5.32,2.49,5.32-.83,8.3.5,11.29a23.76,23.76,0,0,1,2.16,11.79c-.33,5.15.17,12.12,4.32,16.28s7.8,10.29,11.62,11.46,10-.17,10-.17l2.49,4s-17.27,9.3-20.76,14.12,0,8,0,8,1.49,5.31-3.49,12.62-4.81,12.46-3.82,16.28.17,5,.17,5a106.57,106.57,0,0,0-3.82,14.12c-1,6-5.31,17.1-12,27.9s-14.12,32.88-17.44,37.37-1.66,6.31-1.66,6.31-4.82,7.31-8.8,10.63c-1.8,1.5-3.72,2.89-5.33,4.23a5.88,5.88,0,0,1-2.48-2.24,25,25,0,0,0-3.32-4.15,8.33,8.33,0,0,0-1.33-6.31c-2.16-3.49-9.13-9.8-13.29-15.78s-10.63-16.11-15.78-20.93-7.47-4.32-11.46-10-14.94-17.27-14.94-17.27,1.16-5.81-1.5-8-6.48-3.49-8.8-9.8-13.29-12.62-15.95-13.45-10.79-1-10.79-1a84.1,84.1,0,0,0,1-13,81,81,0,0,1,.34-10.13s5.32-4.32,5-10.63-2-7.15-2-7.15,3-13.28-2.33-25.24S320,187,305.86,186.81s-31.06,9.31-33.05,29.07,4.31,22.26,4.31,22.26,2.17,15.44,4.82,20.76,5.65,5,8.14,8.63a9.43,9.43,0,0,0,6.48,4s.83,2.66,1.33,4.32l.49,1.66s-4-1-6.14.33-1.66,2.66-2.83,3.49-5,.83-5.48,2.66-.83,4-.83,4-7.3,3.15-11.29,7-6.64,8.8-10.46,11.63-6.48,5-8,8-1.32,3.32-9.13,8.3S230,331.48,224,332.8s-12.62,1.33-13.28,2.66a8,8,0,0,0-.5,3.49l-1.81.4c0-1.36.07-2.67.15-3.88.72-11.63,1-14.53,1-14.53s30-4.11,38.26-15.74,4.36-19.61,6.3-38.5,3.15-54.24,2.66-66.1-13.8-12.35-13.8-12.35-.73-8.72-5.81-11.63-8.48-2.17-14.53-5.56-16.46-11.14-16.46-11.14-6.3-20.34-22.28-34.14-20.1-11.86-20.1-11.86l-3.39-7c-1.45-1.21-1.94-4.6.72-9.44s1.46-8,1.46-8,5.49.19,3.18,4.4c-.29.53,4.79.06,6.73-3.58s1.47-4.2,1.47-4.2a6.35,6.35,0,0,0,3.79.84c5.26-.42,5.17-4.48,5.17-4.48s-2.25,1.24-3.7.27-3-3.54-1.38-7c1.38-3,2.91-5.81.48-15.74a53.81,53.81,0,0,0-8.72-19.13c-4.89-6.87-14.29-21.06-26.64-25.42s-32.44,0-42.61,3.15S85,31.58,85.52,42s3.87,12.6,3.87,12.6-.48,3.63.49,5.81-.49,5.57-1.94,8.47-4.84,6.79-4.12,9S87.94,79,88.18,81s.49,3.63-.73,5.57,2.18,3.63,3.63,3.63h1.46s-5.09,1.7-3.15,3.88a7.25,7.25,0,0,1,1.21,6.78c-.48,1.69.49,5.13,5.47,7a26.35,26.35,0,0,0,11.48,1.66s-10.89,6.54-10.17,10.18,3.63,5.56,3.39,17.91.49,24.46-7.26,37.29-9.93,25.18-7.27,38.26S89.88,241,90.12,256s-3.64,24.21.48,42.37,7.27,35.36,7.27,35.36a441.46,441.46,0,0,1-14.05,52.78c-9,26.15-19.37,55.45-18.89,63s1.7,15.49-1,29.06-11.62,59.56-14.77,67.79S23.77,573.72,22.8,574.69,25,580,26.67,581.23s-3.38,1.69-8.71,2.18-12.35,2.18-12.59,7.26,2.66,7.51,11.86,9.45,24.21,2.18,30,3.63,29.54,4.6,37.05,2.91,8-7.76,8-7.76a76.85,76.85,0,0,0,.48-13.31c-.48-5.81-4.6-13.76,1-23.47s8.72-22.78,13.8-38,17-41.16,19.13-56.9,5.09-22.76,9.45-33.41S149,403,149,403s22.76,38.26,28.82,51.58,20.82,36.08,33.89,55.69c9.85,14.77,19,35,24.28,47.77-5.19,7.69-10.12,13.37-11.31,15.56-2,3.66-4.32,4.16-3,6a12.44,12.44,0,0,0,2.82,2.82s-8,.17-15.11-.5-12.12-1.16-14.28,4.82,5.81,11.62,17.77,16.11,16.11,2,23.42,6,14.45,7.47,20.76,7.64,9.47-2.16,10.79-7a11.6,11.6,0,0,0-.66-8.31s3-1.66,4.32-8.64a.59.59,0,0,1,0-.13c6.55-3.21,14-7.08,17.42-7.8,4.6-1,19.37-8.72,19.13-14.29s-6.3-11.62-6.3-11.62,4.12-4.85,2.67-8c-1.36-2.93-4-7.54-10.59-19.51a20,20,0,0,0,1.06-4.59c.5-7.47,2.67-10.46,9-19.93s26.73-41.85,26.73-41.85,13.13,29.9,16.28,36.21,6.15,8.3,8.31,11,1.33,7.81,5.15,12,16.44,13.62,19.59,26.41,2.83,18.93,5.82,26.57,3.15,5.82,1.66,8.8-1.33,4.66-1.33,4.66a133.44,133.44,0,0,1-13.95,6.64c-5.48,2-8.31,6.31-6.81,9.63S376,611.5,387.41,611s15.61-3.65,20.76-6.31,11.29-2.49,16.27-5.82,16.78-7.3,15.95-12-2.49-7-5-10.13-4.32-3.17-4.32-3.17a19.65,19.65,0,0,0-2.16-7.63c-2-3.65-3.32-13.62-7.81-20.1s-5-16.27-17.11-30.89-11.12-20.1-15.11-25.41-4.48-12.95-8.47-22.59-5.81-10.3-5.48-14.45a18.68,18.68,0,0,0-.33-6.31s15.11-1.66,15.11-4-3.49-21.43-8.8-30.23-8.64-19.43-11-32.55-5.15-36.71-5.15-36.71,18.77,13.45,24.25,21.09,18.1,18.27,21.09,22.92,8.14,2.16,8.14,2.16,3.82,6.81,3.49,11.3,3.65,9.3,6.31,12.79,6,2.49,6,.66a12.71,12.71,0,0,0-1.25-3.51c1.12.3.75-.81.75-.81s3.32,2.66,4.82,2.33,2.16-2.16,2.16-2.16,1.32,3,4.31,2.49a5.66,5.66,0,0,0,4.11-2.91c1.07.19,1.9.15,2.2-.25a1.84,1.84,0,0,0,.17-2.32s2.49.33,3.16-1.66-.34-2.82-.34-2.82,2.16-1,2-2.33a4.69,4.69,0,0,0-.83-2.16s2-2,1.16-4.15a7.82,7.82,0,0,0-2-2.85,23.69,23.69,0,0,1,2.87-6.62c5-8.3,8.31-11.46,8.31-11.46s8.63,4.49,11.79,5a3.67,3.67,0,0,0,4.15-2s-.67,19.43-.67,23.92a66.64,66.64,0,0,1-2.65,16.11c-1.33,4.31,5.64,1.49,5.64,1.49s-4.48,14.12-8.46,22.26-10.14,17.94-8,28.07,7.81,15.44,13.79,24.41S492,509,492,509s-3.32,3.33-2.49,5.15S503.5,541.58,507,547.56s9.8,12.12,6,22.09-12.13,20.59-17.11,23.25-17.93,6-16.11,11.63,20.27,3.65,27.91,3.15,23.42-7,25.91-7.81,4,4.32,6.64,4.16,22.92-4.65,24.08-6.31l1.16-1.66s4-.67,4.32-1.33-.83-7.31-2.32-10.8a17,17,0,0,0-3-5s-1-13-1.5-21.59,1.33-37.37,1.5-41.53-1.66-3.65-4.48-3.65h-2.83a100.5,100.5,0,0,0-6.31-21.59c-4.49-10.13-6-10-6-16.78s-2-21.09,2.49-34.71a49.38,49.38,0,0,0,1-26.07s3.32-.67,8-4.32,6-6.14,6-6.14,8.47-1.33,10.79-3.49a13.26,13.26,0,0,1,3.66-2.66s11.62,2.33,20.92-2.16,9.8-7.3,9.8-7.3,6.65,0,8.14-1.33,3.66-8.48,4.82-15.95,3.32-15.44,4.15-19.77S618.1,339.78,618.1,339.78ZM213.61,376.15c-1.85-4.46-3.2-10.77-4.07-17.42l5.13-.51s1.83,5,4,4.81,18.43-5.65,21.92-6.48,12,.17,21.6-6.47,21.09-14.79,21.09-14.79-.17,9.14.33,18.94,4.82,10.13,2.16,20.6-3.82,13.28-3,23.58,2,9.63,0,25.24-6.48,27.07-5.81,27.57a6.94,6.94,0,0,0,2,.83s-4.82,10-6.64,16.61a36.8,36.8,0,0,1-2.7,6.89l-.55-1.1c-5.81-11.38-19.13-27.36-27.36-38.26s-6.78-17.67-14.53-26.14S217.73,386.07,213.61,376.15ZM510.75,478.26c-.24.24-3-3.21-5-6.33s-2.32-4.64-1.36-7.92,3.2-9.92,3.2-9.92a45.32,45.32,0,0,0,1.36,10.32C510.36,470.41,511,478,510.75,478.26Z" style="fill:#231f20"/></g></svg>