<svg xmlns="http://www.w3.org/2000/svg" viewBox="0 0 100 100"><title>learning-icon</title><g id="apple-disc-export"><path d="M51.66,50.13a3.2,3.2,0,0,0-2.2,0,5.8,5.8,0,0,1-.84.24H52.5A5.8,5.8,0,0,1,51.66,50.13ZM50,1A49,49,0,1,0,99,50,49,49,0,0,0,50,1Zm3,19a1.1,1.1,0,0,1,1.26.56c.84,1.59-3.29,2.23-2.83,7.19.1,1-1.13,1.51-1.63.13C48.56,24.64,51,20.31,53,20Zm-8.36,1.3C46.1,21,47,22.92,48,24.55c.63,1-.24,1.4-1,1.22a5.9,5.9,0,0,1-3.58-2.2,1.48,1.48,0,0,1-.16-.46A1.56,1.56,0,0,1,44.59,21.31ZM71.86,73.45H25.93a1.31,1.31,0,0,1-1-.45,1.51,1.51,0,0,1-.33-1.21,2.22,2.22,0,0,1,1-1.53,5,5,0,0,0,.49-.54,3.32,3.32,0,0,0,.73-2.24v-.14a3.32,3.32,0,0,0-.73-2.24,6.28,6.28,0,0,0-.49-.54,2.26,2.26,0,0,1-1-1.53,1.54,1.54,0,0,1,.33-1.22,1.31,1.31,0,0,1,1-.44h5.81a6,6,0,0,1-2.86-5c0-3.46,3.32-6,6.28-6H46c-2-.43-4-1.84-5.6-4.9-2.18-4.17-3.21-10.26-1-13.92a6.88,6.88,0,0,1,9.41-2.25,3.37,3.37,0,0,0,3.68,0,6.88,6.88,0,0,1,9.41,2.25c2.16,3.66,1.13,9.75-1.05,13.92-1.61,3.06-3.65,4.47-5.6,4.9H71a1.29,1.29,0,0,1,1,.45A1.51,1.51,0,0,1,72.37,52a2.2,2.2,0,0,1-1,1.53c-.18.18-.34.36-.5.55a3.41,3.41,0,0,0-.73,2.24v.13a3.41,3.41,0,0,0,.74,2.25,5,5,0,0,0,.49.54,2.23,2.23,0,0,1,1,1.52,1.51,1.51,0,0,1,0,.6c2.82.26,5.78,2.75,5.78,6C78.13,70.87,74.82,73.45,71.86,73.45Zm-1-8.76H27.11a4.94,4.94,0,0,1,.57,1.18h24.5a.55.55,0,0,1,.54.55.54.54,0,0,1-.54.54H27.87c0,.15,0,.3,0,.44h0a4.38,4.38,0,0,1-.77,2.71H70.83c2,0,3.35-1.07,3.35-2.72a2.46,2.46,0,0,0-.82-1.9A3.79,3.79,0,0,0,70.83,64.69Zm-2.15,4.57H43.76a.55.55,0,0,1-.54-.55.54.54,0,0,1,.54-.54H68.68a.54.54,0,0,1,.54.54A.55.55,0,0,1,68.68,69.26ZM36.19,59.13H69.85a4.48,4.48,0,0,1-.77-2.7v0h0a5,5,0,0,1,0-.67H44.79a.55.55,0,1,1,0-1.09H69.38a3.79,3.79,0,0,1,.48-.94H36.19a3.69,3.69,0,0,0-2.53.82,2.44,2.44,0,0,0-.82,1.89C32.84,58.06,34.16,59.13,36.19,59.13Zm1.35-2.3H62.46a.55.55,0,0,1,0,1.09H37.54a.55.55,0,0,1,0-1.09Z"/></g></svg>