<svg xmlns="http://www.w3.org/2000/svg" viewBox="0 0 100 100"><title>learning-icon</title><g id="apple-disc-reverse-export"><path d="M50.05,24.53C49.42,17.86,55,17,53.84,14.86a1.49,1.49,0,0,0-1.7-.76c-2.6.4-5.89,6.22-4.3,10.6C48.52,26.56,50.17,25.86,50.05,24.53ZM39.41,18.9c.84,1.44,2.93,2.5,4.81,3,1,.24,2.15-.34,1.31-1.65-1.42-2.19-2.59-4.73-4.62-4.35a2.09,2.09,0,0,0-1.5,3Zm-8,46.16H64.93a.73.73,0,0,0,0-1.46H31.44a.73.73,0,1,0,0,1.46Zm46.79,4.67a2.15,2.15,0,0,0,0-.8A3,3,0,0,0,77,66.88a6.49,6.49,0,0,1-.66-.73,4.6,4.6,0,0,1-1-3V63a4.49,4.49,0,0,1,1-3,7.73,7.73,0,0,1,.67-.73,3,3,0,0,0,1.31-2.06,2,2,0,0,0-.45-1.63,1.78,1.78,0,0,0-1.35-.61H55.13c2.61-.57,5.35-2.47,7.51-6.58,2.94-5.6,4.32-13.79,1.42-18.72a9.24,9.24,0,0,0-12.65-3,4.52,4.52,0,0,1-4.94,0,9.25,9.25,0,0,0-12.66,3c-2.9,4.93-1.52,13.12,1.42,18.72,2.16,4.11,4.9,6,7.52,6.58H28.23c-4,0-8.43,3.48-8.43,8.13a8.09,8.09,0,0,0,3.84,6.66H15.83a1.74,1.74,0,0,0-1.35.6A2,2,0,0,0,14,71.93,3,3,0,0,0,15.34,74a7.73,7.73,0,0,1,.67.73,4.49,4.49,0,0,1,1,3v.18a4.49,4.49,0,0,1-1,3,7.63,7.63,0,0,1-.66.73A3,3,0,0,0,14,83.71a2,2,0,0,0,.44,1.63,1.78,1.78,0,0,0,1.36.6H77.57c4,0,8.43-3.47,8.43-8.12C86,73.42,82,70.08,78.23,69.73ZM47.46,54.59a4.3,4.3,0,0,1,3,0,8.18,8.18,0,0,0,1.13.32H46.33A8.18,8.18,0,0,0,47.46,54.59Zm-21.24,5.9a5,5,0,0,1,3.41-1.1H74.88a5.57,5.57,0,0,0-.65,1.26H41.18a.74.74,0,1,0,0,1.47H73.87a5.43,5.43,0,0,0,0,.9v0a6,6,0,0,0,1,3.63H29.62c-2.73,0-4.5-1.43-4.5-3.65A3.31,3.31,0,0,1,26.22,60.49Zm50,21H17.41a5.86,5.86,0,0,0,1-3.65h0c0-.19,0-.39,0-.59H51.11a.74.74,0,0,0,0-1.47H18.18a6.08,6.08,0,0,0-.77-1.58H76.18a5,5,0,0,1,3.41,1.1,3.31,3.31,0,0,1,1.1,2.55C80.69,80,78.92,81.48,76.19,81.48Zm-2.9-2.64H39.8a.74.74,0,0,0,0,1.47H73.29a.74.74,0,0,0,0-1.47Z"/></g></svg>