<svg xmlns="http://www.w3.org/2000/svg" viewBox="0 0 100 100"><title>pupil-experience-reverse</title><g id="pupil-experience"><path id="girls" d="M95.49,10.78c-.17-.71-.55-1.23-.66-.53a12.07,12.07,0,0,0-.18,1.68c0,.39-.09,1.45-.09,1.45s-.6-1.22-.71-1.46a7.37,7.37,0,0,0-1.09-1.73.37.37,0,0,0-.54.35,8.09,8.09,0,0,0,.68,1.87c.21.46.49,1.3.51,1.37s0,1.22.08,1.33l0,.1s-.67-.58-.73-.68-2-2.39-2.22-2.51-.57-.09-.57.29a5.26,5.26,0,0,0,1.21,1.87,6.21,6.21,0,0,1,1.13,1.65c0,.23.14.73,0,.78A2.36,2.36,0,0,1,91.06,16c-.29-.37-1-1.17-1.26-1.14s-.43.09-.4.38a4.71,4.71,0,0,0,1.44,1.87,2.23,2.23,0,0,1,.79.92,6.35,6.35,0,0,1-.28,1.45c-.17.28-1.87.63-2,1s-.18.67-.9.86A5.66,5.66,0,0,0,86,23.14a3,3,0,0,1-1.06,1.14c-.3.18-2.25,1-2.46,1.17a8.71,8.71,0,0,1-1.11.67l-1.08.31a2.79,2.79,0,0,1-1.3-.87c-.52-.65-.74-1.47-1.53-2.09s-1-.36-1-1a18.85,18.85,0,0,0-.72-3.37,4.55,4.55,0,0,0-1.08-1.55c-.3-.18-.57-1.28-.78-1.68a7.87,7.87,0,0,0-2.39-2.71A5.43,5.43,0,0,0,68,12.29s-3.23.83-3.69,1.86-1.59,2.51-1.59,3.12-.55.78-.59,2a4.39,4.39,0,0,1-.7,2.68c-.5.7-.19,1-.53,1.1a7.85,7.85,0,0,0-.87.52.92.92,0,0,1-.64-.4c-.25-.38-.5-.29-.84-1.3a28.66,28.66,0,0,0-1.34-3.12c-.39-.8-.39-.34-.53-1.38s.11-1.1-.39-1.33a5.18,5.18,0,0,1-1-.63s-.11-2.6-.41-2.71a6,6,0,0,0-1-.2s-.7-.32-.25-1.42a7.6,7.6,0,0,0,.59-2.65c0-.52.53-1.18,1-1s1.18.17,1-.23-.2-.49-.47-.58a2.25,2.25,0,0,0-.55-.08c.1,0,.27-.09.13-.52a.88.88,0,0,0-1.07-.67,10.8,10.8,0,0,0-1.28.2,13.21,13.21,0,0,1,1.31-1.7c.56-.55,1.54-1.84,1.46-2.13s-.7-.35-1.32.4-2.2,2.11-2.34,2.4a1.31,1.31,0,0,1-.34.43s-.45.23-.81-.58a18,18,0,0,0-2.18-3c-.42-.46-1.14-.55-1-.08s.92,1.12,1.31,1.9a17.24,17.24,0,0,1,1,2.74,15.43,15.43,0,0,1,.11,2.68,16.73,16.73,0,0,0,.12,3.61l.22.54-.42.18s.48,2.54.59,4.12-.06,2,.58,2.91a15,15,0,0,1,1.29,2.6c.45.95,2.54,5,2.57,5.31s-.9.29-.36,1.41,1.73,1.82,1,2.68-1.59,1.3-1.87.67a2.69,2.69,0,0,1-.25-1.13,1.07,1.07,0,0,0-.2,1.38,1.87,1.87,0,0,0,1.34.9c.11,0-.95.69-.72,1.15l.22.46a.52.52,0,0,1,.05-.6c.26-.26,1.46-.46,1.62-.92s.4,1.73-.47,2-1.4.46-1.4.46a1.33,1.33,0,0,0,1.46.37,2.39,2.39,0,0,0,1.34-1.18,12.47,12.47,0,0,0,.69-1.67A5.9,5.9,0,0,0,58,35.45c.31.87.36,1.3,0,1.59s.75-.17.75-.92.14-.21.53.31a2.79,2.79,0,0,0,1.2.78,1.93,1.93,0,0,1-.69-1c-.12-.57.61.38.69.44s-.14-.81-.14-1a3.94,3.94,0,0,1,.56,1.5C61,37.82,62,39.78,62,41.6s-1.06,5-1.43,6.46c-.31,1.27-.67,4.58-.3,5.71s-.17,5.5-.28,6.4a54.85,54.85,0,0,0-.09,7.47,55.1,55.1,0,0,1,.76,6.57c-.09,1.19-.62,6.29-.62,7.47,0,.44,0,1.12,0,1.82a13.44,13.44,0,0,1-1-1.82,28.26,28.26,0,0,0-3.76-5.22c-1.6-2-4.68-5.38-4.8-5.59s.45-.54.66-1.27a3.3,3.3,0,0,0,0-2.78,17.15,17.15,0,0,1-1.55-2.68.24.24,0,0,0,.33-.26,1.52,1.52,0,0,0-.26-1c-.26-.47-.47-1.27-.71-1.83s0-.81-.09-1.51A29.81,29.81,0,0,0,47.73,54c-.62-1.81-1.11-2.44-1.11-2.8A66.9,66.9,0,0,0,44,43.94a8.86,8.86,0,0,0-3.08-3.17l-.92-.4L40,40s.3,0,.47,0,.56-.07.44-.61a1.53,1.53,0,0,1,0-1.15c.19-.54.3-.82.66-.92a5.63,5.63,0,0,0,2.58-2.33A4,4,0,0,0,44.63,32,11.72,11.72,0,0,0,44,28.89,10.11,10.11,0,0,0,40.45,25c-1.15-.56-2.48-1.68-4-1.64a6.31,6.31,0,0,0-2.35.32c-.17.11-.14-.05-.4-.19s-.4-.05-.4-.05.26-.23.19-.33-.4-.11-.4-.11.23-.19.23-.29-.27-.17-.36-.14a1.62,1.62,0,0,0,.64-.47,4.25,4.25,0,0,0,.73-2c-.09-.62-.31-1.4-.69-1.56s-3.75-.48-3.91,1.06A4.23,4.23,0,0,0,30,21.69c.1.17.82.46,1.1.71s-.1.43.35.69,0,.3.28.42-.58.19,0,.35S29.44,25.63,29.13,26s-1.71,2.94-1.43,4.63.23,3.46,1.22,4.15A2.4,2.4,0,0,1,30,37a5.49,5.49,0,0,1-2.32,2.47A16.71,16.71,0,0,0,24,41.76a10.78,10.78,0,0,0-3.48,5.87A53.21,53.21,0,0,1,18.76,56c-.59,1.53-.61,1.76-1,2.7s-.9,3.13-1.23,3.81-1,.54-.56,1l.66.69s-.9,1.22-1.34,1.85S13.75,68.21,13.87,69A4.71,4.71,0,0,0,15,71a.38.38,0,0,0,.57,0,2.1,2.1,0,0,0,.16-.32s.35,0,.42-.08a.74.74,0,0,0,.07-.32.79.79,0,0,0-.09-.55,6,6,0,0,1-.4-.84,2.93,2.93,0,0,1,.71-1.13,7.2,7.2,0,0,1,1.12-.66,9.06,9.06,0,0,1-.14,1.58c-.11.33.17,1.24.45,1.15s.54-.78.54-1.08a7.53,7.53,0,0,1,.4-1.7,5.68,5.68,0,0,0,.38-1.59c0-.29.49-.17.91-.5s1-.26.85-.7.12-.52,0-1.09,1-1,1-1.62,1.77-3.31,1.79-4.3a3.78,3.78,0,0,1,.38-1.81c.35-1.13,1.43-4.85,1.43-4.85s1.67,5.48,1.67,6.09.8,2.92.5,4.05-.71,1-.43,1.39.47.4.14.65-.54.22-.54.5.07.73.07.85-2.47,2.7-3.52,4-3.86,5.9-4.66,6.7A9.12,9.12,0,0,0,17.28,77l-3.76,6.25A6.22,6.22,0,0,0,12.76,85a.6.6,0,0,1-.28.57A3.09,3.09,0,0,1,11.94,87c-.4.42-.61.78-.75.92a2.64,2.64,0,0,1-.89.61c-.31.07-1.56,1.36-2,1.64a33.48,33.48,0,0,1-2.9,2,1.72,1.72,0,0,0-1,1.92c.26.87,1.72,1.23,3.08,1.09a9.87,9.87,0,0,0,3.32-.85c.42-.31-.22-.38,1.05-.52s3-.12,3.39-1.67.09-1.78-.07-2.14,2.42-3.62,2.87-4.25.7-.85,1.43-1.79A75.1,75.1,0,0,1,25,78.08c1-.79,4.21-3.94,5.67-4.41A15.8,15.8,0,0,1,36.84,73a19.51,19.51,0,0,1,5.72,2.42c2.49,1.46,8.2,5.11,9.38,6.09A46.81,46.81,0,0,1,55,85.12a29.48,29.48,0,0,1,3.5,3.62c.16.51-.17.35.21.7a4.42,4.42,0,0,1,.56.68,2,2,0,0,1,.29.47,4.42,4.42,0,0,0,0,2.12c-.44,1.37-.95,2.7-1,2.87-.17.35-.45,2.2,1.25,2.46s3-.24,3.66-2.46c.07-.22.13-.42.2-.63a5.24,5.24,0,0,0,1.12.58,5,5,0,0,0,3-.35c.54-.31,1.34-2.07.23-2.8s-1.93-.89-2.14-1.15-.53-.64-.85-1.11c0-.29,0-.56,0-.79,0-.52-.22.28,0-.87s-.5-1.12.2-1.38.36-1.1.3-1.42a19.53,19.53,0,0,1,.48-3.17c.08,0,0-.69.17-1.56s.61-3.66.72-4.15.73-4.09.73-4.67.81-4.36.81-4.36.53,3.84.53,4.33.36,6.57.42,8.62-1.06,4.65-.2,5.71-.5.58-.33,1-.25.35,0,1A2.2,2.2,0,0,1,69,89.64,29.62,29.62,0,0,0,69.72,94a19.55,19.55,0,0,0,2.62,4.38c.54.4,4.25,1.1,4.72,0A1.85,1.85,0,0,0,76.65,96a9.85,9.85,0,0,1-1.9-2,11.8,11.8,0,0,1-.9-2.16A5.6,5.6,0,0,1,73.66,90c.08-.26.22.12.42-.58a2.25,2.25,0,0,0,0-1.21c0-.17.78-5.54,1-6.69a39.76,39.76,0,0,0,.16-5.33c0-.75.65-3.81.65-4.71a15.61,15.61,0,0,1,.3-2.13c.09-.75.78-7.38.78-8.42s1.07-6.75,1.07-6.75a2.57,2.57,0,0,0,.44-1,2.68,2.68,0,0,0,.09-1.53c-.09-.29.71-1.38.49-2.39s.09-1.24-.21-2.14a60.45,60.45,0,0,1-.53-7.5c0-.92.39-1.06.3-.43l-.08.64a5.56,5.56,0,0,0,.5-1.94c0-.77,0-1.26,0-1.26a5.69,5.69,0,0,0,1.09,1.9c.51.32,1.82.35,1.87-.26a1.23,1.23,0,0,0-.22-.92s.17.46,0,.6-.28.52-.56.06a7.48,7.48,0,0,1-.58-1c0-.09.55.23.58.32s.11.17.11-.35-.19-.2-.3-.87.75.67,1.2,1a3.25,3.25,0,0,0,.84.43s-.42-.15-.81-1a2.38,2.38,0,0,1-.23-1.5l0-.32s1,.84.81,1.21,0,.38,0,.38.7-.23.42-1.3a5.19,5.19,0,0,0-1.26-2s1.76-1.15,2.43-1.5,1.23.35,2-.84S87.54,28.24,88,27.9s3-2.74,4-3.49a13.56,13.56,0,0,0,2.64-4.92c.17-1,.92-3.4,1-4.07A34.39,34.39,0,0,0,95.49,10.78Z" style="fill:#231f20"/></g></svg>