<svg id="pupil-expierience" xmlns="http://www.w3.org/2000/svg" viewBox="0 0 100 100"><title>pupil-experience</title><path d="M90.63,13.51A27.78,27.78,0,0,0,71.15,6.17Q56,6.17,50,19.16q-6-13-21.15-13A27.78,27.78,0,0,0,9.37,13.51,24.78,24.78,0,0,0,1,32.51C1,67.18,47.61,93.1,50,93.83c2.39-.73,49-26.65,49-61.32A24.78,24.78,0,0,0,90.63,13.51ZM82.35,25.44c0,.42-.51,2-.61,2.59a8.6,8.6,0,0,1-1.68,3.13c-.59.48-2.23,2-2.53,2.23s-.53,1-1,1.78-.81.31-1.24.53-1.55,1-1.55,1a3.3,3.3,0,0,1,.8,1.28c.18.68-.27.83-.27.83s-.1,0,0-.24-.51-.77-.51-.77l0,.2a1.54,1.54,0,0,0,.14,1c.25.53.52.62.52.62a2,2,0,0,1-.54-.27c-.28-.21-.83-1.05-.76-.63s.19.22.19.55,0,.28-.07.22-.37-.25-.37-.2a4.31,4.31,0,0,0,.37.62c.18.3.25.06.36,0s0-.39,0-.39a.79.79,0,0,1,.14.59c0,.39-.87.37-1.19.17A3.65,3.65,0,0,1,71.86,39s0,.32,0,.81A3.44,3.44,0,0,1,71.55,41l.06-.4c0-.41-.2-.31-.2.27a38.14,38.14,0,0,0,.34,4.78c.19.57,0,.72.13,1.36s-.36,1.34-.31,1.52a1.78,1.78,0,0,1,0,1,1.63,1.63,0,0,1-.29.6s-.67,3.64-.67,4.3-.45,4.89-.5,5.37a8.56,8.56,0,0,0-.2,1.35c0,.57-.41,2.52-.41,3a25.27,25.27,0,0,1-.1,3.4c-.16.73-.68,4.15-.66,4.26a1.36,1.36,0,0,1,0,.77c-.12.44-.21.2-.26.37a3.43,3.43,0,0,0,.12,1.17,7.25,7.25,0,0,0,.57,1.38,6.45,6.45,0,0,0,1.21,1.31,1.18,1.18,0,0,1,.27,1.52c-.31.7-2.67.26-3,0a12.5,12.5,0,0,1-1.67-2.79,18,18,0,0,1-.48-2.79,1.44,1.44,0,0,0-.06-.85c-.14-.39.13-.37,0-.61s.77.08.21-.6.16-2.33.13-3.64-.27-5.18-.27-5.49-.34-2.76-.34-2.76-.51,2.41-.51,2.78-.39,2.66-.46,3-.38,2.1-.47,2.65,0,1-.1,1a11.64,11.64,0,0,0-.31,2c0,.2.25.74-.19.9s0,.15-.13.88,0,.22,0,.55a4.77,4.77,0,0,1,0,.51c.21.3.42.56.54.71s.66.27,1.37.73.19,1.59-.15,1.78a3.18,3.18,0,0,1-1.92.23A4.45,4.45,0,0,1,62,76.1c-.05.13-.09.26-.13.4a1.86,1.86,0,0,1-2.33,1.56c-1.08-.16-.91-1.34-.8-1.56s.38-1,.66-1.83a2.85,2.85,0,0,1,0-1.35,1.27,1.27,0,0,0-.17-.3,2.83,2.83,0,0,0-.36-.43c-.24-.23,0-.12-.14-.45a19.14,19.14,0,0,0-2.23-2.31c-.35-.31-1.2-1.67-2-2.3s-4.39-3-6-3.88a12.3,12.3,0,0,0-3.64-1.55,10.21,10.21,0,0,0-3.91.44c-.93.3-3,2.3-3.61,2.81A46.86,46.86,0,0,0,33.9,69c-.47.6-.63.73-.91,1.14s-1.94,2.48-1.83,2.71.27.37,0,1.36-1.34,1-2.15,1.06-.41.14-.68.33a6,6,0,0,1-2.11.54c-.87.09-1.8-.13-2-.69a1.08,1.08,0,0,1,.61-1.22c.33-.12,1.56-1.07,1.85-1.25s1.07-1,1.27-1a1.64,1.64,0,0,0,.57-.39c.09-.09.22-.31.48-.58a2,2,0,0,0,.34-.87.36.36,0,0,0,.18-.36,4.14,4.14,0,0,1,.48-1.14l2.4-4a5.82,5.82,0,0,1,.94-1.32c.51-.51,2.29-3.41,3-4.27s2.24-2.5,2.24-2.57,0-.36,0-.54.13-.15.34-.32.09-.19-.09-.42.08-.16.27-.88a9.43,9.43,0,0,0-.31-2.58c0-.38-1.07-3.87-1.07-3.87S37,50.24,36.82,51a2.38,2.38,0,0,0-.24,1.15c0,.63-1.12,2.39-1.14,2.75s-.73.67-.66,1-.1.4,0,.69-.27.24-.54.45-.6.13-.58.31a4,4,0,0,1-.24,1,4.76,4.76,0,0,0-.25,1.08c0,.19-.17.63-.35.69s-.36-.53-.28-.74a6.44,6.44,0,0,0,.09-1,4.64,4.64,0,0,0-.72.42,1.9,1.9,0,0,0-.45.72,4,4,0,0,0,.25.54.44.44,0,0,1,.06.34.55.55,0,0,1,0,.21c-.05.08-.27.05-.27.05a1.46,1.46,0,0,1-.11.21c-.06.09-.22.1-.36,0a3.09,3.09,0,0,1-.69-1.29c-.07-.51.65-1.45.93-1.85l.86-1.19s-.14-.13-.42-.43.15-.21.36-.65.55-1.82.78-2.42.24-.75.61-1.72A34.29,34.29,0,0,0,34.54,46a6.92,6.92,0,0,1,2.22-3.75,11.38,11.38,0,0,1,2.35-1.48,3.45,3.45,0,0,0,1.48-1.57,1.52,1.52,0,0,0-.7-1.42c-.63-.44-.59-1.57-.77-2.64a5.18,5.18,0,0,1,.9-3c.2-.21,2-1.23,1.65-1.33s.23-.15,0-.23.11-.1-.18-.27,0-.27-.22-.43-.64-.35-.7-.45a2.76,2.76,0,0,1-.17-1.35c.1-1,2.25-.78,2.49-.68s.38.61.44,1a2.85,2.85,0,0,1-.46,1.3,1,1,0,0,1-.4.29c.07,0,.22.05.22.1s-.15.18-.15.18.21,0,.26.07-.12.21-.12.21.09-.06.25,0,.15.2.25.12a4.31,4.31,0,0,1,1.5-.2,5.81,5.81,0,0,1,2.53,1A6.39,6.39,0,0,1,49.46,34,7.08,7.08,0,0,1,49.9,36a2.61,2.61,0,0,1-.28,2A3.59,3.59,0,0,1,48,39.43c-.23.06-.3.24-.42.58a1,1,0,0,0,0,.74c.08.34-.18.39-.28.39a2.57,2.57,0,0,1-.3,0l0,.22.58.26a5.48,5.48,0,0,1,2,2,42.57,42.57,0,0,1,1.7,4.64c0,.23.3.63.7,1.78a18.63,18.63,0,0,1,.69,3.54c0,.45-.09.6.06,1s.28.86.45,1.16a1,1,0,0,1,.16.62.15.15,0,0,1-.21.16,11.07,11.07,0,0,0,1,1.71A2.07,2.07,0,0,1,54,60c-.13.46-.49.67-.42.81s2,2.3,3.06,3.56a18,18,0,0,1,2.4,3.33,8.49,8.49,0,0,0,.65,1.15c0-.45,0-.87,0-1.15,0-.76.34-4,.39-4.76a36.42,36.42,0,0,0-.48-4.19,35.12,35.12,0,0,1,.05-4.76,17.62,17.62,0,0,0,.18-4.08,10.47,10.47,0,0,1,.2-3.63,20.7,20.7,0,0,0,.9-4.12,11.28,11.28,0,0,0-.72-2.83,2.62,2.62,0,0,0-.36-1c0,.11.14.66.09.62s-.52-.64-.45-.27a1.32,1.32,0,0,0,.45.64,1.72,1.72,0,0,1-.77-.5c-.25-.33-.33-.68-.33-.2s-.7.77-.48.59.17-.46,0-1a3.76,3.76,0,0,1-.22-1,7.6,7.6,0,0,1-.44,1.06,1.51,1.51,0,0,1-.85.76.85.85,0,0,1-.93-.24s.34-.13.89-.29.41-1.57.3-1.27-.87.42-1,.59a.33.33,0,0,0,0,.36v0h0v0l-.13-.27c-.14-.3.54-.74.46-.74a1.17,1.17,0,0,1-.85-.57.68.68,0,0,1,.13-.88,1.7,1.7,0,0,0,.16.72c.17.4.74.13,1.19-.42s-.32-1-.66-1.71.25-.7.23-.9S55.24,30.61,55,30a9.77,9.77,0,0,0-.81-1.66c-.41-.58-.31-.84-.38-1.85s-.37-2.63-.37-2.63l.27-.11-.15-.35a10.79,10.79,0,0,1-.07-2.29,9.69,9.69,0,0,0-.07-1.71,11,11,0,0,0-.66-1.75c-.25-.49-.75-.92-.83-1.21s.37-.24.64.06a11.64,11.64,0,0,1,1.38,1.91c.24.51.52.36.52.36a.81.81,0,0,0,.21-.27c.09-.19,1.11-1.05,1.5-1.53s.78-.44.83-.25-.57,1-.92,1.36a7.69,7.69,0,0,0-.84,1.08A7,7,0,0,1,56,19a.57.57,0,0,1,.68.42c.09.28,0,.33-.08.34a1.21,1.21,0,0,1,.34.05c.18,0,.2.11.31.37s-.36.25-.64.14S56,20.68,56,21a5,5,0,0,1-.37,1.69c-.28.69.16.9.16.9a4.29,4.29,0,0,1,.66.12c.19.08.27,1.73.27,1.73a3.15,3.15,0,0,0,.62.41c.32.14.16.18.25.84s.09.37.33.88a17.74,17.74,0,0,1,.86,2c.21.64.37.58.53.82a.59.59,0,0,0,.41.26,4.14,4.14,0,0,1,.55-.33c.22-.09,0-.26.34-.7a2.83,2.83,0,0,0,.45-1.71c0-.8.37-.91.37-1.29s.72-1.32,1-2,2.35-1.18,2.35-1.18A3.49,3.49,0,0,1,67,24a5.21,5.21,0,0,1,1.52,1.73c.13.25.3,1,.5,1.07a3,3,0,0,1,.68,1,11.85,11.85,0,0,1,.46,2.14c0,.42.11.25.61.65s.64.92,1,1.33a1.82,1.82,0,0,0,.83.55l.69-.19a6.42,6.42,0,0,0,.7-.43c.14-.13,1.38-.63,1.57-.75a1.82,1.82,0,0,0,.67-.72,3.71,3.71,0,0,1,1.61-1.16c.47-.12.52-.31.58-.55s1.15-.46,1.26-.65a4.28,4.28,0,0,0,.17-.91,1.33,1.33,0,0,0-.5-.59,3.11,3.11,0,0,1-.92-1.2c0-.18.1-.22.26-.23s.61.48.8.72a1.56,1.56,0,0,0,.84.41c.07,0,0-.35,0-.5a4.23,4.23,0,0,0-.72-1.05,3.31,3.31,0,0,1-.78-1.19c0-.24.23-.26.37-.19s1.38,1.54,1.41,1.6a5.45,5.45,0,0,0,.47.43l0-.06c0-.06,0-.8-.06-.84a7.56,7.56,0,0,0-.32-.88,5.24,5.24,0,0,1-.43-1.19.23.23,0,0,1,.34-.22,4.39,4.39,0,0,1,.7,1.1c.07.16.45.93.45.93s.06-.67.06-.92a7.8,7.8,0,0,1,.11-1.08c.07-.44.31-.11.42.34A21,21,0,0,1,82.35,25.44Z"/></svg>