<svg id="ib-world-school-colour" xmlns="http://www.w3.org/2000/svg" xmlns:xlink="http://www.w3.org/1999/xlink" viewBox="0 0 98.29 98.18"><defs><linearGradient id="linear-gradient" x1="29.78" y1="21.11" x2="70.3" y2="78.97" gradientUnits="userSpaceOnUse"><stop offset="0.22" stop-color="#b2bdda"/><stop offset="0.34" stop-color="#99adcf"/><stop offset="0.58" stop-color="#5a85b4"/><stop offset="0.9" stop-color="#004b8d"/></linearGradient></defs><title>ib-world-school-logo-1-colour</title><g id="text"><path d="M88.74,74.38l-.27-1.3.28-.46.4,1.07ZM85.36,72.5l1-1.69-1.58-.94-1.13,1.9-.47-.29L84.66,69,89,71.62,87.62,74l-.47-.28,1.07-1.8-1.39-.82-1,1.69Z" transform="translate(-0.85 -0.91)" style="fill:#004b8d"/><path d="M80.11,75.86a3.3,3.3,0,0,1,.64-1.21,2.38,2.38,0,0,1,3.58-.38A2.53,2.53,0,0,1,84.8,78a2.68,2.68,0,0,1-.93.81l-.32-.46a2.24,2.24,0,0,0,.8-.67,1.9,1.9,0,0,0-.43-2.86,1.84,1.84,0,0,0-2.81.28,2.47,2.47,0,0,0-.5,1Z" transform="translate(-0.85 -0.91)" style="fill:#004b8d"/><path d="M77.42,78.29a2.33,2.33,0,0,1,3.44.27A2.41,2.41,0,0,1,81,82.12a2.32,2.32,0,0,1-3.44-.26,2.39,2.39,0,0,1-.16-3.57Zm.35.41c-.75.72-.51,1.82.29,2.65a1.82,1.82,0,0,0,2.6.37c.79-.76.47-1.87-.29-2.67a1.83,1.83,0,0,0-2.6-.36Z" transform="translate(-0.85 -0.91)" style="fill:#004b8d"/><path d="M77.37,85.18l-.54.4-2.68-3.66L72.4,83.2l-.33-.44,2.29-1.68Z" transform="translate(-0.85 -0.91)" style="fill:#004b8d"/><path d="M69.56,87l1.71-1-.91-1.6-1.91,1.09-.28-.48,2.5-1.42,2.52,4.43-2.4,1.36L70.52,89l1.81-1-.79-1.4-1.71,1Z" transform="translate(-0.85 -0.91)" style="fill:#004b8d"/><path d="M65.8,91.63a10.22,10.22,0,0,1-1.3.54,2.88,2.88,0,0,1-2.16,0,2.36,2.36,0,0,1-1.26-1.51,2.76,2.76,0,0,1,.07-2.11,3.24,3.24,0,0,1,1.92-1.41,9.78,9.78,0,0,1,1.16-.31Zm-2-4.07a4.36,4.36,0,0,0-.64.18,2,2,0,0,0-1.38,2.73,1.81,1.81,0,0,0,2.58,1.21,3.66,3.66,0,0,0,.71-.3Z" transform="translate(-0.85 -0.91)" style="fill:#004b8d"/><path d="M58.71,93.71l-.51-3c-.19-1.11-.77-1.5-1.44-1.39s-1.14.7-.95,1.8l.51,3-.66.11-.5-2.93c-.26-1.54.44-2.31,1.53-2.49s1.9.27,2.17,1.83l.5,3Z" transform="translate(-0.85 -0.91)" style="fill:#004b8d"/><path d="M45.77,91.52c0,.71,0,1.57-.05,2.2h0c.21-.58.45-1.21.75-1.9l1-2.41.5,0,.69,2.47c.2.74.35,1.4.46,2h0c0-.63.14-1.48.23-2.24l.26-2.17.62,0-.65,5.06-.83,0-.73-2.5c-.17-.64-.3-1.21-.41-1.74h0c-.17.5-.38,1-.65,1.68L46,94.39l-.83,0,0-5.1.65,0Z" transform="translate(-0.85 -0.91)" style="fill:#004b8d"/><path d="M41.26,88.4a2.32,2.32,0,0,1,1.66,3A2.4,2.4,0,0,1,40,93.51a2.31,2.31,0,0,1-1.67-3,2.38,2.38,0,0,1,2.89-2.09Zm-.15.51c-1-.23-1.8.58-2,1.71A1.81,1.81,0,0,0,40.18,93c1.07.24,1.83-.63,2.07-1.7a1.82,1.82,0,0,0-1.13-2.37Z" transform="translate(-0.85 -0.91)" style="fill:#004b8d"/><path d="M37.23,87.4l-1.87,4.73-.67-.26-.57-3A15.72,15.72,0,0,1,33.88,87h0c-.19.65-.4,1.23-.69,2l-.78,2-.58-.22L33.67,86l.62.24.56,3a13.49,13.49,0,0,1,.25,1.92h0c.2-.62.42-1.19.73-2l.79-2Z" transform="translate(-0.85 -0.91)" style="fill:#004b8d"/><path d="M29.26,89.43A9.59,9.59,0,0,1,28,88.82a2.93,2.93,0,0,1-1.46-1.58,2.35,2.35,0,0,1,.29-1.95A2.72,2.72,0,0,1,28.45,84a3.15,3.15,0,0,1,2.32.5,10.6,10.6,0,0,1,1,.65ZM31,85.2a4.6,4.6,0,0,0-.56-.36,2,2,0,0,0-3,.78,1.81,1.81,0,0,0,.8,2.73,4,4,0,0,0,.7.33Z" transform="translate(-0.85 -0.91)" style="fill:#004b8d"/><path d="M23.18,82.2l1.55,1.21L25.86,82l-1.74-1.35.34-.44,2.26,1.76L23.6,86l-2.18-1.69.34-.44,1.65,1.29,1-1.27-1.56-1.21Z" transform="translate(-0.85 -0.91)" style="fill:#004b8d"/><path d="M19.66,78.05a.79.79,0,1,1-1.12,0,.79.79,0,0,1,1.12,0Z" transform="translate(-0.85 -0.91)" style="fill:#004b8d"/><path d="M15.64,70a3.2,3.2,0,0,1,.94,1,2.38,2.38,0,0,1-.79,3.51,2.53,2.53,0,0,1-3.69-.77,2.52,2.52,0,0,1-.47-1.13l.54-.15a2.19,2.19,0,0,0,.38,1,1.89,1.89,0,0,0,2.84.52A1.85,1.85,0,0,0,16,71.15a2.77,2.77,0,0,0-.77-.79Z" transform="translate(-0.85 -0.91)" style="fill:#004b8d"/><path d="M14.22,66.65a2.32,2.32,0,0,1-1.36,3.17,2.41,2.41,0,0,1-3.42-1,2.32,2.32,0,0,1,1.35-3.17,2.39,2.39,0,0,1,3.43,1Zm-.49.2c-.45-.94-1.57-1.07-2.61-.58a1.84,1.84,0,0,0-1.19,2.35c.47,1,1.62,1,2.62.58a1.82,1.82,0,0,0,1.18-2.34Z" transform="translate(-0.85 -0.91)" style="fill:#004b8d"/><path d="M7.71,64.39l-.2-.64,4.33-1.36-.65-2.07.53-.16.85,2.7Z" transform="translate(-0.85 -0.91)" style="fill:#004b8d"/><path d="M8.49,56.38l.37,1.94,1.8-.34-.41-2.17.55-.1.53,2.82-5,.95-.51-2.71.54-.1.39,2,1.58-.3L8,56.48Z" transform="translate(-0.85 -0.91)" style="fill:#004b8d"/><path d="M10.12,50.05a4.65,4.65,0,0,1,.37,1.55,2.63,2.63,0,0,1-.57,1.94,2.61,2.61,0,0,1-1.86.81,2.55,2.55,0,0,1-2.77-2.61,3.12,3.12,0,0,1,.17-1.29l.54.14a2.53,2.53,0,0,0-.16,1.13A1.92,1.92,0,0,0,8,53.66a1.85,1.85,0,0,0,1.94-2.07,2.15,2.15,0,0,0-.18-.87l-1.52.08.06,1-.53,0-.09-1.67Z" transform="translate(-0.85 -0.91)" style="fill:#004b8d"/><path d="M5.39,47.18l5.09.27,0,.67-5.08-.28Z" transform="translate(-0.85 -0.91)" style="fill:#004b8d"/><path d="M11,43.41a2.32,2.32,0,0,1-2.91,1.85,2.4,2.4,0,0,1-2.26-2.74,2.31,2.31,0,0,1,2.9-1.86A2.38,2.38,0,0,1,11,43.41Zm-.52-.11c.16-1-.69-1.76-1.83-1.95a1.83,1.83,0,0,0-2.3,1.28c-.17,1.08.75,1.78,1.84,1.95a1.82,1.82,0,0,0,2.29-1.27Z" transform="translate(-0.85 -0.91)" style="fill:#004b8d"/><path d="M7.88,35a10.59,10.59,0,0,1,.42-1.34A3,3,0,0,1,9.65,32a2.35,2.35,0,0,1,2,0,2.72,2.72,0,0,1,1.56,1.42A3.17,3.17,0,0,1,13,35.81a9.55,9.55,0,0,1-.51,1.09Zm4.43,1.07a5.23,5.23,0,0,0,.28-.61,2,2,0,0,0-1.2-2.81A1.81,1.81,0,0,0,8.8,33.86a3.32,3.32,0,0,0-.22.74Z" transform="translate(-0.85 -0.91)" style="fill:#004b8d"/><path d="M14.16,28l-1,1.71,1.59.91,1.09-1.92.48.28-1.42,2.49-4.42-2.52,1.36-2.39.48.27-1,1.82,1.4.79,1-1.71Z" transform="translate(-0.85 -0.91)" style="fill:#004b8d"/><path d="M13.24,24.44l.39-.53,3.66,2.69,1.29-1.76.44.33-1.68,2.29Z" transform="translate(-0.85 -0.91)" style="fill:#004b8d"/><path d="M23.53,17.45C23,17,22.42,16.33,22,15.87h0c.25.56.53,1.17.8,1.87l1,2.44-.37.33-2.23-1.26c-.66-.38-1.24-.73-1.75-1.09h0c.41.48.94,1.14,1.42,1.75l1.35,1.72-.47.41-3.12-4,.63-.56,2.28,1.26c.58.33,1.07.64,1.53.94h0c-.24-.47-.48-1-.74-1.64l-1-2.44L22,15l3.62,3.59-.48.43Z" transform="translate(-0.85 -0.91)" style="fill:#004b8d"/><path d="M25,12.83l1.62,2.55c.61,1,1.29,1.09,1.87.73s.77-1.09.17-2l-1.62-2.55.56-.35,1.6,2.51c.84,1.32.48,2.29-.45,2.88s-1.85.49-2.7-.85l-1.61-2.53Z" transform="translate(-0.85 -0.91)" style="fill:#004b8d"/><path d="M32.2,14.48,30.13,9.83l.66-.3,2.53,1.69a14.27,14.27,0,0,1,1.5,1.15l0,0c-.33-.59-.6-1.15-.92-1.87l-.87-2,.57-.26,2.07,4.66-.61.26-2.52-1.7A14.09,14.09,0,0,1,31,10.32v0c.29.57.55,1.12.89,1.9l.88,2Z" transform="translate(-0.85 -0.91)" style="fill:#004b8d"/><path d="M36.33,7.37a11.25,11.25,0,0,1,1.33-.47A2.92,2.92,0,0,1,39.81,7,2.36,2.36,0,0,1,41,8.54a2.75,2.75,0,0,1-.19,2.1,3.15,3.15,0,0,1-2,1.3,7.8,7.8,0,0,1-1.18.26Zm1.83,4.18a4.47,4.47,0,0,0,.65-.15,2,2,0,0,0,1.52-2.66,1.82,1.82,0,0,0-2.51-1.35,4.13,4.13,0,0,0-.72.27Z" transform="translate(-0.85 -0.91)" style="fill:#004b8d"/><path d="M45.43,10.64a2.31,2.31,0,0,1-2.56-2.3,2.42,2.42,0,0,1,2-2.93,2.32,2.32,0,0,1,2.57,2.3,2.39,2.39,0,0,1-2,2.93Zm0-.53c1-.12,1.51-1.14,1.38-2.29-.11-1-.76-2-1.84-1.87s-1.52,1.2-1.39,2.29.82,2,1.85,1.87Z" transform="translate(-0.85 -0.91)" style="fill:#004b8d"/><path d="M52.73,8.59a.79.79,0,1,1,.85-.74.8.8,0,0,1-.85.74Z" transform="translate(-0.85 -0.91)" style="fill:#004b8d"/><path d="M58.51,11.2,58.58,6l.67.18-.08,2.64c0,.66-.05,1.3-.09,1.8h0c.21-.47.52-1,.86-1.6l1.32-2.3.66.17L61.87,9.5c0,.63,0,1.24-.11,1.78h0c.25-.51.53-1,.85-1.59l1.31-2.31.65.17L61.87,12.1l-.66-.18.06-2.72c0-.68,0-1.18.11-1.7h0A13.6,13.6,0,0,1,60.56,9l-1.38,2.37Z" transform="translate(-0.85 -0.91)" style="fill:#004b8d"/><path d="M66.5,14a2.33,2.33,0,0,1-1-3.3,2.41,2.41,0,0,1,3.26-1.44,2.32,2.32,0,0,1,1,3.3A2.39,2.39,0,0,1,66.5,14Zm.25-.47c.94.43,1.88-.19,2.36-1.24a1.83,1.83,0,0,0-.6-2.56c-1-.46-1.92.24-2.38,1.24a1.82,1.82,0,0,0,.61,2.55Z" transform="translate(-0.85 -0.91)" style="fill:#004b8d"/><path d="M73,11.63a6.44,6.44,0,0,1,1.12.59,2.09,2.09,0,0,1,1,1.16,1.27,1.27,0,0,1-.19,1,1.36,1.36,0,0,1-1.51.56v0a1.3,1.3,0,0,1,.07,1.27A8.88,8.88,0,0,0,73,17.64l-.57-.37a5.61,5.61,0,0,1,.38-1.2c.25-.67.16-1.05-.33-1.39L72,14.34l-1.2,1.86-.55-.36Zm-.7,2.3.57.36a1,1,0,0,0,1.48-.19c.36-.55.12-1-.47-1.43a2.92,2.92,0,0,0-.57-.3Z" transform="translate(-0.85 -0.91)" style="fill:#004b8d"/><path d="M77.61,14.76l.51.42-2.91,3.49,1.67,1.39-.35.43-2.18-1.82Z" transform="translate(-0.85 -0.91)" style="fill:#004b8d"/><path d="M81.44,18.21a9.8,9.8,0,0,1,1,1,3,3,0,0,1,.94,1.95,2.39,2.39,0,0,1-.86,1.77,2.72,2.72,0,0,1-2,.8,3.13,3.13,0,0,1-2.07-1.16,10.11,10.11,0,0,1-.77-.93Zm-2.86,3.55a4.81,4.81,0,0,0,.42.51,2,2,0,0,0,3.06.13,1.81,1.81,0,0,0,0-2.85,3.86,3.86,0,0,0-.57-.52Z" transform="translate(-0.85 -0.91)" style="fill:#004b8d"/><path d="M83.76,27.73a2.25,2.25,0,0,0,.33,1.17c.35.58.85.73,1.29.46s.5-.62.36-1.34-.06-1.53.54-1.9a1.47,1.47,0,0,1,2,.69,2.32,2.32,0,0,1,.37,1.08l-.56.13a1.78,1.78,0,0,0-.29-.95c-.36-.59-.85-.6-1.15-.42s-.44.63-.31,1.37c.16.91,0,1.5-.61,1.88a1.53,1.53,0,0,1-2.18-.75,2.7,2.7,0,0,1-.39-1.28Z" transform="translate(-0.85 -0.91)" style="fill:#004b8d"/><path d="M87.05,35.44a3.26,3.26,0,0,1-.77-1.13A2.38,2.38,0,0,1,87.61,31a2.54,2.54,0,0,1,3.53,1.34,2.67,2.67,0,0,1,.28,1.19l-.55.07a2.29,2.29,0,0,0-.23-1,1.88,1.88,0,0,0-2.72-.95,1.83,1.83,0,0,0-1.07,2.61,2.44,2.44,0,0,0,.63.9Z" transform="translate(-0.85 -0.91)" style="fill:#004b8d"/><path d="M92.59,36.42l-2,.59.68,2.37,2-.59.18.64-4.89,1.4-.18-.64,2.29-.66L90,37.17l-2.3.65-.18-.63,4.89-1.41Z" transform="translate(-0.85 -0.91)" style="fill:#004b8d"/><path d="M89.16,44.84a2.32,2.32,0,0,1,2.27-2.59,2.41,2.41,0,0,1,2.95,2,2.31,2.31,0,0,1-2.26,2.6,2.39,2.39,0,0,1-3-2Zm.54,0c.13,1,1.15,1.49,2.3,1.35,1-.13,2-.79,1.85-1.88s-1.22-1.49-2.32-1.35-2,.84-1.84,1.87Z" transform="translate(-0.85 -0.91)" style="fill:#004b8d"/><path d="M89.46,51a2.33,2.33,0,0,1,2.65-2.21,2.41,2.41,0,0,1,2.6,2.44,2.31,2.31,0,0,1-2.64,2.21A2.38,2.38,0,0,1,89.46,51ZM90,51c0,1,.91,1.66,2.06,1.69s2.09-.47,2.12-1.56-1-1.67-2.07-1.7S90,50,90,51Z" transform="translate(-0.85 -0.91)" style="fill:#004b8d"/><path d="M94.25,55.92l-.11.65-4.48-.71L89.32,58l-.55-.08.45-2.81Z" transform="translate(-0.85 -0.91)" style="fill:#004b8d"/><path id="dot" d="M89.23,63a.78.78,0,0,1,1-.49.79.79,0,0,1,.5,1,.78.78,0,0,1-1,.5.8.8,0,0,1-.51-1Z" transform="translate(-0.85 -0.91)" style="fill:#004b8d"/></g><g id="logo"><path d="M87,50A37,37,0,1,1,50,13,37,37,0,0,1,87,50Z" transform="translate(-0.85 -0.91)" style="fill:#fff"/><path d="M85.39,50a35.39,35.39,0,0,1-69.75,8.5,48.07,48.07,0,0,0,19.42-4.33V40.38A2.68,2.68,0,0,0,33.93,38a7.8,7.8,0,0,0-4-.75V36c2.57-.08,4.92-.24,7.06-.45a33,33,0,0,0,5.53-1l0,20v3.71c0,1.3,0,2.59-.06,3.84s-.11,2.44-.19,3.53-.19,2-.32,2.77a34.22,34.22,0,0,0,7,3,24.26,24.26,0,0,0,7.19,1.19,17.7,17.7,0,0,0,5.49-.85,14.22,14.22,0,0,0,4.7-2.49,12.43,12.43,0,0,0,3.31-4,11.43,11.43,0,0,0,1.26-5.42A13.47,13.47,0,0,0,70,54.7a12,12,0,0,0-2.66-4,12.25,12.25,0,0,0-4-2.68,13,13,0,0,0-5.11-1,13.35,13.35,0,0,0-4.27.73,19.28,19.28,0,0,0-3.94,1.81v-6A48.1,48.1,0,0,0,62.51,19,34.4,34.4,0,0,0,16.84,38.53a35.12,35.12,0,0,1,46-21.5s0,0,0,0A35.41,35.41,0,0,1,85.39,50ZM51,68.1a5.22,5.22,0,0,0,4.92,2.49,5.22,5.22,0,0,0,4.91-2.49q1.45-2.49,1.45-7.84c0-3.58-.48-6.19-1.45-7.85a5.22,5.22,0,0,0-4.91-2.49A5.22,5.22,0,0,0,51,52.41c-1,1.66-1.45,4.27-1.45,7.85S50,66.44,51,68.1ZM41.78,30.55a5.13,5.13,0,0,0,0-7.19,5.12,5.12,0,0,0-7.12,0A4.8,4.8,0,0,0,33.19,27a4.76,4.76,0,0,0,1.47,3.59,5.12,5.12,0,0,0,7.12,0Z" transform="translate(-0.85 -0.91)" style="fill:url(#linear-gradient)"/></g><g id="outline"><path d="M86.08,17.93a48.31,48.31,0,0,1-45,79.6A47.15,47.15,0,0,0,53.1,99.09h.23A49.16,49.16,0,0,0,93.77,27.68,47.5,47.5,0,0,0,86.08,17.93Z" transform="translate(-0.85 -0.91)" style="fill:#004b8d"/><path d="M1.69,50.06A48.32,48.32,0,0,1,41.93,2.42,50.78,50.78,0,0,1,53.1,1.18c.9,0,1.79,0,2.68.07A50.25,50.25,0,0,0,50,.91a49.15,49.15,0,0,0-38.89,79.2,50.56,50.56,0,0,1-6-12.29A48.08,48.08,0,0,1,1.69,50.06Z" transform="translate(-0.85 -0.91)" style="fill:#004b8d"/></g><path d="M52.9,50A2.9,2.9,0,1,1,50,47.1,2.86,2.86,0,0,1,52.9,50Zm-5.35,0A2.45,2.45,0,1,0,50,47.51,2.43,2.43,0,0,0,47.55,50Zm1.81,1.68H49V48.32h1.28c.76,0,1.1.33,1.1.93a.91.91,0,0,1-.85.94l1,1.49H51l-.94-1.49h-.7Zm.55-1.84c.5,0,1,0,1-.59s-.39-.58-.79-.58h-.76v1.17Z" transform="translate(-0.85 -0.91)" style="fill:#607cb1"/></svg>