<?xml version="1.0" encoding="utf-8"?>
<!-- Generator: Adobe Illustrator 22.1.0, SVG Export Plug-In . SVG Version: 6.00 Build 0)  -->
<svg version="1.1" id="Layer_1" xmlns="http://www.w3.org/2000/svg" xmlns:xlink="http://www.w3.org/1999/xlink" x="0px" y="0px"
	 viewBox="0 0 612 230" style="enable-background:new 0 0 612 230;" xml:space="preserve">
<g>
	<path style="fill:#F9ED32;" d="M484.4,89.9c-19.5-0.8-60.8,2.2-100.8,5.1c-39.5,2.8-80.3,5.8-99.2,5c-35.4-1.4-138.1-4.7-186.9-2.3
		c-44.3,2.1-90.4,1.6-96.8,1.6v1.6c6.5,0.1,52.7,0.6,96.9-1.6c48.7-2.4,151.3,0.9,186.7,2.3c2.1,0.1,4.5,0.1,7.1,0.1
		c20.9,0,57.2-2.6,92.3-5.1c39.9-2.9,81.2-5.8,100.6-5.1c36,1.4,116.6,2.2,126.8,2.3v-1.6C600.9,92.1,520.4,91.3,484.4,89.9z"/>
	<path style="fill:#EE2A7B;" d="M561,106.9c-17.3,1.6-31.9-1.9-54-7.1c-12.9-3.1-27.5-6.5-46.6-9.9C422,83,409.5,88,395.1,93.8
		c-5.3,2.1-10.8,4.3-17.9,6.1c-26,6.7-45.2,6.5-70.9-0.8c-15-4.2-29.7-1.2-45.3,2c-10,2.1-20.4,4.2-30.9,4.2
		c-14.2,0-26.9-3.5-40.3-7.2c-11.7-3.2-23.8-6.5-38.7-8.3c-22.7-2.7-33.2,0.2-54.1,6.1c-9.2,2.6-20.6,5.8-36.1,9.4
		c-45.8,10.6-58.7,0.4-60.3-1.1v2c2.6,1.9,9.5,5.4,24.4,5.4c8.9,0,20.7-1.2,36.2-4.8c15.5-3.6,27-6.8,36.2-9.4
		c20.7-5.8,31.1-8.8,53.5-6.1c14.8,1.8,26.8,5.1,38.4,8.3c13.5,3.7,26.3,7.2,40.7,7.2c10.6,0,21.1-2.1,31.2-4.2
		c15.4-3.2,29.9-6.1,44.5-2c26,7.3,45.5,7.5,71.7,0.8c7.2-1.9,12.7-4.1,18.1-6.2c14.3-5.7,26.6-10.7,64.5-3.9
		c19,3.4,33.6,6.9,46.5,9.9c22.2,5.3,36.9,8.8,54.5,7.1c24.9-2.3,42.7-7.7,50-10.3v-1.6C604.3,99,586.4,104.6,561,106.9z"/>
	<path style="fill:#FBB040;stroke:#FBB040;" d="M595.2,71c-1.7-4-3.5-8.3-5.3-12.8C580.2,34.2,569.1,7,555.5,7
		c-16,0-31,27.6-44.4,82c-2.6,10.5-4.9,21.2-7.2,31.5c-9.3,42.7-17.4,79.5-38.1,79.5c-18.5,0-44-49.9-71.8-140.5
		c-7-22.7-15.8-35.3-26.3-37.4c-7.4-1.5-15.2,2.5-22.7,11.5c-7.2,8.8-15.1,24.3-23.4,40.7c-7.8,15.4-15.8,31.3-23.5,41.5
		c-5,6.6-10.5,10.3-17,11.1c-12.4,1.6-26-7.7-36.6-15.9c-9.2-7.3-18.4-11.2-27.3-11.7c-8.5-0.5-16.7,2.1-24.4,7.8
		c-5,3.7-9.7,9-14.6,14.6c-9.6,11-19.6,22.4-33.3,22.4c-16.3,0-38.5-45.4-53.9-87.8c-6.3-17.4-21.3-43.1-33.5-43.1
		c-11.6,0-25.6,16.6-35.8,42.3c-8.5,21.6-18.3,52.5-21,61.2v2.6v2.3c0.1-0.4,12.6-40.3,22.6-65.6c9.8-24.7,23.6-41.4,34.4-41.4
		c10,0,24.7,21.8,32,42.1c7.6,20.8,33.9,88.9,55.3,88.9c14.4,0,24.6-11.7,34.5-22.9c4.9-5.6,9.5-10.8,14.4-14.4
		c15.4-11.3,32.2-10,49.8,3.9c9.9,7.8,22.6,16.5,34.6,16.5c1,0,2.1-0.1,3.1-0.2c6.8-0.9,12.9-4.9,18-11.8
		c7.7-10.3,15.8-26.3,23.6-41.7c8.3-16.3,16.1-31.8,23.2-40.4c4.9-6,12.6-12.7,21.2-11c9.7,1.9,18.4,14.5,25.1,36.3
		c10.8,35.3,21.5,64.8,31.6,87.8c15.8,35.7,29.8,53.8,41.7,53.8c22,0,30.1-37.4,39.6-80.7c2.3-10.3,4.6-21,7.2-31.5
		c13.1-52.9,28-80.8,42.9-80.8c12.6,0,23.4,26.7,33,50.2c1.8,4.5,3.6,8.8,5.3,12.8c6.8,16,13.4,26.9,17.4,32.9v-2.8
		C607.2,95.4,601.3,85.2,595.2,71z"/>
	<path style="fill:#27AAE1;stroke:#27AAE1;" d="M595.6,63.6c-7.3,3.1-16.6,14.1-27.5,26.9C551.7,109.9,531.3,134,513,134
		c-16.4,0-34.2-18.8-51.4-37.1c-13.9-14.7-27-28.6-38.3-31.1c-15-3.3-29.3,8.6-44.4,21.1c-10.1,8.4-20.5,17-31.2,20.8
		c-15.3,5.4-23.5,1.4-33.9-3.6c-7.4-3.6-15.8-7.7-28.5-9.6c-17-2.5-26.7,2.7-38,8.9c-9.6,5.2-20.5,11.1-38.2,13.6
		c-21.2,3-37.1-12.9-52.5-28.2c-12.3-12.2-23.9-23.8-37.2-24.5c-20.3-1.1-35.1,16.9-50.6,36c-7.6,9.2-15.4,18.8-24.3,27
		c-10.1,9.3-19.8,13.8-28.8,13.3c-9.1-0.5-14.8-6.7-14.9-6.8v1v1.1c1.6,1.6,6.7,5.7,14.8,6.2c0.5,0,1,0,1.4,0
		c9,0,18.6-4.6,28.5-13.7c9-8.3,16.9-17.9,24.5-27.2c16-19.6,29.8-36.4,49.4-35.4c12.7,0.7,24.1,12,36.2,24
		c15.7,15.6,31.9,31.7,53.9,28.7c18-2.5,29-8.5,38.7-13.8c11-6,20.6-11.2,37.1-8.7c12.5,1.9,20.8,5.9,28.1,9.4
		c10.7,5.2,19.2,9.3,35.1,3.7c10.9-3.9,21.5-12.6,31.7-21.1C395,75.7,409,64.1,423.3,67.2c10.8,2.4,23.8,16.1,37.5,30.7
		c17.4,18.5,35.5,37.6,52.5,37.6c19,0,38.8-23.4,56.4-44.1C580.1,78.9,589.3,68,596.3,65c9.3-4,12.8-3.2,14.1-2.4
		c0.4,0.2,0.6,0.5,0.8,0.8v-2.1C608.4,59.6,603.2,60.3,595.6,63.6z"/>
	<path style="fill:#009444;" d="M597.1,78.4c-4.5,2.9-8.7,7.7-13.5,13.3c-11,12.9-24.7,28.8-52,31.5c-21.8,2.1-38.2-9.7-55.6-22.3
		c-13.6-9.8-27.7-20-45-23.5c-18.3-3.7-32.7,4.2-47.8,12.6c-17.3,9.6-35.3,19.5-61.5,13.7c-31.8-7-53.2-2.9-73.9,1.1
		c-11.6,2.2-22.6,4.3-34.8,4.3c-16.1,0-25.1-4.1-34.6-8.5C168,96,157.2,91,136.3,91.4c-26.2,0.5-45.5,10.3-64.3,19.7
		c-9.7,4.9-19.7,9.9-30.5,13.6c-16.1,5.5-27,3.2-33.3,0.3c-3.4-1.6-5.9-3.5-7.5-5v2.1c1.7,1.4,3.9,2.9,6.7,4.3
		c3.7,1.7,8.9,3.3,15.7,3.3c5.3,0,11.6-0.9,18.9-3.4c10.9-3.7,21-8.8,30.7-13.7c18.6-9.4,37.8-19.1,63.6-19.6
		c20.5-0.4,31.2,4.5,41.5,9.2c9.7,4.4,18.8,8.6,35.2,8.6c12.4,0,23.4-2.1,35.1-4.3c20.5-3.9,41.7-8,73.2-1.1
		c26.8,5.9,45-4.2,62.5-13.9c14.9-8.2,29-16,46.8-12.4c16.9,3.4,30.9,13.5,44.4,23.2c16.2,11.7,31.6,22.8,51.3,22.8
		c1.7,0,3.5-0.1,5.3-0.3c27.9-2.7,41.9-19,53.1-32.1c4.7-5.5,8.8-10.3,13.2-13c6.9-4.4,11-5.8,13.2-6.1v-1.5
		C608.5,72.4,604.1,73.9,597.1,78.4z"/>
	<path style="fill:#FBB040;stroke:#FBB040;" d="M568.4,101.6c-15.3,9-46.5,20.9-82.9,0c-33.5-19.2-53.9-27.8-72.7-21l-2.3,0.8
		c-19.7,7.1-52.6,19-92.6,13.8c-24.6-3.2-39.5,1.7-55.2,6.9c-11.5,3.8-23.4,7.7-40.3,9.3c-22.3,2.1-43-10.1-61.1-20.9
		c-15-8.9-29.1-17.3-41.9-16.3C105,75.4,90.3,86.3,76.1,96.7c-13.4,9.9-27.3,20.1-40.4,21.6c-17.2,2-28.8-4.7-34.8-9.7v2
		c5.6,4.4,15.2,9.6,28.7,9.6c2,0,4.1-0.1,6.3-0.4c13.5-1.5,27.6-11.9,41.1-21.9c14-10.4,28.6-21.1,42.6-22.2c12.3-1,26.3,7.3,41,16
		c17,10.1,36,21.4,56.8,21.4c1.7,0,3.5-0.1,5.3-0.2c17.2-1.6,29.1-5.6,40.7-9.4c16.2-5.4,30.2-10,54.5-6.9c6.9,0.9,13.6,1.3,20,1.3
		c31.3,0,56.9-9.3,73.3-15.2l2.3-0.8c18.3-6.6,38.4,1.9,71.4,20.9c14.6,8.4,29.9,12.4,45.5,11.7c13.4-0.5,26.9-4.6,39-11.7
		c19-11.1,37.1-16.2,41.9-17.4v-1.6C606.9,85,588.1,90,568.4,101.6z"/>
	<path style="fill:#D7DF23;" d="M533.2,102.3c-4.5,0-8.9-0.2-13.3-0.5c1.8-5.2,3.6-10.4,5.5-15.5c16.2-44.3,33.2-66.2,47.9-61.5
		c10.5,3.3,17,18.1,25.2,36.9c3.1,7,6.2,14.2,10,21.7c1.1,2.2,2,3.9,2.7,5.2v-3.3c-0.4-0.8-0.8-1.6-1.3-2.6
		c-3.7-7.4-6.9-14.6-9.9-21.6c-8.4-19.1-15-34.2-26.2-37.7c-15.8-5-33,16.6-49.8,62.5c-1.9,5.3-3.8,10.7-5.7,16
		c-13.8-1.1-27.5-3.4-43.7-6.3c-9.8-1.7-20.8-3.6-33.5-5.5c-8-1.2-15.6-1.3-22.7-0.7c-10.8-28.3-21.4-53.5-36-58.2
		c-18-5.8-35.8,26.3-51.5,54.6c-1.8,3.2-3.5,6.3-5.2,9.3c-1.4,2.4-2.8,4.7-4.2,6.7c-17.2-2.2-38.2-3.7-68.3,1.4
		c-16.2-8.5-32.3-6.9-49.9,5.3c-13.1-1.9-22.5-7.3-31.7-12.5c-9.6-5.5-19.5-11.1-33.4-12.9c-8.5-1.1-15.7-0.4-22.2,1.4
		c-1.9-4.1-3.8-8.4-5.7-12.6C101,51.1,91.4,29.6,79.5,25.8c-9.2-2.9-17.8,1.3-26.2,13c-8,10.5-15,26.7-21.5,42.2
		c-4.3,10.3-9.1,21.3-13.6,31.6c-8.2-1.1-13.1-3.5-16-5.9c-0.5-0.4-1-0.9-1.4-1.3v2.1c0.1,0.1,0.3,0.2,0.4,0.3c3,2.5,8,5,16.4,6.2
		c-7.3,16.6-13.9,31.1-16.8,37.3v3.7c0.8-1.8,9-19.6,18.4-40.8c6.4,0.8,14.6,0.8,25.1-0.5c21.8-2.6,35.9-10.4,48.5-17.4
		c7.5-4.2,14.5-8,22.3-10.4c4.2,8.8,8.5,17,13,22.8c10,12.7,21.1,24.7,34.4,25.6c8.6,0.6,17.2-3.4,26.4-12.3c5-4.9,9.9-9,14.7-12.3
		c9.1,1.2,20,0.9,33.8-2.3c5.4-1.2,10.6-2.2,15.5-3.1c2.4,1.3,4.8,2.8,7.2,4.5c13.9,10,26.8,13.8,38.4,11.2c8.9-2,16.9-7.7,23.7-17
		c2.5,0.3,5,0.7,7.4,1c5.3,0.7,10.4,1.4,15.4,1.9c11,1,22.4-2.6,35.5-6.7c11.2-3.5,23.4-7.3,37-8.6c0.9,2.5,1.9,5,2.8,7.5
		c2.7,7.3,5.6,14.8,8.5,22.1c8.7,21.8,16.1,36.6,23.2,46.7c8,11.2,15.8,16.7,24,16.7c0.5,0,1.1,0,1.6-0.1
		c14.7-1.3,25.6-32.9,38.1-69.5c1.2-3.6,2.5-7.2,3.7-10.9c4.6,0.3,9.2,0.5,13.9,0.5c29.6,0,66.5-8.1,78-10.8v-1.6
		C600.1,94,562.9,102.3,533.2,102.3z M91.9,95.1C79.5,102,65.5,109.8,44,112.3c-10.2,1.2-18.1,1.2-24.3,0.5
		c4.5-10.2,9.2-21.1,13.5-31.2c14-33.4,27-60.5,45.6-54.6c11.3,3.6,20.8,24.8,29.9,45.3c1.9,4.1,3.7,8.3,5.6,12.4
		C106.5,87.1,99.5,91,91.9,95.1z M187.7,121.1c-8.8,8.5-17.1,12.4-25.2,11.9c-12.7-0.9-23.5-12.5-33.3-25
		c-4.4-5.6-8.6-13.6-12.7-22.3c6.3-1.7,13.2-2.3,21.3-1.3c13.6,1.7,23.4,7.3,32.8,12.7c9,5.1,18.1,10.3,30.6,12.5
		C196.8,112.8,192.3,116.6,187.7,121.1z M236.9,106.2c-12.7,2.9-22.9,3.4-31.5,2.4c15.9-10.4,30.4-12,45-5.2
		C246.1,104.2,241.6,105.1,236.9,106.2z M298,118.8c-11.2,2.5-23.7-1.2-37.2-10.9c-1.9-1.3-3.7-2.6-5.6-3.6
		c28.3-4.6,48.5-3.2,65.1-1.1C313.8,111.7,306.3,116.9,298,118.8z M379.8,98c-13,4.1-24.2,7.6-34.9,6.6c-5-0.5-10-1.1-15.3-1.9
		c-2.1-0.3-4.3-0.6-6.6-0.9c1.3-1.9,2.6-4,3.9-6.2c1.7-3,3.5-6.2,5.2-9.3c15.4-27.8,32.9-59.2,49.7-53.9c13.9,4.4,24.3,29,34.9,56.8
		C403.2,90.7,391,94.5,379.8,98z M514.1,113.7c-12.4,36.1-23.1,67.2-36.8,68.4c-19,1.6-34.6-30.6-47.3-62.3
		c-2.9-7.3-5.7-14.8-8.5-22c-0.9-2.4-1.8-4.7-2.7-7.1c6.9-0.6,14.2-0.4,21.9,0.7c12.6,1.9,23.7,3.8,33.4,5.5
		c16.1,2.8,29.7,5.2,43.5,6.3C516.5,106.7,515.3,110.2,514.1,113.7z"/>
	<path style="fill:#F15A29;" d="M576.9,108.8c-17.2-2.9-28.3-11.2-38-18.6c-8.5-6.4-16.6-12.5-27.3-13.8
		c-11.9-1.4-24.3,5.9-38.7,14.3c-13.3,7.8-28.4,16.7-46.1,20.3c-25.5,5.3-43.8-4-59.9-12.3c-6.8-3.5-13.2-6.8-19.4-8.4
		c-21.2-5.6-57.3-4.7-86.5,10.9c-28.3,15-77,17.3-106.4,4.9C125.2,93.8,74.2,92,43.9,97.5c-26,4.7-39.2,0-43.1-1.9v1.7
		c4.9,2.2,18.1,6.2,43.4,1.7c30.1-5.4,80.6-3.7,109.8,8.5c12.3,5.2,29.1,8,46.9,8c2.1,0,4.2,0,6.3-0.1c21-0.8,40.4-5.4,54.6-12.9
		c28.9-15.3,64.5-16.3,85.4-10.7c6,1.6,12.4,4.9,19.1,8.3c15.5,7.9,34.8,17.8,60.9,12.4c18-3.7,33.2-12.7,46.6-20.5
		c14.2-8.3,26.4-15.5,37.7-14.1c10.2,1.2,17.8,6.9,26.5,13.5c9.9,7.5,21.1,16,38.7,18.9c23.5,3.9,31.7,4.3,34.5,4.2V113
		C608.9,113.1,601.3,112.9,576.9,108.8z"/>
</g>
<defs>
	<linearGradient id="SVGID_1_" gradientUnits="userSpaceOnUse" x1="38.6954" y1="108.8296" x2="591.6584" y2="108.8296" gradientTransform="matrix(1 0 0 -1 0 234)">
	<stop  offset="2.873560e-02" style="stop-color:#00A8DE"/>
	<stop  offset="0.2" style="stop-color:#333391"/>
	<stop  offset="0.3966" style="stop-color:#E91388"/>
	<stop  offset="0.4885" style="stop-color:#D7213B"/>
	<stop  offset="0.5575" style="stop-color:#EB2D2E"/>
	<stop  offset="0.5762" style="stop-color:#EC4E2F"/>
	<stop  offset="0.6227" style="stop-color:#F08131"/>
	<stop  offset="0.6671" style="stop-color:#F3A632"/>
	<stop  offset="0.7082" style="stop-color:#F7C331"/>
	<stop  offset="0.7453" style="stop-color:#FAD82F"/>
	<stop  offset="0.7771" style="stop-color:#FCE42C"/>
	<stop  offset="0.8" style="stop-color:#FDE92B"/>
	<stop  offset="0.8192" style="stop-color:#F1E431"/>
	<stop  offset="0.854" style="stop-color:#D4D73C"/>
	<stop  offset="0.9004" style="stop-color:#A3C447"/>
	<stop  offset="0.9559" style="stop-color:#59AE4F"/>
	<stop  offset="1" style="stop-color:#009E54"/>
</linearGradient>
</defs>		

<path style="fill:url(#SVGID_1_);" d="M363.5,189.8c-0.6,1.5-1,3.5-1.2,4.5s-1.8,3.7-4.3,5.9s-6.1,4.5-6.7,4.4s-1.9-1.1-1.8-1.8
	c0.1-0.6,0.1-0.6,0.1-0.6s-0.1-2.5,0-3.8s0.2-2.9-0.3-3.7s-0.5-2.3-0.4-2.8s-0.6-0.7-0.7-2.1c-0.2-1.4-0.5-2.4-0.5-2.4
	s-0.7-0.8-0.5-1.8c0-0.1,0.1-0.3,0.2-0.5c-0.5-0.8-2-2.9-4.3-4.5c-3-2-9.1-6.4-11.5-7.3c-2.4-0.9-4.6-2.1-6.1-2.6s-3-1.8-4.1-2.7
	c-0.7-0.6-1.5-1.7-2-2.7c-0.3,0.3-0.5,0.6-0.6,0.6c-0.7,0.4-0.6-1.1-1.4-2.4c-0.7-1.3-1.8-1.6-3.1-2.9c-1.4-1.3-3-2.6-3-2.6
	s-2.8,1.5-4.2,2c-0.3,0.1-0.6,0.2-1,0.4c-0.3,1.5-1.2,3.1-1.3,4c-0.1,1.1,0.4,1.3,1.8,5.1c1.5,3.8,0.9,7,1.4,12.5
	c0.1,1.7,0.3,3,0.5,4.1c0.9-0.1,1.6,0.7,2.1,0.8c0.6,0.2,0.6,1.5,0.7,2.5s0.2,1.8,0.6,3.2c0.5,1.4-0.1,2.8-0.1,2.8s0,0,0.1,0.3
	s0.3,1.4,0,2.5s-4.1,2.6-6,2.9c-1.9,0.3-4.9,1.9-9.2,2.6c-4.3,0.6-6.8-0.5-7.3-0.7c-0.5-0.3-0.9-1.4-0.7-2.3
	c0.2-0.9,0.8-1.4,0.8-1.4s0.3-0.7,1-1.3s3.1-2.4,4.3-3c1.2-0.6,2-1.5,2-1.5s-0.8-0.3-0.8-0.7c0-0.5,0.4-1.2,1-1.5s2.3-0.4,2.3-0.4
	s0.2-0.4,0.7-1.2c0.6-0.8,1-1.1,1.2-1.4c0,0,0,0-0.3-0.6s-1.7-4.2-3.1-8.5c-1.5-4.3-2.8-9.4-3.1-11.4c-0.4-2-1-2.2-1.8-4.6
	c-0.3-1.1-0.5-2-0.5-2.7c-0.4-0.2-0.7-0.4-0.7-0.4c-0.2-0.3-0.2-0.8,0.1-1.9c0.3-1.1,0.6-2.1,0.8-3.6c0.1-0.9,0.5-2.3,0.9-3.3l0,0
	c-0.5-0.3-0.4-0.1,0.1-1.7c0.5-1.6,0.5-2.3,0.7-3.2c0.3-0.9-0.2-1.9-0.2-4.9s0.5-4.3,0.6-5.4l-1.6-4.5c-0.4-0.6-1.7-5.3-2.6-8.4
	c-0.6-2.2-1.6-5.9-2.1-8.1c-0.8-0.3-1.7-0.8-2.8-1.5c-1.3-1-3-2.3-4.6-3.6c-0.1,0.1-0.2,0.3-0.3,0.4c-1.1,1-2.3,0.2-4.1-0.6
	c-1.8-0.8-3.6-3.4-4.6-5.9c-0.6-1.4-1-2.8-1.3-3.7c-0.5-0.5-1-0.9-1.3-1.1c-0.6-0.3-2-2.7-2.7-3.7c-0.4-0.7-0.5-1.4-0.6-2
	c-0.4-0.4-0.8-0.8-1.1-0.9c-0.6-0.3-1.8-1.2-1.2-1.8c0.5-0.5,1.1-0.5,1.5-0.3c-0.2-0.5-0.3-0.9-0.4-1.1c-0.4-0.7-0.6-1.8-0.1-2
	c0.1,0,0.2-0.1,0.2-0.1c-0.4-0.7-0.9-1.8-1-2.4c-0.1-1,0.4-1.4,1-1.2c0.6,0.2,0.9,0.9,1.1,1.4s0.6,1,1.1,1.6c0,0,0,0,0.1,0.1
	c-0.1-0.8-0.3-1.8-0.4-2.2c-0.3-0.7-0.1-1.8,0.5-2c-0.2-0.7-0.3-1.5,0-1.8c0.2-0.3,0.5-0.4,0.8-0.4c0-0.5,0.2-1,0.6-1
	c0.6,0,1.1,0.5,1.1,0.5s0.3-1.3,1-0.6c0.7,0.6,1,1.6,1.3,2.2s1.3,2.5,1.6,3.4c0.1,0.4,0.3,1,0.4,1.6c0.1-0.4,0.2-0.7,0.2-0.9
	c0.2-0.6-0.2-0.9-0.5-1.8c-0.3-0.8,0.5-1.2,1.1-0.8c0.6,0.4,1,0.7,1.4,1.2c0.2,0.2,0.2,0.6,0.2,1c0.4,0.4,0.2,0.7,0.6,1.7
	c0.5,1.1,0.1,1.7,0.1,3s-0.1,1.5-0.5,2c-0.4,0.6-1.7,1.4-1.2,2.7c0.5,1.3,1,2.5,2.3,3.4c0.2-0.5,0.4-1,0.6-1.4
	c0.6-1.7,0.7-2.1,1.9-5c1.2-2.9,0.7-2.7,1.3-5.2c0.6-2.5,1.5-3.7,3.1-6.4c1.7-2.7,3.3-2.5,3.3-3c0-0.4-0.2-1.1-0.3-1.3
	c-1.1,0.2-2,0.4-3.8,0.1c-2-0.3-2.4-1.8-2.8-2.6c-0.4-0.8-1.5-1.8-2.2-3.1c-0.7-1.4-0.6-2.8-0.9-4.9s0.2-3.5,0.4-4.2
	c0.2-0.7-0.6-1.7-0.8-2.2c-0.2-0.6-0.6-1.4-0.3-2.6c0.3-1.2-0.1-2.5-0.2-3.8s1.1-3.1,1.1-3.1s-0.5-0.1-0.7-0.5
	c-0.3-0.4-0.3-0.8,0.1-1.5c0.4-0.6,0.2-0.6,0.1-1.3c-0.1-0.6,0.3-0.8,1.2-1.8c0.9-0.9,1-0.7,0.9-1s0.2-0.9,1.5-1.8
	c1.3-0.8,3.7-1.2,4.5-1.5s0.8-0.1,1.1-0.1c0.3,0,0.8,0.2,1.3,0.2s4.3-1,5-1.1c0.6-0.1,1.8-0.3,2.6,0.2c0.7,0.5,3.5,0.7,3.8,0.9
	s1.7,0.6,2.3,1.6c0.6,0.9,0.9,1.7,1.5,2c0.6,0.4,1.8,2.3,2.1,3c0.4,0.7,0.7,3.9,0.9,4.6c0.2,0.7,0.1,2,0,2.8
	c-0.1,0.7-0.5,3.5-0.6,4.2c-0.2,0.6-1.8,2.6-1.8,2.6s0.2,1.3-0.7,3.1c-0.9,1.8-1.5,2-1.8,2.2s-0.5,0.9-0.4,2.3
	c0,0.6,0.1,1.2,0.2,1.6c0.1,0,0.3,0,0.4,0.1c0.5,0.4,0.3,1.4,1,2.2c0.7,0.8,0.6,1.2,1.8,2.9c1.3,1.7,2.5,2.2,4.6,4.1
	c2.1,1.8,2.1,5.9,3.8,8.3c1.7,2.4,6,10.3,8.2,14.5s2.3,8.6,3,11c0.6,2.4,2.1,3.3,3.7,6.5c1.6,3.1,2.9,11.4,2.8,14.5
	c-0.1,3-0.6,10.6-0.6,11.2c0,0.1-0.3,0.3-0.8,0.4c0.3,1,0.7,2.3,1.3,3.4c1.3,2.2,3.6,7.1,4.1,7.7c0.5,0.6-1.3,1.3-2.5,2.2
	c-0.5,0.4-1.1,0.8-1.9,1.1c0.2,0.4,0.4,0.8,0.9,1.1c1.2,0.6,8.3,1.8,11.5,5.9c3.2,4.1,7.9,9.6,9,10.9c0.3,0.3,0.6,0.6,0.9,0.9
	c0.3-0.4,1.4-1.7,2.2-1.5c0.9,0.2,1.3,0.6,1.6,0.8c0.3,0.3,0.8,0.1,1.3,0.8s0.7,1.1,0.7,1.1s2.5,0.7,3.7,1.8c1.2,1,1.7,1.3,1.8,1.8
	C364.4,184.2,364.1,188.3,363.5,189.8z M223.4,114.7c-0.2,0.5-0.9,0.5-1.4,0.1s-1.3-1.6-1.3-1.6s-0.6,0.4-1.2,0.5
	c-0.6,0.1-1.6-0.4-2.1-0.3c-0.4,0.1-1.3,0.2-1.7-0.1c-0.4-0.3-1.8-0.3-2.9-0.2c-1.1,0.1-2.2-1.4-2.6-1.2c-0.3,0.1,0.2,1.6,0.4,2.5
	c0.3,0.9-0.3,1.4-0.9,1.8c-0.6,0.4-1-0.1-1.2-0.8c0-0.2-0.1-0.3-0.2-0.5c0.1,0.6,0.1,1.1,0,1.7c-0.2,1.3-0.4,1.4,0,2.9
	c0.4,1.4,1.1,3.6,1.4,5.6c0.3,2,0.7,3.3,1,4.4c0.3,1.1,0.3,1.6,0.3,1.6s0,0.4-0.3,0.6c-0.3,0.2-0.3,0.2-0.3,0.2s0.1,1.5,0.2,2.5
	c0.1,1,0.9,4.5,1,5.7s0.3,2.9,0.4,3.2c0.1,0.4,0.5,0.7-0.8,1.6c-0.2,0.1-0.4,0.3-0.7,0.4c-0.4,1.7-1.5,3.8-2.1,4.6
	c-0.7,0.8-0.7,2.3-1.2,4.4c-0.6,2.1-3.2,7-4.5,10.3c-0.6,1.6-0.8,2.8-0.9,3.5l0.7,0.3c0.5,0.9,1.2,2.8,1.2,2.8s0.9,0.1,1.1,0
	c0.2-0.1,1,0.7,1.3,1c0.3,0.2,1.2,1.4,0.7,1.5s-0.9,0.4-0.9,0.4s0.5,0.9,1.6,1.4s2.8,2.7,3.7,3.5s1.3,2.1,1.3,2.1s0.4,0.4,0.5,0.9
	s0.2,1.9-0.6,2.4s-4,1.5-7.5,0.7c-3.5-0.7-6.3-3.9-7.3-4.7c-1.1-0.8-4.6-2.5-5.3-2.9s-0.7-0.7-0.9-1.9s0.2-1.7,0.2-1.7
	s-0.1-0.4-0.1-1.2c0.1-0.9,0.1-2.2,0.6-3.1c0.5-0.9,0.2-1.4,0.9-2.7c0.4-0.9,1.3-1.2,1.9-1.3c0-0.1,0.1-0.2,0.1-0.2
	c0.3-1.2,0.1-3.2,0.6-8s2.9-7.9,3.1-8.2c0.2-0.3-0.1-1.4-0.4-2.4c-0.1-0.4-0.2-1.2-0.3-1.9c-1-0.9-1.5-1.5-2.7-2.2s-3.5-1.9-4.5-2.1
	c-1-0.2-2.4-0.2-2.2-0.6c0.1-0.4,0.2-2.7,0.2-3c-0.1-0.4-1.4,0.1-2,1.2c-0.6,1.1-1.7,3.1-1.9,4.4c-0.1,1.4-0.2,4-0.2,4.5
	c0,0.3-0.8,1-1.6,1.5c-0.1,0.2-0.1,0.5-0.2,0.7c-0.6,1.7-2.4,3.8-3.1,5.9c-0.7,2.1-0.8,5.9-1.4,9.7c-0.6,3.9-2.4,8.1-2.6,9.8
	c-0.1,0.8,0,1.8,0.2,2.6c0.6,0.2,1.4,0.2,1.8,1.1c0.4,0.9-0.2,3.3-0.4,3.6s1,1.8,1.9,2.8s1.1,3,1.1,3s0.3,1,0.6,2.9
	c0.2,1.3-1.2,1.7-5.2,2.6c-3.5,0.8-5.9,0.9-7.3,0.2c-1.4-0.7-0.9-3.4-0.9-3.4s-0.6-1.4-0.5-2.4c0.1-0.9-0.4-2.6-0.7-2.6
	s-0.4-1.1-0.4-1.7c0-0.6,0.6-1.1,0.6-1.1s0.1-0.4,0.1-0.9s-0.1-1.9-0.2-2.5c-0.1-0.6,0.4-1.2,1.2-1.5c0.3-0.1,1-0.3,1.7-0.5
	c0-0.3,0.1-0.6,0.1-0.9c0.3-1.9-0.1-3.2-0.4-6.2c-0.3-3-0.7-8-0.3-11.5s1.1-5.9,1.9-8.3c0.4-1.4,0.4-3,0.4-4
	c-1.5-1.3-3.3-3.2-3.4-3.7c-0.2-0.8-0.2-1.4,0.1-2.4c0.2-1,1.1-2.4,1.4-3.9c0.3-1.6,0.5-2.5,0.5-2.5s-1.8-0.6-1.8-1.4
	c0-0.7,0.3-2.4,0.2-4.5s0.1-6.4-0.4-8c-0.5-1.7-0.4-4.5-0.4-6.4c0.1-1.9,0.9-3.6,0.6-7.5c-0.3-3.9-0.1-10.1,0.2-12
	c0.2-1.9,0.8-5.5,0.7-7s-1.1-3.6-2.2-4.4c-1.1-0.7-1.4-0.5-2.9-1.2c-1.4-0.7-2.6-1.8-2.6-1.8s0.1,1-0.1,1c-0.1,0-0.8,0-1.8-0.4
	c0,0.2,0,0.6,0.1,1.1c0.1,0.9,0.2,4.8,0.4,5.4c0.1,0.6,0.3,1.9,0.9,2.3c0.6,0.4,1.2,2.2,1.6,2.9c0.4,0.7,0.2,1.6,0,2.1
	s-0.2,1.6-0.3,2.2c-0.1,0.7-0.7,0.5-0.7,0.5s-0.1,1-0.1,1.7s-0.1,1.6-1.1,1.4c-0.3-0.1-0.5-0.5-0.7-1.1c0,0.3-0.2,0.6-0.4,0.8
	c-0.5,0.4-0.9-0.1-1.3-0.7c-0.4-0.6-1.2-2.6-1.3-3.4c-0.1-0.7-0.4-2-0.6-2.2c-0.1-0.2-0.3,0.7-0.3,1.4c0,0.6,0.4,1.9,0.7,2.1
	s0.6,0.9,0.4,1.4c-0.2,0.5-0.8,0.2-1.6-0.1c-0.8-0.4-1.1-1.2-1.6-2.2c-0.6-1.1-0.4-2.2-0.4-2.2s0,0-0.2,0.6s0.1,1.4,0.4,2.1
	c0.2,0.7,0.9,1.2,0.1,1.6c-0.8,0.4-1.3-1-1.9-1.5c-0.6-0.5-0.3-1.4-0.4-2c-0.1-0.6,0.2-1.7,0.3-2.4c0.1-0.6,1-2.3,1.2-3.1
	c0.2-0.8,0.5-1.9,0.3-2.7c-0.2-0.9,0.2-1.9,0.1-5c-0.1-2.5-0.3-6.1-0.3-7.6c-0.4-1.3-0.8-3.9-0.9-4.6c-0.1-0.9,0.4-1.4,0.7-1.4
	s4.3-1.4,6.9-2.7c2.6-1.2,7.9-2.6,9.3-2.7c1.4-0.1,4.5-0.9,6.2-1.2c1.6-0.3,4.5,0,5.9-0.3s2.9-0.6,2.9-0.6s1.7-0.5,2.2-0.8
	c0.4-0.3,1.1-1,1.8-1.4s2.3-0.7,2.3-0.7s-1.3-1.1-1.7-2.3s-0.3-2.7-0.1-3.6c0.2-0.9,1.1-1.2,1.1-1.2s-0.6-3.2-0.5-4.4
	s0.7-4.2,1.4-5.7c0.6-1.5,1.8-3,1.8-3s1.4-2.2,2.2-2.7s1.9-0.9,2.4-1.2s2.3-0.8,3.2-0.8s2.7,0.2,2.9,0.3s1.2,0.2,2.1,0.3
	c0.9,0.1,2,0.4,2.6,0.9c0.6,0.4,3.3,0.7,4,1.5s1.4,1.4,1.6,1.8c0.2,0.4,0.7,0.9,1.1,1.4c0.4,0.6,1.2,1.6,1.3,1.8s0.4,1.6,0.4,1.9
	c0,0.2,0.4,2.4,0.5,2.8c0.1,0.4,0.4,1.3,0.2,1.7c-0.1,0.4-0.5,1.1-0.7,1.6s-0.6,0.6-0.6,0.6s0.4,1.1-0.1,2.7
	c-0.4,1.6-1.2,3.1-1.3,3.9c-0.1,0.7-0.1,1.6-0.6,2c-0.4,0.4-1.2,0.9-1.1,1.5c0.1,0.6-0.4,1.9-0.7,3.2c-0.3,1.3-0.7,2.7-1.1,3.3
	c-0.4,0.6-0.4,0.6-0.4,0.6s3.5,2.8,4.5,3.7c0.9,0.9,2.9,2.9,3.2,3.4s0.6,0.8,0.6,0.8s0.9,1.2,1.3,2.6c0.4,1.4,2.5,7.7,2.8,9.6
	s1.4,5.2,1.8,6c0.4,0.9,0.7,1.6,0.6,1.7c-0.1,0.2-4.1,1.6-6.1,2.8c-0.6,0.4-1.1,0.6-1.5,0.9c-0.1,0.9-0.4,3.5-0.8,5
	c-0.4,1.9-0.5,4.3-0.4,4.9s-0.2,1.5,0,1.8s1.4,1.2,1.4,1.2s0.6-0.1,1,0s1.2,0.3,1.2,0.3s0,0,0.6-0.1s1.1,0.7,1.9,1.4
	c0.8,0.7,1.1,0.8,1.5,1.4s-0.2,1.1-0.2,1.1S223.7,114.2,223.4,114.7z M158.9,97c-0.1-0.9,0-1.8-0.1-2.1c-0.1-0.6-0.6-2.6-0.6-2.6
	s0.1,1.4,0.1,2.2C158.4,95.3,158.7,96.4,158.9,97z M208.6,102.1c-0.5-1.9-0.6-4.5-0.6-4.7c-0.5-0.2-0.8-0.5-0.9-1
	c-0.1-0.7-0.6-1.6-0.6-2.2c0.1-0.6,0-0.7,0.1-1.8c0.1-1.1-0.4-2.2-0.4-2.2s-0.2,2.9-0.5,4.1c0,0-0.5,3.1-0.2,5.1
	c0.3,2.1,1,4.8,1.4,6c0.2,0.7,0.6,2.5,0.9,4.1c0.1-0.2,0.3-0.5,0.4-0.7c0.4-0.7,0.7-1.7,0.7-2.7C208.9,105.1,209.1,104,208.6,102.1z
	 M109.3,118.9c-0.3,0.9-1.7,1.3-2.6,1.7c-0.9,0.4-2.1,0.4-2.1,0.4s-0.8,0.1-1.2-0.5c-0.4-0.7,0.8-1.1,0.8-1.1s-0.7,0-0.7-0.7
	s0.8-0.8,0.8-0.8s0,0-0.3-0.4s-0.8-2-0.8-2s-0.5-0.7-1.3-1.2s-1.9-2.6-2.2-3.4c-0.4-0.8-1.5-1.5-5-2.2c-3.6-0.8-6.5-3.2-6.5-3.2
	l0.1-0.1c-3.5,0.2-5.4-0.8-5.4-0.8s-0.3,2.4-0.7,4.1c-0.4,1.7-1.5,6.5-1.9,7.3s-0.5,1.3-0.1,2.4s2.5,3.8,3,5.2
	c0.5,1.3,0.9,3.3,2.1,4.5s3.4,3.8,4.2,4.5c0.8,0.7,0.7,2.1,0.7,2.1s1.1,0.5,2,1.7s3.4,3.3,3.4,4.5c0,0.1,0,0.1,0,0.2l0.3,0.1
	c0,0,0,0,0.4,0.7s2.2,3,2.1,4.8c-0.1,1.7-2.2,5.3-2.9,5.9c-0.7,0.7-2.6,2.2-3.8,4.4c-1.2,2.1-4.2,4.9-6.9,7.8
	c-1,1.2-1.6,1.9-1.8,2.5c0.4,0.3,0.8,0.7,1.2,0.9c0.8,0.5,0.7,1.9,1.2,2.5s1.8,2.4,2.9,3.2s3.5,2.5,5.7,3.8c1.3,0.8,2.1,2.6,2.1,2.6
	s0.1,0.6,0.1,1.1s-0.3,1.5-1.5,2.4s-3.2,1.4-6.8,0.6c-3.7-0.8-5.4-2.6-6.5-3.1c-1.2-0.5-4.4-2.3-5.6-2.8c-0.5-0.2-1.3-0.5-2.1-0.8
	c-0.8,2.5-1.7,5.7-1.8,8.1c-0.1,1.5-0.1,3.2,0,4.4c0.5,0.1,1,0.2,1.2,0.3c0.5,0.2,1.1,1.7,1.8,2.8c0.7,1.1,2.3,2,2.9,2.4
	s0.9,1.9,1.6,2.1c0.7,0.2,1.6,0.8,4,1.9c1.4,0.6,2.9,1.7,2.9,1.7s0.7,0.5,0.9,1.1c0.2,0.6,0.3,2.3-0.3,3.3c-0.6,1-3.1,2.2-7,2.1
	c-4-0.1-7.3,0-10.1-1.4c-2.8-1.4-6.3-1.8-8.8-2.5c-2.5-0.7-2.3-2.2-2.4-2.9c-0.1-0.7,0.2-1.5,0.2-1.5s0-1.8,0-3s1.5-2.3,1.5-2.3
	s-0.1-1.8-0.1-2.6s0.6-1.6,1.6-1.9c0.5-0.2,1.3-0.2,2-0.2c0-1.4,0.2-3.9-0.5-6.3c-0.8-2.6-0.8-6.6-0.4-10.2c0.4-3.6,3.8-6.6,3.6-7.4
	c-0.3-0.8-0.4-2.8-0.4-2.8l0,0l0,0c-2.4-0.7-2.6-0.3-3.4-1.7c-0.8-1.5-1.9-3.6-1.9-3.6s0,0-0.5,0s-0.8,0.3-1.5-0.4s-0.7-2.6-1.2-4.1
	s-2-5.2-2.8-6.6c-0.8-1.5-2.6-3.8-4.5-7.4c-1-1.9-1.6-3.3-1.9-4.7c0,0.1-0.1,0.2-0.1,0.4c-0.3,1.7-0.3,4.5-0.4,5.4
	c-0.1,0.9,0.4,1.3,1.5,3.3s1.5,4.1,1.7,4.9c0.3,0.8,0.9,2.1-0.1,2.4c-1.1,0.3-1.8-2-2.2-1.8c-0.4,0.1-1.9,1.7-1.9,1.7
	s-0.8,0.9-2,1.2s-1.5-0.1-1.9-0.7c-0.4-0.5-0.7-0.1-1.1,0c-0.4,0.1-1.9-0.3-2-0.9c-0.1-0.7-0.4-2.2-0.9-2.8c-0.5-0.5-0.3-1.9,0-2.4
	s1.3-3.4,1.5-3.8c0.1-0.4,0.4-3.8,0.9-4.8c0.5-0.9,0.9-4,1.7-9.5c0.6-3.9,1.2-6.3,1.6-7.4c-1.3-0.8-2.3-1.7-2.4-2.3
	c-0.1-0.9,0.8-2,1.3-3.2s2-5.7,2.8-8.5s4-6.7,4.8-8.2s1.9-3.6,4.2-8.7c2.4-5.2,6.2-7.1,6.2-7.1s0.4-1.1,0.7-1.7
	c0.3-0.7,2-1.2,2.4-2.5s2.1-1.6,2.1-1.6s0.1,0,0.3-0.1c-0.1-0.3-0.2-0.6-0.4-0.9c-0.6-1.2-0.8-1.7-0.8-1.7s-2.2-0.5-4.2-4.4
	c-2-3.9-2.2-5-2.1-6.2c0.1-1.2,0.1-1.3-0.1-3.1c-0.3-1.9,0.1-3,0.5-4.2c0.4-1.1,0-3.1,1.3-4.6c1.3-1.5,1.6-2.2,2.5-3
	c0.9-0.7,1.7-0.9,1.7-0.9s0.7-1.2,1.4-1.5c0.7-0.3,2-0.5,2-0.5s1.1-0.9,2.4-0.9c1.3-0.1,3.4-0.1,3.7-0.1c0.3,0.1,1.5-0.3,2.4,0
	s4.4,1.2,4.5,1.5s2.4,0.6,3.1,0.7c0.7,0.1,1.9-0.1,2.4,0.4s1.9,1.2,2.1,1.6c0.3,0.4,1.7,0.5,2.1,1.3c0.4,0.7,0.7,1.3,0.5,1.9
	c-0.3,0.7-1.3,1.7-1.3,1.7s0.7,2,1,3.2c0.3,1.1,0.3,2.7,0.4,3.6c0.1,0.9-0.3,2.1-0.6,2.6c-0.3,0.5-1.1,1.8-1.1,1.8s0,0.8,0.4,1.2
	c0.4,0.4,1,0.5,1.5,1.3s0.3,1.4,0,1.7c-0.3,0.3-0.7,0.6-0.7,0.6s0.3,0.7,0.5,1.2c0.3,0.5,0,2-0.7,3.2c-0.4,0.6-0.9,1.5-1.3,2.6
	c-0.3,1.1-0.1,2.2-2,2.7c-0.8,0.2-1.8,0.3-2.9,0.3c0.4,0.3,0.8,0.7,1.2,1.2c0.9,1.2,2.4,4,2.4,4s2.9,3,4.1,5.8s4.9,7.4,5.7,8.3
	c0.8,0.9,0.4,1.5-0.8,2.8c-0.4,0.4-0.9,1-1.5,1.6c0.9,0.5,4.5,2.7,5.5,3.6c1.1,1.1,2.6,1.9,3.3,2.4c0.7,0.5,3.3,3.4,3.8,4.5
	s0.5,1.9,0.5,2.8C109.3,116.4,109.6,118,109.3,118.9z M79.1,148.3c0,0-0.1,0.3-1.6,2s-1.1,1.7-1.1,1.7s0.4,1.9,1.1,3.4
	c0.3,0.7,0.6,1.4,0.8,2.1c0.3-0.8,0.7-1.6,1.2-2.5c2-4,4.4-4.4,4-4.9c-0.1-0.1-0.2-0.3-0.4-0.5c-0.4,0-0.7,0-1.1-0.1
	C80,149.2,79.1,148.3,79.1,148.3z M471.7,218.7c-0.9,1.7-3.3,3.9-5.4,3.9c-2-0.1-2.4-2.1-2.4-3c0-1-1.3-4-1.8-6s-1.5-5.7-1.5-5.7
	s0-0.4-1.2-1.9c-1.2-1.6-1.4-2.1-2.7-3.1c-1.3-1-1.9-2.2-3-3.3s-1.1-1.3-4.3-4c-3.2-2.7-9.5-6-13.3-9.3c-2.6-2.3-4.4-4.5-5.2-5.7
	c-1.8,0.7-3.3,1.4-3.9,1.7c-2.1,1.3-6.7,1.7-9.1,2.1c-2.4,0.4-3.9,1.4-4.3,0.5s-0.6-1.4-0.6-1.4s-2.5,0.4-3.5,0.3
	c-1-0.1-2.4-0.4-3.6-0.8c-1.2-0.4-5.1,0.2-6.7-0.1c-0.6-0.1-1.2-0.2-1.8-0.3c0,0.7,0,1.5-0.1,2.3c-0.2,3.1,0.7,3.9-0.8,10.3
	c-1.5,6.4-3.1,10.4-3.8,13.2c-0.8,2.7-1.3,7-1.3,7s0,0,0.3,0.4s1.2,4.2,0.1,5.2s-4.4,1.4-7.7,1.7c-3.3,0.3-4.5-0.4-4.8-0.6
	c-0.3-0.3-1.3-2.6-0.8-3.8c0.4-1.3,1.5-1.6,2.4-1.9c0.9-0.3,1.8-0.8,1.8-0.8s0.9-1.7,1.7-2.9c0.8-1.2,0.8-2.9,0.5-4.9
	s-0.6-6.2-0.8-10.5c-0.1-4.3,1.7-9.8,1.7-12.2c0-1.2,0.2-2.4,0.5-3.4c-0.8-0.1-1.6-0.2-2.1-0.3c-2.8-0.6-6.7-2.8-7.3-3.3
	c-0.7-0.5,0-2.3,0-2.3s-1.3-0.1-1.8-0.9c-0.5-0.8-2.1-2.6-2.1-3.6c0-0.9,0.1-1.5,0.1-2.1s-0.5-1,0.4-1.8c0.8-0.8,2.8-2.5,4.6-3.6
	c1.8-1.1,4.4-1.9,4.6-2.1c0.2-0.2,1.4-4,3.7-6.9c2.3-2.8,6.3-5.6,6.3-5.6s-0.6-1.4,1.5-4.1c2-2.7,2.5-3.8,3.9-4.9
	c1.4-1.2,1.8-1.7,1.8-1.7s-0.2-1.4-0.1-1.7c0.2-0.4-3.6-4.8-5-7.8s-3.7-8.3-3.7-11.6c0-3.2-0.9-7.5-0.8-9.8s0.5-2.4-0.2-3
	s-5.3-3.6-7.7-5.6c-2.4-2-8.2-8-9.3-9.8c-1-1.8-1.9-2.4-2.9-3.6s-1.7-1.7-2.8-4.5c-1.1-2.7-3.5-8.5-4-10.7c-0.6-2.2-0.2-1.6-0.8-2.5
	c-0.6-0.9-1.2-1.7-1.4-2.7c-0.3-1-0.6-1.9-0.6-1.9c-0.2-0.5-0.4-0.5-0.2-0.9c0.2-0.3,0.4-0.6,1.4-1.1c-0.2-0.3-0.5-0.8-0.8-1.3
	c-0.5-0.7-0.8-0.8-0.9-0.8s-1.1,0.1-1.7,0s-1.5,0.1-2-0.1c-0.5-0.2-0.7-0.3-0.6-0.7s0.4-0.5,0.7-0.6c0.3,0,1-0.3,1.6-0.3
	s1,0.2,1.6-0.1s1-0.3,1-0.8s-0.4-0.7-0.8-1.6c-0.4-0.9-1.1-1.6-1.2-2.3s-0.3-1.4-0.3-1.8c0-0.4,0.2-0.7,0.5-0.8s0.6,0,0.8,0.4
	c0.2,0.4,0.6,1.2,0.7,1.7s0.3,0.7,0.9,1.4c0.5,0.7,0.7,1.3,0.9,1.1c0.3-0.2,0.1-2-0.1-2.4s-0.5-1.3-0.5-2s-0.3-1.9-0.1-2.4
	c0.2-0.5,0.7-0.7,1-0.6c0.3,0.1,0.6,0.7,0.8,1.3c0.2,0.7,0.2,1.1,0.3,1.7c0.2,0.6,0.5,1.3,0.7,2s0.4,0.9,0.8,0.9s0.7-0.7,0.9-1.3
	c0.2-0.5,0.5-1.3,0.6-2c0.2-0.7,1.1-2.1,1.2-2.3c0.2-0.3,0.5-0.7,0.9-0.5s0.4,0.7,0.3,1.1c-0.1,0.4-0.2,1-0.4,1.5
	c-0.2,0.5-0.1,1.6-0.3,2.3c-0.2,0.7-0.6,2.2-0.7,2.6c0,0.4,0.3,0.8,1.3,1.4c1,0.6,1.5,0.8,2.3,1.3c0.7,0.4,1.3,0.3,2.4,1.3
	s1.1,1.6,0.7,1.8c-0.3,0.2-0.9,0.3-2-0.3s-2.2-0.4-2.7-0.1c-0.3,0.1-0.6,0.3-0.8,0.3c0.1,0.2,0.1,0.3,0.1,0.5c0,0.4-0.1,1.2,0.2,1.5
	c0.3,0.4,1.2,1.5,1.4,2.3c0.2,0.8,0.3,1.3,1.7,3.5c1.4,2.2,3.7,5.6,4.4,7.5c0.6,2,2.3,4.5,2.9,5.1s0.7,1.7,1.6,2.5s2.3,1,2.8,2
	s0.5,1.4,1.7,1.7c1.2,0.4,1.8,0.3,3,1.5s1.8,1.7,3.4,2c1.6,0.4,3.5,0.1,3.5,0.1s-2.7-0.8-3.1-3.5s0.1-4-0.2-5.2
	c-0.2-1.3-0.2-2.5,0.6-3.7c0.7-1.2,1.3-1.6,1.6-2.8c0.3-1.3,1.8-2.9,1.8-2.9s-1.1-1.9-1.6-4.2c-0.5-2.3-2.3-5.2-3.1-6.7
	c-0.9-1.5-0.9-2.1-1.4-3.1s-1.3-1.6-1.2-2.3c0-0.4,0.5-0.9,1.4-1.5c-0.2-0.4-0.4-1-0.7-1.8c-0.3-1.2-0.9-1.4-1.6-2s-1.8-1.7-2.2-2.4
	c-0.4-0.7-0.6-1.2-1.1-1.4s-2.2-1.2-3-1.7s-1.5-1-1.3-1.6c0.2-0.5,0.8-0.3,1.2-0.1c0.4,0.3,0.9,0.4,1.5,0.7c0.6,0.4,1.2,0.4,1.8,0.6
	c0.7,0.2,0.8,0.1,0.4-0.2s-0.9-1.1-2-1.8s-1.8-1.5-1.6-2.1c0.1-0.6,0.6-0.6,0.9-0.5c0.3,0.2,0.8,0.7,1.7,1.2
	c0.9,0.5,1.4,0.9,2.2,1.4c0.8,0.4,1,0.2,1,0c-0.1-0.2-0.6-1.4-0.7-2c-0.1-0.7-0.5-1.3-0.7-2.1s-0.3-1.3,0.2-1.5
	c0.5-0.3,0.7,0.1,1,0.5s0.9,1.4,1,1.9c0.2,0.5,0.4,1.4,0.6,1.8c0.2,0.5,0.4,0.7,0.7,0.7c0.3,0,0.7-0.1,0.7-0.6s0-1,0.2-1.9
	s0.2-1.6,0.6-2.1c0.3-0.6,0.8-0.7,1.1-0.1c0.2,0.6,0.1,1.4,0.1,1.9c-0.1,0.5-0.2,1.7,0,2.3c0.2,0.7,0.3,1.9,0.9,2.4s1.3,0.9,2,0.8
	c0.7-0.1,1.8-0.5,2.6-0.4c0.8,0.1,1.4,0.4,1.3,1s-0.5,0.6-1.3,0.8s-1.8,0.7-2.1,0.9c-0.3,0.2-0.7,1-1,1.4c-0.2,0.4-0.3,0.5,0.1,1.3
	c0.3,0.5,0.6,1.3,0.8,1.9c0.4-0.1,0.7-0.1,0.8,0c0.3,0.4,2.3,3.6,2.6,4.8c0.3,1.3,1.9,3.7,3,5.4c1,1.7,1.6,2.8,1.8,3.4
	c0.2,0.5,0.2,0.5,0.2,0.5s3.9-1.3,7.2,0.4c3.3,1.7,6.9,3.8,8.8,7.3c1.8,3.5,2,7.7,1.7,10.1s-1.7,3.8-1.9,5.1
	c-0.2,1.4-0.3,2.3-0.3,2.3s0.5,0.1,0.7,0.6c0.3,0.6-0.2,1.2-0.2,1.2s1.4,1.3,2.2,1.6c0.8,0.4,3.1,1.5,3.7,3.5s0.8,4.1,0.8,4.1
	s-0.5-3-1.5-4.2c-0.2-0.2-0.3-0.4-0.5-0.5c1.1,1.9,0.6,4.3,1.9,6.1c1.1,1.5,2.2,2.9,2.8,4.6c0.6,1.7,0.8,4.4,0.5,6
	c-0.4,1.5-1.3,3.9,0.1,4.6c1.3,0.7,2.8-1.1,3.1-1.2c0.3-0.1-1.5,2.2-3.2,2.3c-1.7,0.1-1.8-1.7-1.8-1.7s-0.9,1.6-0.1,2.3
	c0.9,0.7,2.2,0.1,2.6,1.3c0.3,0.8-0.6,1.3-1,1.5c0.5-0.3,1.1-1.8-0.2-1.5c-1.5,0.4-3.3,0.4-3.8-1.4c-0.5-1.5-0.2-2.1-0.1-2.2
	c-0.2,0.2-0.8,1.2-0.9,2.6c-0.1,1.5,0.2,4,1.3,4.8c1.1,0.8,2.2-0.6,1.5-1.2c-0.7-0.7-1,0.2-1,0.2s0.3-1.1,0.8-0.9
	c0.4,0.2,1.2,1.2,0.4,2c-0.8,0.9-2,0.6-3.2-0.9c-0.3-0.4-0.5-0.8-0.6-1.4c0.8,3.7,1.4,7.2,1.4,7.2s0.9,0.3,1.3,1s0.5,1.6,0.5,1.6
	s2.3,0.5,5.9,3s4.4,4.1,4.4,4.1s3.9,0.6,6,2c2.2,1.5,6.2,4,6.7,4.7s0.5,0.7,0.5,0.7s14.5,2.4,14.5,4.3c0,1.9-0.4,4.3-1.1,4.6
	s-2.6,0.3-2.6,0.3s-1.4,4.2-3.7,8.3c-2.3,4.1-4.2,6.4-4.7,6.2s-1.5-0.4-1.5-0.4s-0.9,2.7-2.7,3.5c-1.3,0.5-3.2,1.2-4.2,1.5
	c2.1,1.1,4.4,2.9,6.8,5.5c3.3,3.5,7.8,10.4,8.9,12s4.5,3.3,4.5,3.3s0.5,0.2,1.3,0.6c0.8,0.4,1.9,1.5,1.9,1.5s0.9,0.2,2,1.4
	c1.1,1.3,0.8,2.8,1.3,4.9c0.4,2.1,1,2.4,1.8,5.5C473.2,213.6,472.6,217,471.7,218.7z M423.5,96.5L423.5,96.5
	c0.1,0.1,0.1,0.1,0.2,0.1C423.5,96.5,423.5,96.5,423.5,96.5z M422.9,121.2c0.1,0.6,0.2,1.1,0.4,1.7c-0.4-1.7-0.1-4,0.2-5.2
	c0.5-1.7-0.2-3.4-2.5-5.1l0,0C421.1,113.1,422,117.1,422.9,121.2z M590.5,64.5c1-1.3,1.3-1.8,1.1-2.5s-1.3,0-1.3,0s0,0,0.1-0.3
	s0.8-1.6,0.4-1.9c-0.4-0.3-1.3,0.6-2,1.3c-0.6,0.7-2,1.8-2,1.8l0.2-0.7c0,0,0,0,0.4-0.6s1.4-2.2,0.6-2.3c-0.8-0.1-2.3,2.7-2.3,2.7
	s0.4-1.2-0.2-1.5c-0.6-0.3-1.1,1-1.8,2.7s-2.1,3.4-2.4,4.1c-0.3,0.7-0.4,2-2.4,2.8s-8.7,0.2-12.5,0.1s-5.7,1.1-10.2,2.4
	c-3,0.9-5.9,1.5-7.5,1.8c0-0.2,0-1-1.5-1.5c-1.7-0.5-2.8-0.3-3.2,0.2s-3.1-0.2-4-0.2s-1.9,0-1.9,0l-1.5,0.5c0,0-0.2-3.2,1.1-3.9
	c1.3-0.7,2.5-1.8,2.2-3.1c-0.3-1.3-1.1-1.1-1.3-1.7c-0.1-0.6-0.4-1.1-0.5-1.3c-0.2-0.2-0.2-0.2-0.2-0.2s0.3-1.7-0.1-2.2
	c-0.4-0.5-0.7-0.8-0.7-0.8s-0.4-0.4-0.4-0.6c0-0.2,0.3-0.9,0.5-1.5s0.1-1-0.4-1.3c-0.7-0.5-0.9-0.3-2.3-0.1
	c-0.9,0.1-1.7,0.2-2.1-0.3c-0.1-0.2-0.8-2.2-1.4-3c-0.6-0.8-1.7-1.6-2.6-2c-0.9-0.4-3.5-1-3.5-1s-2.8-1.3-7.8,1.1
	c-5,2.4-7.4,6.2-7.4,6.2s-0.2,0.2-0.5,0.7c-1.8-2.1-2.9-5.1-4.8-8.1c-2.4-3.8-5-7.4-5.8-9.4s0.9-3.7,1.6-4.3
	c0.7-0.7,4.6-1.3,4.4-2.3c-0.1-0.7-1.2-1.3-1.2-1.3s1.5,0.2,2.4-0.7c0.7-0.6-0.6-1-1.2-1.1c0.8,0.1,2.4,0.2,2.3-0.9
	c0-0.4-1.9-1.1-1.9-1.1s2.1-0.2,1.4-0.9c-0.7-0.7-0.9-0.8-4-0.7c-3.1,0.1-7.8,4.7-7.8,4.7s-1.6,1.8-2.4,3.5s0.6,5.2,0.8,6.2
	c0.2,1,0.4,4.8,1.8,8.5s6.6,10.4,8.4,12.3c1.3,1.5,2,2.7,3.7,5.3c0.3,1.6,1,3.3,2.3,5c5.8,7.7,5.4,7.9,5.4,8.4c-0.1,0.5-0.3,2-0.3,2
	s-3.4,0.9-5.8,5.2c-2.3,4.3-1.9,6.8-0.9,9c1,2.3,1.1,2.5,1.1,2.5s0.7-2.5,1-3.1s0.7-0.9,0.7-0.9s-0.5,1.6,0.1,3.3
	c0.6,1.7,0.7,2.7,0.7,2.7s0.4,0,0.6-1.4c0.2-1.4,0.5-4.8,0.5-4.8s0.4,4.4,0.5,6.3c0.2,1.9-1.1,3.2-1.7,3.7c-0.6,0.5-3.4,2.5-5.2,4.1
	c-1.7,1.6-6.1,5.8-6.8,6.7c-0.7,0.9,1.5,3.7,1.8,4c0.2,0.3-6.6,8-7.1,8.9s-0.7,2,0.5,3.6s2.2,4,4.5,4.9c2.4,0.9,5,1.3,5,1.3
	s-1.2,9.1-0.9,12.6c0.3,3.5,1.1,10-1.2,13.4c-2.3,3.4-5.4,7.5-7.2,12.7c-1.8,5.2-1.4,13.4-1.2,14.8c0.1,1.4-2,2.8-2,2.8
	s-3.6,0.2-3.8,2.4c-0.1,2.3,0,6.1-0.4,10.3c-0.5,4.2,0.8,9,2.4,11.1s4.9,2.2,6.2,0.8c1.3-1.3,1-4.3,1.7-6.4
	c0.7-2.2,2.9-7.9,3.5-11.5c0.5-3.5,0.1-8.7,0.5-11.2c0.5-2.5,6.1-16.6,7.8-18.9c1.7-2.3,3.2-5,5.4-9.6s2.2-4.6,2.2-4.6
	s-0.3,5.8-1,8.1s-2.8,6.9-3,10.4s0.8,10.4,0,12.6c-0.8,2.2-0.8,2.2-0.8,2.2s-5.6,0-5.1,3.3s1.5,7.2,1.6,9.4c0,2.3,0.9,6,2.5,9.7
	c1.6,3.7,2.7,2.7,3.8-0.7s1.6-8.7,3.6-12.4c1.9-3.7,2.4-11.2,2.9-16c0.4-4.8,2-10.8,4.1-14.3s2.6-5.3,2.9-10
	c0.3-4.7,1.1-12.8,2-15.9c0.9-3.1,1-3.8,1-3.8s7.2,1,7.1-0.1c0-2.4,1.6-5.2,2-8.7s1.8-4.5,2.4-7.6c0.6-3-1.6-9.6-1.9-12.6
	c-0.3-2.9-1.3-2.5-0.3-5s2.9-8.5,3.6-12.2c0.7-3.7,1.2-8.1,1.4-9.5s1.8-1.7,2.6-2.5c0,0,0.1-0.1,0.1-0.2c1.5-0.1,3.1-0.3,4.6-0.5
	c3.6-0.7,4.5-1.6,8-2.7c3.6-1.1,3.2-0.7,7.3-1.5c4.1-0.7,6.2-1.7,8.4-2.5s5.8-1.2,7.5-1.4c1.7-0.2,2.5-1.4,3.2-2
	c0.7-0.7,2.4-2.1,2.8-2.7c0.4-0.6,0.2-1-0.4-1.2c-0.5-0.2-2.6,1.1-2.6,1.1s0,0,0.7-0.8C588.7,67.3,589.5,65.9,590.5,64.5z"/>
</svg>
