<?xml version="1.0" encoding="UTF-8"?><!DOCTYPE svg PUBLIC "-//W3C//DTD SVG 1.1//EN" "http://www.w3.org/Graphics/SVG/1.1/DTD/svg11.dtd"><svg xmlns="http://www.w3.org/2000/svg" xmlns:xlink="http://www.w3.org/1999/xlink"><defs/><symbol id="about-isd" viewBox="0 0 95 95"><title>about-isd</title><path id="about-icon" d="M49,33.66c-1.81-1.24-5.21-.77-6,.85a1.54,1.54,0,0,0-.15,1.31c.43,1.47,2.88,2.3,5,1.71h0C50.22,36.88,50.81,34.9,49,33.66ZM97.5,50A47.53,47.53,0,1,0,85.74,81.27H76.63V63.73h9.22V81.14A47.3,47.3,0,0,0,97.5,50ZM65.07,56.1l-1.38.74c-2.58,1.43-4,2.18-4,2.18s-.88.48-1.92,1-2.48,1.37-3.2,1.75c-1.87,1-2.21,1.19-4,2.18-2.17,1.2-3.83,2.09-4.09,2.19a5,5,0,0,1-1.3-.58h0l-2.43-1.34c-.7-.38-1.67-.92-2.17-1.18s-1-.5-1-.54l-.9-.5L36,60.58,33.13,59l-1.81-1L29,56.79,27.61,56V50.74c0-3.56,0-5.29.09-5.33a.2.2,0,0,1,.21,0l.79.45,3,1.64,6,3.26,2.49,1.36,2.08,1.13,2.22,1.22c.59.34,1.27.71,1.51.84l.42.23,1.34-.75L50.9,53.1l2.67-1.45,1.4-.76L56.55,50l1.85-1,5.37-2.93c.72-.39,1.34-.71,1.38-.71s.08,2.27.08,5.34C65.23,55.71,65.22,56.05,65.07,56.1ZM74,38.79,71.7,40l-3.53,1.9-5,2.67-3.8,2-3.85,2C51.31,51,51.34,51,50.4,51.45l-2.33,1.26a13.63,13.63,0,0,1-1.61.8c-.16,0-.83-.35-5.24-2.73L36.79,48.4c-1.52-.8-5.66-3-6-3.21-.15-.09-.84-.46-1.54-.82l-2-1.08c-.42-.24-.94-.52-1.16-.62l-.38-.2V52c0,5.26,0,9.58,0,9.59a5.7,5.7,0,0,1-.7.21l-1.89.5-2.4.65-1.32.35a.22.22,0,0,1-.24-.07h0c-.1-.13-1.74-6.19-1.74-6.45a2.5,2.5,0,0,1,.93-.35l3.77-1,.95-.25,0-7.07,0-7.07-.57-.28L19.2,39l-4.7-2.54c-.28-.15-.5-.32-.5-.39s.92-.65,4.11-2.34L22,31.64l2.89-1.56c1.1-.57,1.72-.9,5.61-3l3.75-2,3.17-1.7,3.52-1.9c2-1,3.74-2,4.52-2.41a4.8,4.8,0,0,1,1-.46c.1,0,1.4.66,2.9,1.46,3.14,1.69,4.23,2.28,5.62,3L62.29,27l1,.53c.15.07,1.49.79,3,1.6L69.8,31l1.49.79,2.89,1.55,3,1.63a8.23,8.23,0,0,1,1.77,1C79,36.13,77.31,37.05,74,38.79ZM84.46,57.71A4.72,4.72,0,0,1,82.17,59a3.82,3.82,0,0,1-1.9,0h0a4.66,4.66,0,0,1-3.39-6.13,4.76,4.76,0,0,1,3.18-2.91A4.57,4.57,0,0,1,85,51.76a4.2,4.2,0,0,1,.83,2.34A4.39,4.39,0,0,1,84.46,57.71Z" transform="translate(-2.5 -2.5)"/></symbol><symbol id="admissions-icon-reverse" viewBox="0 0 100 100"><title>admissions-icon</title><g id="reverse-export"><path d="M40.34,66.06H67v-4H40.34Zm0-35v4h39v-4Zm0,19.5h39v-4h-39ZM18.52,64h0l2.55,15.38L23.6,64h0v-39h-5.1Zm.91-37.67h3.28V29.2H19.43ZM22.69,64l-1.64,9.88L19.41,64Z"/></g></symbol><symbol id="admissions-icon" viewBox="0 0 100 100"><title>admissions-icon</title><g id="export"><path d="M98,0H2A2,2,0,0,0,0,2V98a2,2,0,0,0,2,2H98a2,2,0,0,0,2-2V2A2,2,0,0,0,98,0ZM94,92.88A1.12,1.12,0,0,1,92.88,94H7.12A1.12,1.12,0,0,1,6,92.88V7.12A1.12,1.12,0,0,1,7.12,6H92.88A1.12,1.12,0,0,1,94,7.12Z"/><path id="pen" d="M73,21.61V66h0L77.14,83.5,81.36,66h0V21.61Zm4.18,55.64L74.43,66h5.42ZM79.9,26.32H74.47V23.11H79.9Z"/><path id="lines" d="M18,26.5v5.66h42.4V26.5Zm0,43.82h42.4V64.66H18Zm0-19.08h42.4V45.58H18Z"/></g></symbol><symbol id="arrow" viewBox="0 0 100 100">
<polygon points="89,47.4 67.2,25.7 71,22 99,50 71,78 67.2,74.3 89,52.6 1,52.6 1,47.4 "/>
</symbol><symbol id="bookmark-detail" viewBox="0 0 100 100">
<path d="M15.7,10.8H1V5.9h98v4.9H84.3v83.3H73.8L50,79.8L26.2,94.1H15.7V10.8z M79.4,89.2V10.8H20.6v78.4h4.2L50,74.1l25.2,15.1
	H79.4z"/>
</symbol><symbol id="bookmark" viewBox="0 0 18 18"><path fill-rule="evenodd" d="M179,2799 L161,2799 L161,2781 L179,2781 L179,2799 Z M167,2782 L162,2782 L162,2798 L178,2798 L178,2782 L173,2782 L173,2789.23852 L170,2788.03852 L167,2789.23852 L167,2782 Z M172,2782 L168,2782 L168,2787.76148 L170,2786.96148 L172,2787.76148 L172,2782 Z" transform="translate(-161 -2781)"/></symbol><symbol id="carat--down" viewBox="0 0 100 100">
<path d="M50,66.2l43.5-43.5l5.5,5.5l-49,49l-49-49l5.5-5.5L50,66.2z"/>
</symbol><symbol id="carat" viewBox="0 0 100 100">
<path d="M66.2,50L22.7,6.5L28.3,1l49,49l-49,49l-5.5-5.5L66.2,50z"/>
</symbol><symbol id="chevron" viewBox="0 0 100 100">
<path d="M91.2,50L54.8,13.6l3.9-3.9L99,50L58.7,90.3l-3.9-3.9L91.2,50z M1,86.4L37.4,50L1,13.6l3.9-3.9L45.2,50L4.9,90.3L1,86.4z"/>
</symbol><symbol id="close-x" viewBox="0 0 100 100">
<polygon points="43.5,50 1,7.5 7.5,1 50,43.5 92.5,1 99,7.5 56.5,50 99,92.5 92.5,99 50,56.5 7.5,99 1,92.5 "/>
</symbol><symbol id="community-icon-reverse" viewBox="0 0 100 100"><title>community-icon-reverse</title><g id="community-reverse"><path id="icon" d="M44.57,63C51.93,66,57.1,73.74,57.1,82.8v1.91H53.56V82.8c0-9.77-7.22-17.63-16-17.63s-16,7.86-16,17.63v1.91H18V82.8c0-9,5.17-16.71,12.53-19.82A12.45,12.45,0,1,1,50,52.71,12.37,12.37,0,0,1,44.57,63Zm-7-19.19a8.92,8.92,0,1,0,8.92,8.92A8.93,8.93,0,0,0,37.56,43.79Zm31.93-5.73C76.85,41.1,82,48.82,82,57.88v1.91H78.48V57.88c0-9.77-7.22-17.63-16-17.63a12.53,12.53,0,1,1,7-2.19Zm-7-19.19a8.92,8.92,0,1,0,0,17.84,8.92,8.92,0,1,0,0-17.84Z"/></g></symbol><symbol id="community-icon" viewBox="0 0 100 100"><title>community-icon</title><g id="community-export"><path id="comunity" d="M40.44,45.22a6.85,6.85,0,1,0,6.84,6.84A6.85,6.85,0,0,0,40.44,45.22ZM59.56,26.09a6.85,6.85,0,0,0,0,13.69,6.85,6.85,0,1,0,0-13.69ZM50,1A49,49,0,1,0,99,50,49,49,0,0,0,50,1Zm5.43,75.63H52.72V75.16c0-7.5-5.55-13.53-12.28-13.53s-12.28,6-12.28,13.53v1.47H25.44V75.16a16.37,16.37,0,0,1,9.62-15.22A9.55,9.55,0,1,1,50,52.06a9.47,9.47,0,0,1-4.18,7.88,16.25,16.25,0,0,1,9.61,15.22ZM74.56,57.5H71.84V56c0-7.5-5.54-13.53-12.28-13.53a9.62,9.62,0,1,1,5.38-1.68A16.23,16.23,0,0,1,74.56,56Z"/></g></symbol><symbol id="families" viewBox="0 0 636 627"><title>families</title><g id="familiy_3" data-name="familiy#3"><path d="M618.1,339.78s-.16-17.93-2.15-34.87-2.33-21.92-8.64-31.22-18.77-28.24-25.91-35.87S568.78,227,568.78,227s-8.48-5.65-9.14-6.31-4.32-1.66-5.15-5.82.17-6.14-.66-9.13a4.65,4.65,0,0,0-3.16-3.49s2-3,1.5-5.64a4.81,4.81,0,0,0-2.16-3.49,4.72,4.72,0,0,0,1.49-5.65c-1.49-3.49-3.32-3.82-3.32-3.82s1.5-4-.17-6.31a31.15,31.15,0,0,1-3-5.81s.67-2.5-1.16-8.48S536.55,146.8,529.58,142s-10.3-2.15-10.3-2.15-16.77-4.66-27.57,1.65-13.95,17.11-13.62,22.26,2.49,5.32,2.49,5.32-.83,8.3.5,11.29a23.76,23.76,0,0,1,2.16,11.79c-.33,5.15.17,12.12,4.32,16.28s7.8,10.29,11.62,11.46,10-.17,10-.17l2.49,4s-17.27,9.3-20.76,14.12,0,8,0,8,1.49,5.31-3.49,12.62-4.81,12.46-3.82,16.28.17,5,.17,5a106.57,106.57,0,0,0-3.82,14.12c-1,6-5.31,17.1-12,27.9s-14.12,32.88-17.44,37.37-1.66,6.31-1.66,6.31-4.82,7.31-8.8,10.63c-1.8,1.5-3.72,2.89-5.33,4.23a5.88,5.88,0,0,1-2.48-2.24,25,25,0,0,0-3.32-4.15,8.33,8.33,0,0,0-1.33-6.31c-2.16-3.49-9.13-9.8-13.29-15.78s-10.63-16.11-15.78-20.93-7.47-4.32-11.46-10-14.94-17.27-14.94-17.27,1.16-5.81-1.5-8-6.48-3.49-8.8-9.8-13.29-12.62-15.95-13.45-10.79-1-10.79-1a84.1,84.1,0,0,0,1-13,81,81,0,0,1,.34-10.13s5.32-4.32,5-10.63-2-7.15-2-7.15,3-13.28-2.33-25.24S320,187,305.86,186.81s-31.06,9.31-33.05,29.07,4.31,22.26,4.31,22.26,2.17,15.44,4.82,20.76,5.65,5,8.14,8.63a9.43,9.43,0,0,0,6.48,4s.83,2.66,1.33,4.32l.49,1.66s-4-1-6.14.33-1.66,2.66-2.83,3.49-5,.83-5.48,2.66-.83,4-.83,4-7.3,3.15-11.29,7-6.64,8.8-10.46,11.63-6.48,5-8,8-1.32,3.32-9.13,8.3S230,331.48,224,332.8s-12.62,1.33-13.28,2.66a8,8,0,0,0-.5,3.49l-1.81.4c0-1.36.07-2.67.15-3.88.72-11.63,1-14.53,1-14.53s30-4.11,38.26-15.74,4.36-19.61,6.3-38.5,3.15-54.24,2.66-66.1-13.8-12.35-13.8-12.35-.73-8.72-5.81-11.63-8.48-2.17-14.53-5.56-16.46-11.14-16.46-11.14-6.3-20.34-22.28-34.14-20.1-11.86-20.1-11.86l-3.39-7c-1.45-1.21-1.94-4.6.72-9.44s1.46-8,1.46-8,5.49.19,3.18,4.4c-.29.53,4.79.06,6.73-3.58s1.47-4.2,1.47-4.2a6.35,6.35,0,0,0,3.79.84c5.26-.42,5.17-4.48,5.17-4.48s-2.25,1.24-3.7.27-3-3.54-1.38-7c1.38-3,2.91-5.81.48-15.74a53.81,53.81,0,0,0-8.72-19.13c-4.89-6.87-14.29-21.06-26.64-25.42s-32.44,0-42.61,3.15S85,31.58,85.52,42s3.87,12.6,3.87,12.6-.48,3.63.49,5.81-.49,5.57-1.94,8.47-4.84,6.79-4.12,9S87.94,79,88.18,81s.49,3.63-.73,5.57,2.18,3.63,3.63,3.63h1.46s-5.09,1.7-3.15,3.88a7.25,7.25,0,0,1,1.21,6.78c-.48,1.69.49,5.13,5.47,7a26.35,26.35,0,0,0,11.48,1.66s-10.89,6.54-10.17,10.18,3.63,5.56,3.39,17.91.49,24.46-7.26,37.29-9.93,25.18-7.27,38.26S89.88,241,90.12,256s-3.64,24.21.48,42.37,7.27,35.36,7.27,35.36a441.46,441.46,0,0,1-14.05,52.78c-9,26.15-19.37,55.45-18.89,63s1.7,15.49-1,29.06-11.62,59.56-14.77,67.79S23.77,573.72,22.8,574.69,25,580,26.67,581.23s-3.38,1.69-8.71,2.18-12.35,2.18-12.59,7.26,2.66,7.51,11.86,9.45,24.21,2.18,30,3.63,29.54,4.6,37.05,2.91,8-7.76,8-7.76a76.85,76.85,0,0,0,.48-13.31c-.48-5.81-4.6-13.76,1-23.47s8.72-22.78,13.8-38,17-41.16,19.13-56.9,5.09-22.76,9.45-33.41S149,403,149,403s22.76,38.26,28.82,51.58,20.82,36.08,33.89,55.69c9.85,14.77,19,35,24.28,47.77-5.19,7.69-10.12,13.37-11.31,15.56-2,3.66-4.32,4.16-3,6a12.44,12.44,0,0,0,2.82,2.82s-8,.17-15.11-.5-12.12-1.16-14.28,4.82,5.81,11.62,17.77,16.11,16.11,2,23.42,6,14.45,7.47,20.76,7.64,9.47-2.16,10.79-7a11.6,11.6,0,0,0-.66-8.31s3-1.66,4.32-8.64a.59.59,0,0,1,0-.13c6.55-3.21,14-7.08,17.42-7.8,4.6-1,19.37-8.72,19.13-14.29s-6.3-11.62-6.3-11.62,4.12-4.85,2.67-8c-1.36-2.93-4-7.54-10.59-19.51a20,20,0,0,0,1.06-4.59c.5-7.47,2.67-10.46,9-19.93s26.73-41.85,26.73-41.85,13.13,29.9,16.28,36.21,6.15,8.3,8.31,11,1.33,7.81,5.15,12,16.44,13.62,19.59,26.41,2.83,18.93,5.82,26.57,3.15,5.82,1.66,8.8-1.33,4.66-1.33,4.66a133.44,133.44,0,0,1-13.95,6.64c-5.48,2-8.31,6.31-6.81,9.63S376,611.5,387.41,611s15.61-3.65,20.76-6.31,11.29-2.49,16.27-5.82,16.78-7.3,15.95-12-2.49-7-5-10.13-4.32-3.17-4.32-3.17a19.65,19.65,0,0,0-2.16-7.63c-2-3.65-3.32-13.62-7.81-20.1s-5-16.27-17.11-30.89-11.12-20.1-15.11-25.41-4.48-12.95-8.47-22.59-5.81-10.3-5.48-14.45a18.68,18.68,0,0,0-.33-6.31s15.11-1.66,15.11-4-3.49-21.43-8.8-30.23-8.64-19.43-11-32.55-5.15-36.71-5.15-36.71,18.77,13.45,24.25,21.09,18.1,18.27,21.09,22.92,8.14,2.16,8.14,2.16,3.82,6.81,3.49,11.3,3.65,9.3,6.31,12.79,6,2.49,6,.66a12.71,12.71,0,0,0-1.25-3.51c1.12.3.75-.81.75-.81s3.32,2.66,4.82,2.33,2.16-2.16,2.16-2.16,1.32,3,4.31,2.49a5.66,5.66,0,0,0,4.11-2.91c1.07.19,1.9.15,2.2-.25a1.84,1.84,0,0,0,.17-2.32s2.49.33,3.16-1.66-.34-2.82-.34-2.82,2.16-1,2-2.33a4.69,4.69,0,0,0-.83-2.16s2-2,1.16-4.15a7.82,7.82,0,0,0-2-2.85,23.69,23.69,0,0,1,2.87-6.62c5-8.3,8.31-11.46,8.31-11.46s8.63,4.49,11.79,5a3.67,3.67,0,0,0,4.15-2s-.67,19.43-.67,23.92a66.64,66.64,0,0,1-2.65,16.11c-1.33,4.31,5.64,1.49,5.64,1.49s-4.48,14.12-8.46,22.26-10.14,17.94-8,28.07,7.81,15.44,13.79,24.41S492,509,492,509s-3.32,3.33-2.49,5.15S503.5,541.58,507,547.56s9.8,12.12,6,22.09-12.13,20.59-17.11,23.25-17.93,6-16.11,11.63,20.27,3.65,27.91,3.15,23.42-7,25.91-7.81,4,4.32,6.64,4.16,22.92-4.65,24.08-6.31l1.16-1.66s4-.67,4.32-1.33-.83-7.31-2.32-10.8a17,17,0,0,0-3-5s-1-13-1.5-21.59,1.33-37.37,1.5-41.53-1.66-3.65-4.48-3.65h-2.83a100.5,100.5,0,0,0-6.31-21.59c-4.49-10.13-6-10-6-16.78s-2-21.09,2.49-34.71a49.38,49.38,0,0,0,1-26.07s3.32-.67,8-4.32,6-6.14,6-6.14,8.47-1.33,10.79-3.49a13.26,13.26,0,0,1,3.66-2.66s11.62,2.33,20.92-2.16,9.8-7.3,9.8-7.3,6.65,0,8.14-1.33,3.66-8.48,4.82-15.95,3.32-15.44,4.15-19.77S618.1,339.78,618.1,339.78ZM213.61,376.15c-1.85-4.46-3.2-10.77-4.07-17.42l5.13-.51s1.83,5,4,4.81,18.43-5.65,21.92-6.48,12,.17,21.6-6.47,21.09-14.79,21.09-14.79-.17,9.14.33,18.94,4.82,10.13,2.16,20.6-3.82,13.28-3,23.58,2,9.63,0,25.24-6.48,27.07-5.81,27.57a6.94,6.94,0,0,0,2,.83s-4.82,10-6.64,16.61a36.8,36.8,0,0,1-2.7,6.89l-.55-1.1c-5.81-11.38-19.13-27.36-27.36-38.26s-6.78-17.67-14.53-26.14S217.73,386.07,213.61,376.15ZM510.75,478.26c-.24.24-3-3.21-5-6.33s-2.32-4.64-1.36-7.92,3.2-9.92,3.2-9.92a45.32,45.32,0,0,0,1.36,10.32C510.36,470.41,511,478,510.75,478.26Z"/></g></symbol><symbol id="family-simple-icon" viewBox="0 0 100 100"><title>families</title><path id="family" d="M78.07,27.6a5.75,5.75,0,1,0-5.74-5.73A5.74,5.74,0,0,0,78.07,27.6ZM50,53.53a5.06,5.06,0,1,0-5.05-5A5,5,0,0,0,50,53.53Zm43.87-1.61s-5.72-15.5-7.13-18.39-2.8-4.68-8.15-4.68H77.52c-5.35,0-6.74,1.82-8.14,4.7C68.2,36,64.06,47.08,62.71,50.78l-4.37,2.15a18.92,18.92,0,0,1-16.65,0l-4.36-2.15C36,47.1,31.82,36,30.66,33.55c-1.41-2.88-2.8-4.7-8.15-4.7H21.42c-5.35,0-6.74,1.8-8.15,4.68S6.11,51.92,6.11,51.92A1.35,1.35,0,1,0,8.59,53l7.78-15.43L12.5,61.44h3V81.15a2.68,2.68,0,1,0,5.35,0V61.44H23V81.15a2.68,2.68,0,1,0,5.35,0V61.44h3L27.48,37.55l7.23,14.37a1.65,1.65,0,0,0,.61,1.46l6,4.65c3.38,2.55,3.34,9.43,3.34,9.43v14a2.35,2.35,0,0,0,2,2.36,2.31,2.31,0,0,0,2.61-2.27v-12a.79.79,0,0,1,1.58,0v12a2.29,2.29,0,0,0,2.6,2.27,2.37,2.37,0,0,0,2-2.36v-14s0-6.87,3.35-9.43l6-4.65A1.64,1.64,0,0,0,65.33,52l6-12,.3,41.22a2.68,2.68,0,0,0,2.86,2.67A2.75,2.75,0,0,0,77,81.12V57.48a1.12,1.12,0,0,1,1.12-1.12,1.13,1.13,0,0,1,1.13,1.12v23.6a2.68,2.68,0,1,0,5.35.09L84.9,40l6.56,13a1.33,1.33,0,1,0,2.43-1.06Zm-72-24.32a5.75,5.75,0,1,0-5.73-5.73A5.74,5.74,0,0,0,21.93,27.6Z"/></symbol><symbol id="learning-icon-reverse" viewBox="0 0 100 100"><title>learning-icon</title><g id="apple-disc-reverse-export"><path d="M50.05,24.53C49.42,17.86,55,17,53.84,14.86a1.49,1.49,0,0,0-1.7-.76c-2.6.4-5.89,6.22-4.3,10.6C48.52,26.56,50.17,25.86,50.05,24.53ZM39.41,18.9c.84,1.44,2.93,2.5,4.81,3,1,.24,2.15-.34,1.31-1.65-1.42-2.19-2.59-4.73-4.62-4.35a2.09,2.09,0,0,0-1.5,3Zm-8,46.16H64.93a.73.73,0,0,0,0-1.46H31.44a.73.73,0,1,0,0,1.46Zm46.79,4.67a2.15,2.15,0,0,0,0-.8A3,3,0,0,0,77,66.88a6.49,6.49,0,0,1-.66-.73,4.6,4.6,0,0,1-1-3V63a4.49,4.49,0,0,1,1-3,7.73,7.73,0,0,1,.67-.73,3,3,0,0,0,1.31-2.06,2,2,0,0,0-.45-1.63,1.78,1.78,0,0,0-1.35-.61H55.13c2.61-.57,5.35-2.47,7.51-6.58,2.94-5.6,4.32-13.79,1.42-18.72a9.24,9.24,0,0,0-12.65-3,4.52,4.52,0,0,1-4.94,0,9.25,9.25,0,0,0-12.66,3c-2.9,4.93-1.52,13.12,1.42,18.72,2.16,4.11,4.9,6,7.52,6.58H28.23c-4,0-8.43,3.48-8.43,8.13a8.09,8.09,0,0,0,3.84,6.66H15.83a1.74,1.74,0,0,0-1.35.6A2,2,0,0,0,14,71.93,3,3,0,0,0,15.34,74a7.73,7.73,0,0,1,.67.73,4.49,4.49,0,0,1,1,3v.18a4.49,4.49,0,0,1-1,3,7.63,7.63,0,0,1-.66.73A3,3,0,0,0,14,83.71a2,2,0,0,0,.44,1.63,1.78,1.78,0,0,0,1.36.6H77.57c4,0,8.43-3.47,8.43-8.12C86,73.42,82,70.08,78.23,69.73ZM47.46,54.59a4.3,4.3,0,0,1,3,0,8.18,8.18,0,0,0,1.13.32H46.33A8.18,8.18,0,0,0,47.46,54.59Zm-21.24,5.9a5,5,0,0,1,3.41-1.1H74.88a5.57,5.57,0,0,0-.65,1.26H41.18a.74.74,0,1,0,0,1.47H73.87a5.43,5.43,0,0,0,0,.9v0a6,6,0,0,0,1,3.63H29.62c-2.73,0-4.5-1.43-4.5-3.65A3.31,3.31,0,0,1,26.22,60.49Zm50,21H17.41a5.86,5.86,0,0,0,1-3.65h0c0-.19,0-.39,0-.59H51.11a.74.74,0,0,0,0-1.47H18.18a6.08,6.08,0,0,0-.77-1.58H76.18a5,5,0,0,1,3.41,1.1,3.31,3.31,0,0,1,1.1,2.55C80.69,80,78.92,81.48,76.19,81.48Zm-2.9-2.64H39.8a.74.74,0,0,0,0,1.47H73.29a.74.74,0,0,0,0-1.47Z"/></g></symbol><symbol id="learning-icon" viewBox="0 0 100 100"><title>learning-icon</title><g id="apple-disc-export"><path d="M51.66,50.13a3.2,3.2,0,0,0-2.2,0,5.8,5.8,0,0,1-.84.24H52.5A5.8,5.8,0,0,1,51.66,50.13ZM50,1A49,49,0,1,0,99,50,49,49,0,0,0,50,1Zm3,19a1.1,1.1,0,0,1,1.26.56c.84,1.59-3.29,2.23-2.83,7.19.1,1-1.13,1.51-1.63.13C48.56,24.64,51,20.31,53,20Zm-8.36,1.3C46.1,21,47,22.92,48,24.55c.63,1-.24,1.4-1,1.22a5.9,5.9,0,0,1-3.58-2.2,1.48,1.48,0,0,1-.16-.46A1.56,1.56,0,0,1,44.59,21.31ZM71.86,73.45H25.93a1.31,1.31,0,0,1-1-.45,1.51,1.51,0,0,1-.33-1.21,2.22,2.22,0,0,1,1-1.53,5,5,0,0,0,.49-.54,3.32,3.32,0,0,0,.73-2.24v-.14a3.32,3.32,0,0,0-.73-2.24,6.28,6.28,0,0,0-.49-.54,2.26,2.26,0,0,1-1-1.53,1.54,1.54,0,0,1,.33-1.22,1.31,1.31,0,0,1,1-.44h5.81a6,6,0,0,1-2.86-5c0-3.46,3.32-6,6.28-6H46c-2-.43-4-1.84-5.6-4.9-2.18-4.17-3.21-10.26-1-13.92a6.88,6.88,0,0,1,9.41-2.25,3.37,3.37,0,0,0,3.68,0,6.88,6.88,0,0,1,9.41,2.25c2.16,3.66,1.13,9.75-1.05,13.92-1.61,3.06-3.65,4.47-5.6,4.9H71a1.29,1.29,0,0,1,1,.45A1.51,1.51,0,0,1,72.37,52a2.2,2.2,0,0,1-1,1.53c-.18.18-.34.36-.5.55a3.41,3.41,0,0,0-.73,2.24v.13a3.41,3.41,0,0,0,.74,2.25,5,5,0,0,0,.49.54,2.23,2.23,0,0,1,1,1.52,1.51,1.51,0,0,1,0,.6c2.82.26,5.78,2.75,5.78,6C78.13,70.87,74.82,73.45,71.86,73.45Zm-1-8.76H27.11a4.94,4.94,0,0,1,.57,1.18h24.5a.55.55,0,0,1,.54.55.54.54,0,0,1-.54.54H27.87c0,.15,0,.3,0,.44h0a4.38,4.38,0,0,1-.77,2.71H70.83c2,0,3.35-1.07,3.35-2.72a2.46,2.46,0,0,0-.82-1.9A3.79,3.79,0,0,0,70.83,64.69Zm-2.15,4.57H43.76a.55.55,0,0,1-.54-.55.54.54,0,0,1,.54-.54H68.68a.54.54,0,0,1,.54.54A.55.55,0,0,1,68.68,69.26ZM36.19,59.13H69.85a4.48,4.48,0,0,1-.77-2.7v0h0a5,5,0,0,1,0-.67H44.79a.55.55,0,1,1,0-1.09H69.38a3.79,3.79,0,0,1,.48-.94H36.19a3.69,3.69,0,0,0-2.53.82,2.44,2.44,0,0,0-.82,1.89C32.84,58.06,34.16,59.13,36.19,59.13Zm1.35-2.3H62.46a.55.55,0,0,1,0,1.09H37.54a.55.55,0,0,1,0-1.09Z"/></g></symbol><symbol id="list" viewBox="0 0 100 100">
<path d="M99,1v98H1V1H99z M6.4,6.4v87.1h87.1V6.4H6.4z M77.2,63.6v5.4H22.8v-5.4H77.2z M77.2,30.9v5.4H22.8v-5.4H77.2z"/>
</symbol><symbol id="long-arrow" viewBox="0 0 128 128"><path d="M87 0l26 26h-113v8h113l-26 26h11l30-30-30-30h-11z" transform="translate(0 33)"/></symbol><symbol id="menu-thin" viewBox="0 0 100 100">
<path d="M99,22v6H1v-6H99z M99,47v6H1v-6H99z M1,74.5v6h98v-6H1z"/>
</symbol><symbol id="next" viewBox="0 0 100 100">
<path d="M65.9,50L23.3,7.4L28.7,2l48,48l-48,48l-5.4-5.4L65.9,50z"/>
</symbol><symbol id="pause" viewBox="0 0 100 100">
<path d="M99,1v98H1V1H99z M6.4,6.4v87.1h87.1V6.4H6.4z M39.4,71h-5.4V30h5.4V71z M66.1,71h-5.4V30h5.4V71z"/>
</symbol><symbol id="play" viewBox="0 0 100 100">
<path d="M50,99C22.9,99,1,77.1,1,50S22.9,1,50,1s49,21.9,49,49S77.1,99,50,99z M50,93.6c24.1,0,43.6-19.5,43.6-43.6S74.1,6.4,50,6.4
	S6.4,25.9,6.4,50S25.9,93.6,50,93.6z M36.4,75.8V24.2L75.1,50L36.4,75.8z M41.8,34.4v31.2L65.3,50L41.8,34.4z"/>
</symbol><symbol id="prev" viewBox="0 0 100 100">
<path d="M76.7,92.6L71.3,98l-48-48l48-48l5.4,5.4L34.1,50L76.7,92.6z"/>
</symbol><symbol id="pupil-experience-reverse" viewBox="0 0 100 100"><title>pupil-experience-reverse</title><g id="pupil-experience"><path id="girls" d="M95.49,10.78c-.17-.71-.55-1.23-.66-.53a12.07,12.07,0,0,0-.18,1.68c0,.39-.09,1.45-.09,1.45s-.6-1.22-.71-1.46a7.37,7.37,0,0,0-1.09-1.73.37.37,0,0,0-.54.35,8.09,8.09,0,0,0,.68,1.87c.21.46.49,1.3.51,1.37s0,1.22.08,1.33l0,.1s-.67-.58-.73-.68-2-2.39-2.22-2.51-.57-.09-.57.29a5.26,5.26,0,0,0,1.21,1.87,6.21,6.21,0,0,1,1.13,1.65c0,.23.14.73,0,.78A2.36,2.36,0,0,1,91.06,16c-.29-.37-1-1.17-1.26-1.14s-.43.09-.4.38a4.71,4.71,0,0,0,1.44,1.87,2.23,2.23,0,0,1,.79.92,6.35,6.35,0,0,1-.28,1.45c-.17.28-1.87.63-2,1s-.18.67-.9.86A5.66,5.66,0,0,0,86,23.14a3,3,0,0,1-1.06,1.14c-.3.18-2.25,1-2.46,1.17a8.71,8.71,0,0,1-1.11.67l-1.08.31a2.79,2.79,0,0,1-1.3-.87c-.52-.65-.74-1.47-1.53-2.09s-1-.36-1-1a18.85,18.85,0,0,0-.72-3.37,4.55,4.55,0,0,0-1.08-1.55c-.3-.18-.57-1.28-.78-1.68a7.87,7.87,0,0,0-2.39-2.71A5.43,5.43,0,0,0,68,12.29s-3.23.83-3.69,1.86-1.59,2.51-1.59,3.12-.55.78-.59,2a4.39,4.39,0,0,1-.7,2.68c-.5.7-.19,1-.53,1.1a7.85,7.85,0,0,0-.87.52.92.92,0,0,1-.64-.4c-.25-.38-.5-.29-.84-1.3a28.66,28.66,0,0,0-1.34-3.12c-.39-.8-.39-.34-.53-1.38s.11-1.1-.39-1.33a5.18,5.18,0,0,1-1-.63s-.11-2.6-.41-2.71a6,6,0,0,0-1-.2s-.7-.32-.25-1.42a7.6,7.6,0,0,0,.59-2.65c0-.52.53-1.18,1-1s1.18.17,1-.23-.2-.49-.47-.58a2.25,2.25,0,0,0-.55-.08c.1,0,.27-.09.13-.52a.88.88,0,0,0-1.07-.67,10.8,10.8,0,0,0-1.28.2,13.21,13.21,0,0,1,1.31-1.7c.56-.55,1.54-1.84,1.46-2.13s-.7-.35-1.32.4-2.2,2.11-2.34,2.4a1.31,1.31,0,0,1-.34.43s-.45.23-.81-.58a18,18,0,0,0-2.18-3c-.42-.46-1.14-.55-1-.08s.92,1.12,1.31,1.9a17.24,17.24,0,0,1,1,2.74,15.43,15.43,0,0,1,.11,2.68,16.73,16.73,0,0,0,.12,3.61l.22.54-.42.18s.48,2.54.59,4.12-.06,2,.58,2.91a15,15,0,0,1,1.29,2.6c.45.95,2.54,5,2.57,5.31s-.9.29-.36,1.41,1.73,1.82,1,2.68-1.59,1.3-1.87.67a2.69,2.69,0,0,1-.25-1.13,1.07,1.07,0,0,0-.2,1.38,1.87,1.87,0,0,0,1.34.9c.11,0-.95.69-.72,1.15l.22.46a.52.52,0,0,1,.05-.6c.26-.26,1.46-.46,1.62-.92s.4,1.73-.47,2-1.4.46-1.4.46a1.33,1.33,0,0,0,1.46.37,2.39,2.39,0,0,0,1.34-1.18,12.47,12.47,0,0,0,.69-1.67A5.9,5.9,0,0,0,58,35.45c.31.87.36,1.3,0,1.59s.75-.17.75-.92.14-.21.53.31a2.79,2.79,0,0,0,1.2.78,1.93,1.93,0,0,1-.69-1c-.12-.57.61.38.69.44s-.14-.81-.14-1a3.94,3.94,0,0,1,.56,1.5C61,37.82,62,39.78,62,41.6s-1.06,5-1.43,6.46c-.31,1.27-.67,4.58-.3,5.71s-.17,5.5-.28,6.4a54.85,54.85,0,0,0-.09,7.47,55.1,55.1,0,0,1,.76,6.57c-.09,1.19-.62,6.29-.62,7.47,0,.44,0,1.12,0,1.82a13.44,13.44,0,0,1-1-1.82,28.26,28.26,0,0,0-3.76-5.22c-1.6-2-4.68-5.38-4.8-5.59s.45-.54.66-1.27a3.3,3.3,0,0,0,0-2.78,17.15,17.15,0,0,1-1.55-2.68.24.24,0,0,0,.33-.26,1.52,1.52,0,0,0-.26-1c-.26-.47-.47-1.27-.71-1.83s0-.81-.09-1.51A29.81,29.81,0,0,0,47.73,54c-.62-1.81-1.11-2.44-1.11-2.8A66.9,66.9,0,0,0,44,43.94a8.86,8.86,0,0,0-3.08-3.17l-.92-.4L40,40s.3,0,.47,0,.56-.07.44-.61a1.53,1.53,0,0,1,0-1.15c.19-.54.3-.82.66-.92a5.63,5.63,0,0,0,2.58-2.33A4,4,0,0,0,44.63,32,11.72,11.72,0,0,0,44,28.89,10.11,10.11,0,0,0,40.45,25c-1.15-.56-2.48-1.68-4-1.64a6.31,6.31,0,0,0-2.35.32c-.17.11-.14-.05-.4-.19s-.4-.05-.4-.05.26-.23.19-.33-.4-.11-.4-.11.23-.19.23-.29-.27-.17-.36-.14a1.62,1.62,0,0,0,.64-.47,4.25,4.25,0,0,0,.73-2c-.09-.62-.31-1.4-.69-1.56s-3.75-.48-3.91,1.06A4.23,4.23,0,0,0,30,21.69c.1.17.82.46,1.1.71s-.1.43.35.69,0,.3.28.42-.58.19,0,.35S29.44,25.63,29.13,26s-1.71,2.94-1.43,4.63.23,3.46,1.22,4.15A2.4,2.4,0,0,1,30,37a5.49,5.49,0,0,1-2.32,2.47A16.71,16.71,0,0,0,24,41.76a10.78,10.78,0,0,0-3.48,5.87A53.21,53.21,0,0,1,18.76,56c-.59,1.53-.61,1.76-1,2.7s-.9,3.13-1.23,3.81-1,.54-.56,1l.66.69s-.9,1.22-1.34,1.85S13.75,68.21,13.87,69A4.71,4.71,0,0,0,15,71a.38.38,0,0,0,.57,0,2.1,2.1,0,0,0,.16-.32s.35,0,.42-.08a.74.74,0,0,0,.07-.32.79.79,0,0,0-.09-.55,6,6,0,0,1-.4-.84,2.93,2.93,0,0,1,.71-1.13,7.2,7.2,0,0,1,1.12-.66,9.06,9.06,0,0,1-.14,1.58c-.11.33.17,1.24.45,1.15s.54-.78.54-1.08a7.53,7.53,0,0,1,.4-1.7,5.68,5.68,0,0,0,.38-1.59c0-.29.49-.17.91-.5s1-.26.85-.7.12-.52,0-1.09,1-1,1-1.62,1.77-3.31,1.79-4.3a3.78,3.78,0,0,1,.38-1.81c.35-1.13,1.43-4.85,1.43-4.85s1.67,5.48,1.67,6.09.8,2.92.5,4.05-.71,1-.43,1.39.47.4.14.65-.54.22-.54.5.07.73.07.85-2.47,2.7-3.52,4-3.86,5.9-4.66,6.7A9.12,9.12,0,0,0,17.28,77l-3.76,6.25A6.22,6.22,0,0,0,12.76,85a.6.6,0,0,1-.28.57A3.09,3.09,0,0,1,11.94,87c-.4.42-.61.78-.75.92a2.64,2.64,0,0,1-.89.61c-.31.07-1.56,1.36-2,1.64a33.48,33.48,0,0,1-2.9,2,1.72,1.72,0,0,0-1,1.92c.26.87,1.72,1.23,3.08,1.09a9.87,9.87,0,0,0,3.32-.85c.42-.31-.22-.38,1.05-.52s3-.12,3.39-1.67.09-1.78-.07-2.14,2.42-3.62,2.87-4.25.7-.85,1.43-1.79A75.1,75.1,0,0,1,25,78.08c1-.79,4.21-3.94,5.67-4.41A15.8,15.8,0,0,1,36.84,73a19.51,19.51,0,0,1,5.72,2.42c2.49,1.46,8.2,5.11,9.38,6.09A46.81,46.81,0,0,1,55,85.12a29.48,29.48,0,0,1,3.5,3.62c.16.51-.17.35.21.7a4.42,4.42,0,0,1,.56.68,2,2,0,0,1,.29.47,4.42,4.42,0,0,0,0,2.12c-.44,1.37-.95,2.7-1,2.87-.17.35-.45,2.2,1.25,2.46s3-.24,3.66-2.46c.07-.22.13-.42.2-.63a5.24,5.24,0,0,0,1.12.58,5,5,0,0,0,3-.35c.54-.31,1.34-2.07.23-2.8s-1.93-.89-2.14-1.15-.53-.64-.85-1.11c0-.29,0-.56,0-.79,0-.52-.22.28,0-.87s-.5-1.12.2-1.38.36-1.1.3-1.42a19.53,19.53,0,0,1,.48-3.17c.08,0,0-.69.17-1.56s.61-3.66.72-4.15.73-4.09.73-4.67.81-4.36.81-4.36.53,3.84.53,4.33.36,6.57.42,8.62-1.06,4.65-.2,5.71-.5.58-.33,1-.25.35,0,1A2.2,2.2,0,0,1,69,89.64,29.62,29.62,0,0,0,69.72,94a19.55,19.55,0,0,0,2.62,4.38c.54.4,4.25,1.1,4.72,0A1.85,1.85,0,0,0,76.65,96a9.85,9.85,0,0,1-1.9-2,11.8,11.8,0,0,1-.9-2.16A5.6,5.6,0,0,1,73.66,90c.08-.26.22.12.42-.58a2.25,2.25,0,0,0,0-1.21c0-.17.78-5.54,1-6.69a39.76,39.76,0,0,0,.16-5.33c0-.75.65-3.81.65-4.71a15.61,15.61,0,0,1,.3-2.13c.09-.75.78-7.38.78-8.42s1.07-6.75,1.07-6.75a2.57,2.57,0,0,0,.44-1,2.68,2.68,0,0,0,.09-1.53c-.09-.29.71-1.38.49-2.39s.09-1.24-.21-2.14a60.45,60.45,0,0,1-.53-7.5c0-.92.39-1.06.3-.43l-.08.64a5.56,5.56,0,0,0,.5-1.94c0-.77,0-1.26,0-1.26a5.69,5.69,0,0,0,1.09,1.9c.51.32,1.82.35,1.87-.26a1.23,1.23,0,0,0-.22-.92s.17.46,0,.6-.28.52-.56.06a7.48,7.48,0,0,1-.58-1c0-.09.55.23.58.32s.11.17.11-.35-.19-.2-.3-.87.75.67,1.2,1a3.25,3.25,0,0,0,.84.43s-.42-.15-.81-1a2.38,2.38,0,0,1-.23-1.5l0-.32s1,.84.81,1.21,0,.38,0,.38.7-.23.42-1.3a5.19,5.19,0,0,0-1.26-2s1.76-1.15,2.43-1.5,1.23.35,2-.84S87.54,28.24,88,27.9s3-2.74,4-3.49a13.56,13.56,0,0,0,2.64-4.92c.17-1,.92-3.4,1-4.07A34.39,34.39,0,0,0,95.49,10.78Z"/></g></symbol><symbol id="pupil-experience" viewBox="0 0 100 100"><title>pupil-experience</title><path d="M90.63,13.51A27.78,27.78,0,0,0,71.15,6.17Q56,6.17,50,19.16q-6-13-21.15-13A27.78,27.78,0,0,0,9.37,13.51,24.78,24.78,0,0,0,1,32.51C1,67.18,47.61,93.1,50,93.83c2.39-.73,49-26.65,49-61.32A24.78,24.78,0,0,0,90.63,13.51ZM82.35,25.44c0,.42-.51,2-.61,2.59a8.6,8.6,0,0,1-1.68,3.13c-.59.48-2.23,2-2.53,2.23s-.53,1-1,1.78-.81.31-1.24.53-1.55,1-1.55,1a3.3,3.3,0,0,1,.8,1.28c.18.68-.27.83-.27.83s-.1,0,0-.24-.51-.77-.51-.77l0,.2a1.54,1.54,0,0,0,.14,1c.25.53.52.62.52.62a2,2,0,0,1-.54-.27c-.28-.21-.83-1.05-.76-.63s.19.22.19.55,0,.28-.07.22-.37-.25-.37-.2a4.31,4.31,0,0,0,.37.62c.18.3.25.06.36,0s0-.39,0-.39a.79.79,0,0,1,.14.59c0,.39-.87.37-1.19.17A3.65,3.65,0,0,1,71.86,39s0,.32,0,.81A3.44,3.44,0,0,1,71.55,41l.06-.4c0-.41-.2-.31-.2.27a38.14,38.14,0,0,0,.34,4.78c.19.57,0,.72.13,1.36s-.36,1.34-.31,1.52a1.78,1.78,0,0,1,0,1,1.63,1.63,0,0,1-.29.6s-.67,3.64-.67,4.3-.45,4.89-.5,5.37a8.56,8.56,0,0,0-.2,1.35c0,.57-.41,2.52-.41,3a25.27,25.27,0,0,1-.1,3.4c-.16.73-.68,4.15-.66,4.26a1.36,1.36,0,0,1,0,.77c-.12.44-.21.2-.26.37a3.43,3.43,0,0,0,.12,1.17,7.25,7.25,0,0,0,.57,1.38,6.45,6.45,0,0,0,1.21,1.31,1.18,1.18,0,0,1,.27,1.52c-.31.7-2.67.26-3,0a12.5,12.5,0,0,1-1.67-2.79,18,18,0,0,1-.48-2.79,1.44,1.44,0,0,0-.06-.85c-.14-.39.13-.37,0-.61s.77.08.21-.6.16-2.33.13-3.64-.27-5.18-.27-5.49-.34-2.76-.34-2.76-.51,2.41-.51,2.78-.39,2.66-.46,3-.38,2.1-.47,2.65,0,1-.1,1a11.64,11.64,0,0,0-.31,2c0,.2.25.74-.19.9s0,.15-.13.88,0,.22,0,.55a4.77,4.77,0,0,1,0,.51c.21.3.42.56.54.71s.66.27,1.37.73.19,1.59-.15,1.78a3.18,3.18,0,0,1-1.92.23A4.45,4.45,0,0,1,62,76.1c-.05.13-.09.26-.13.4a1.86,1.86,0,0,1-2.33,1.56c-1.08-.16-.91-1.34-.8-1.56s.38-1,.66-1.83a2.85,2.85,0,0,1,0-1.35,1.27,1.27,0,0,0-.17-.3,2.83,2.83,0,0,0-.36-.43c-.24-.23,0-.12-.14-.45a19.14,19.14,0,0,0-2.23-2.31c-.35-.31-1.2-1.67-2-2.3s-4.39-3-6-3.88a12.3,12.3,0,0,0-3.64-1.55,10.21,10.21,0,0,0-3.91.44c-.93.3-3,2.3-3.61,2.81A46.86,46.86,0,0,0,33.9,69c-.47.6-.63.73-.91,1.14s-1.94,2.48-1.83,2.71.27.37,0,1.36-1.34,1-2.15,1.06-.41.14-.68.33a6,6,0,0,1-2.11.54c-.87.09-1.8-.13-2-.69a1.08,1.08,0,0,1,.61-1.22c.33-.12,1.56-1.07,1.85-1.25s1.07-1,1.27-1a1.64,1.64,0,0,0,.57-.39c.09-.09.22-.31.48-.58a2,2,0,0,0,.34-.87.36.36,0,0,0,.18-.36,4.14,4.14,0,0,1,.48-1.14l2.4-4a5.82,5.82,0,0,1,.94-1.32c.51-.51,2.29-3.41,3-4.27s2.24-2.5,2.24-2.57,0-.36,0-.54.13-.15.34-.32.09-.19-.09-.42.08-.16.27-.88a9.43,9.43,0,0,0-.31-2.58c0-.38-1.07-3.87-1.07-3.87S37,50.24,36.82,51a2.38,2.38,0,0,0-.24,1.15c0,.63-1.12,2.39-1.14,2.75s-.73.67-.66,1-.1.4,0,.69-.27.24-.54.45-.6.13-.58.31a4,4,0,0,1-.24,1,4.76,4.76,0,0,0-.25,1.08c0,.19-.17.63-.35.69s-.36-.53-.28-.74a6.44,6.44,0,0,0,.09-1,4.64,4.64,0,0,0-.72.42,1.9,1.9,0,0,0-.45.72,4,4,0,0,0,.25.54.44.44,0,0,1,.06.34.55.55,0,0,1,0,.21c-.05.08-.27.05-.27.05a1.46,1.46,0,0,1-.11.21c-.06.09-.22.1-.36,0a3.09,3.09,0,0,1-.69-1.29c-.07-.51.65-1.45.93-1.85l.86-1.19s-.14-.13-.42-.43.15-.21.36-.65.55-1.82.78-2.42.24-.75.61-1.72A34.29,34.29,0,0,0,34.54,46a6.92,6.92,0,0,1,2.22-3.75,11.38,11.38,0,0,1,2.35-1.48,3.45,3.45,0,0,0,1.48-1.57,1.52,1.52,0,0,0-.7-1.42c-.63-.44-.59-1.57-.77-2.64a5.18,5.18,0,0,1,.9-3c.2-.21,2-1.23,1.65-1.33s.23-.15,0-.23.11-.1-.18-.27,0-.27-.22-.43-.64-.35-.7-.45a2.76,2.76,0,0,1-.17-1.35c.1-1,2.25-.78,2.49-.68s.38.61.44,1a2.85,2.85,0,0,1-.46,1.3,1,1,0,0,1-.4.29c.07,0,.22.05.22.1s-.15.18-.15.18.21,0,.26.07-.12.21-.12.21.09-.06.25,0,.15.2.25.12a4.31,4.31,0,0,1,1.5-.2,5.81,5.81,0,0,1,2.53,1A6.39,6.39,0,0,1,49.46,34,7.08,7.08,0,0,1,49.9,36a2.61,2.61,0,0,1-.28,2A3.59,3.59,0,0,1,48,39.43c-.23.06-.3.24-.42.58a1,1,0,0,0,0,.74c.08.34-.18.39-.28.39a2.57,2.57,0,0,1-.3,0l0,.22.58.26a5.48,5.48,0,0,1,2,2,42.57,42.57,0,0,1,1.7,4.64c0,.23.3.63.7,1.78a18.63,18.63,0,0,1,.69,3.54c0,.45-.09.6.06,1s.28.86.45,1.16a1,1,0,0,1,.16.62.15.15,0,0,1-.21.16,11.07,11.07,0,0,0,1,1.71A2.07,2.07,0,0,1,54,60c-.13.46-.49.67-.42.81s2,2.3,3.06,3.56a18,18,0,0,1,2.4,3.33,8.49,8.49,0,0,0,.65,1.15c0-.45,0-.87,0-1.15,0-.76.34-4,.39-4.76a36.42,36.42,0,0,0-.48-4.19,35.12,35.12,0,0,1,.05-4.76,17.62,17.62,0,0,0,.18-4.08,10.47,10.47,0,0,1,.2-3.63,20.7,20.7,0,0,0,.9-4.12,11.28,11.28,0,0,0-.72-2.83,2.62,2.62,0,0,0-.36-1c0,.11.14.66.09.62s-.52-.64-.45-.27a1.32,1.32,0,0,0,.45.64,1.72,1.72,0,0,1-.77-.5c-.25-.33-.33-.68-.33-.2s-.7.77-.48.59.17-.46,0-1a3.76,3.76,0,0,1-.22-1,7.6,7.6,0,0,1-.44,1.06,1.51,1.51,0,0,1-.85.76.85.85,0,0,1-.93-.24s.34-.13.89-.29.41-1.57.3-1.27-.87.42-1,.59a.33.33,0,0,0,0,.36v0h0v0l-.13-.27c-.14-.3.54-.74.46-.74a1.17,1.17,0,0,1-.85-.57.68.68,0,0,1,.13-.88,1.7,1.7,0,0,0,.16.72c.17.4.74.13,1.19-.42s-.32-1-.66-1.71.25-.7.23-.9S55.24,30.61,55,30a9.77,9.77,0,0,0-.81-1.66c-.41-.58-.31-.84-.38-1.85s-.37-2.63-.37-2.63l.27-.11-.15-.35a10.79,10.79,0,0,1-.07-2.29,9.69,9.69,0,0,0-.07-1.71,11,11,0,0,0-.66-1.75c-.25-.49-.75-.92-.83-1.21s.37-.24.64.06a11.64,11.64,0,0,1,1.38,1.91c.24.51.52.36.52.36a.81.81,0,0,0,.21-.27c.09-.19,1.11-1.05,1.5-1.53s.78-.44.83-.25-.57,1-.92,1.36a7.69,7.69,0,0,0-.84,1.08A7,7,0,0,1,56,19a.57.57,0,0,1,.68.42c.09.28,0,.33-.08.34a1.21,1.21,0,0,1,.34.05c.18,0,.2.11.31.37s-.36.25-.64.14S56,20.68,56,21a5,5,0,0,1-.37,1.69c-.28.69.16.9.16.9a4.29,4.29,0,0,1,.66.12c.19.08.27,1.73.27,1.73a3.15,3.15,0,0,0,.62.41c.32.14.16.18.25.84s.09.37.33.88a17.74,17.74,0,0,1,.86,2c.21.64.37.58.53.82a.59.59,0,0,0,.41.26,4.14,4.14,0,0,1,.55-.33c.22-.09,0-.26.34-.7a2.83,2.83,0,0,0,.45-1.71c0-.8.37-.91.37-1.29s.72-1.32,1-2,2.35-1.18,2.35-1.18A3.49,3.49,0,0,1,67,24a5.21,5.21,0,0,1,1.52,1.73c.13.25.3,1,.5,1.07a3,3,0,0,1,.68,1,11.85,11.85,0,0,1,.46,2.14c0,.42.11.25.61.65s.64.92,1,1.33a1.82,1.82,0,0,0,.83.55l.69-.19a6.42,6.42,0,0,0,.7-.43c.14-.13,1.38-.63,1.57-.75a1.82,1.82,0,0,0,.67-.72,3.71,3.71,0,0,1,1.61-1.16c.47-.12.52-.31.58-.55s1.15-.46,1.26-.65a4.28,4.28,0,0,0,.17-.91,1.33,1.33,0,0,0-.5-.59,3.11,3.11,0,0,1-.92-1.2c0-.18.1-.22.26-.23s.61.48.8.72a1.56,1.56,0,0,0,.84.41c.07,0,0-.35,0-.5a4.23,4.23,0,0,0-.72-1.05,3.31,3.31,0,0,1-.78-1.19c0-.24.23-.26.37-.19s1.38,1.54,1.41,1.6a5.45,5.45,0,0,0,.47.43l0-.06c0-.06,0-.8-.06-.84a7.56,7.56,0,0,0-.32-.88,5.24,5.24,0,0,1-.43-1.19.23.23,0,0,1,.34-.22,4.39,4.39,0,0,1,.7,1.1c.07.16.45.93.45.93s.06-.67.06-.92a7.8,7.8,0,0,1,.11-1.08c.07-.44.31-.11.42.34A21,21,0,0,1,82.35,25.44Z"/></symbol><symbol id="quotes" viewBox="0 0 100 100">
<g>
	<path d="M61.5,44.6V8.3h33.5V37c0,15.5-1.9,26.8-5.6,33.7C84.7,80,77,87,66.5,91.7
		l-7.6-12.2C65.3,76.8,70,72.9,73,67.6s4.7-12.9,5-23H61.5z M7.8,44.6V8.3h33.5V37c0,15.5-1.9,26.8-5.6,33.7
		c-4.8,9.3-12.5,16.3-23,21L4.9,79.5C11.4,76.9,16,72.9,19,67.6s4.7-12.9,5-23H7.8z"/>
</g>
</symbol></svg>