<?xml version="1.0" encoding="utf-8"?>
<!-- Generator: Adobe Illustrator 22.1.0, SVG Export Plug-In . SVG Version: 6.00 Build 0)  -->
<svg version="1.1" id="Layer_1" xmlns="http://www.w3.org/2000/svg" xmlns:xlink="http://www.w3.org/1999/xlink" x="0px" y="0px"
	 viewBox="0 0 612 195.8" style="enable-background:new 0 0 612 195.8;" xml:space="preserve">
<style type="text/css">
	.st0{fill:#F9ED32;}
	.st1{fill:#EE2A7B;}
	.st2{fill:#FBB040;}
	.st3{fill:#27AAE1;}
	.st4{fill:#009444;}
	.st5{fill:#D7DF23;}
	.st6{fill:#F15A29;}
</style>
<title>kids-carefree--lines</title>
<path class="st0" d="M484.5,84.2c-19.5-0.8-60.8,2.2-100.8,5.1c-39.5,2.9-80.3,5.8-99.2,5C249,92.9,146.4,89.6,97.6,92
	c-44.3,2.1-90.4,1.6-96.9,1.5v1.6c6.5,0.1,52.7,0.6,96.9-1.6c48.7-2.4,151.3,0.9,186.7,2.3c2.1,0.1,4.5,0.1,7,0.1
	c20.9,0,57.2-2.6,92.3-5.1C423.7,88,465,85,484.4,85.8c36,1.4,116.6,2.2,126.8,2.3v-1.6C601,86.4,520.5,85.7,484.5,84.2z"/>
<path class="st1" d="M561.1,101.3c-17.3,1.6-31.9-1.9-54-7.1c-12.9-3.1-27.5-6.5-46.5-10c-38.4-6.9-50.9-1.9-65.4,3.9
	c-5.8,2.5-11.8,4.5-17.9,6.1c-26,6.7-45.2,6.5-70.9-0.8c-15-4.2-29.7-1.2-45.3,2c-10,2.1-20.4,4.2-30.9,4.2
	c-14.2,0-26.9-3.5-40.3-7.2c-11.7-3.2-23.8-6.6-38.7-8.3c-22.7-2.7-33.2,0.2-54.1,6.1c-9.2,2.6-20.7,5.8-36.1,9.4
	c-45.8,10.6-58.7,0.4-60.3-1.1v2c2.6,1.9,9.4,5.4,24.4,5.4c8.9,0,20.7-1.2,36.2-4.8s27-6.8,36.2-9.4c20.7-5.8,31.1-8.8,53.5-6.1
	c14.8,1.8,26.8,5.1,38.4,8.3c13.5,3.7,26.3,7.2,40.7,7.2c10.6,0,21.1-2.1,31.2-4.2c15.4-3.1,29.9-6.1,44.5-2
	c26,7.3,45.5,7.5,71.7,0.8c6.2-1.6,12.2-3.7,18.1-6.2c14.3-5.7,26.6-10.7,64.5-3.9c19,3.4,33.6,6.9,46.5,9.9
	c22.2,5.3,36.9,8.8,54.5,7.1c25-2.3,42.7-7.7,50-10.3v-1.6C604.4,93.3,586.5,98.9,561.1,101.3z"/>
<path class="st2" d="M595.3,65.3c-1.7-4-3.5-8.3-5.3-12.8c-9.7-24-20.8-51.2-34.4-51.2c-16,0-31,27.6-44.5,82
	c-2.6,10.5-4.9,21.2-7.2,31.5c-9.3,42.7-17.4,79.5-38.1,79.5c-18.5,0-44-49.9-71.8-140.5c-7-22.8-15.8-35.3-26.3-37.4
	c-7.4-1.5-15.2,2.5-22.7,11.5c-7.2,8.8-15.1,24.3-23.4,40.7c-7.8,15.4-15.9,31.3-23.5,41.5c-5,6.6-10.5,10.3-17,11.1
	c-12.4,1.6-26-7.7-36.6-15.9c-9.2-7.2-18.4-11.2-27.3-11.7c-8.5-0.5-16.7,2.1-24.4,7.8c-5,3.7-9.7,9-14.6,14.6
	c-9.6,11-19.6,22.4-33.3,22.4c-16.3,0-38.5-45.4-53.9-87.8C84.9,33.2,69.9,7.5,57.7,7.5c-11.6,0-25.6,16.6-35.8,42.3
	c-8.6,21.6-18.4,52.5-21.1,61.2v4.9c0.1-0.4,12.5-40.3,22.6-65.6C33.2,25.7,47,9,57.7,9c10,0,24.7,21.8,32,42.1
	C97.3,72,123.7,140,145.1,140c14.4,0,24.6-11.7,34.5-22.9c4.9-5.6,9.5-10.8,14.4-14.4c15.4-11.3,32.2-10,49.8,3.9
	c9.9,7.8,22.6,16.5,34.6,16.5c1,0,2.1-0.1,3.1-0.2c6.8-0.9,12.9-4.9,18-11.8c7.7-10.3,15.8-26.3,23.6-41.7
	c8.3-16.3,16.1-31.8,23.2-40.4c4.9-6,12.6-12.7,21.2-11c9.7,1.9,18.4,14.5,25.1,36.3C403.3,89.5,414,119,424.1,142
	c15.9,35.7,29.9,53.8,41.7,53.8c22,0,30.1-37.4,39.6-80.7c2.3-10.3,4.6-21,7.2-31.5c13.1-52.9,28-80.8,42.9-80.8
	c12.6,0,23.5,26.7,33,50.2c1.8,4.5,3.6,8.8,5.3,12.9c4.8,11.5,10.6,22.5,17.4,32.9V96C605.1,86.2,599.7,76,595.3,65.3z"/>
<path class="st3" d="M595.7,57.9c-7.3,3.1-16.6,14.1-27.5,26.9c-16.5,19.4-36.9,43.6-55.2,43.6c-16.4,0-34.2-18.9-51.4-37.1
	c-13.9-14.7-27-28.6-38.3-31.1c-15-3.3-29.3,8.6-44.4,21.1c-10.1,8.4-20.5,17-31.2,20.8c-15.3,5.4-23.5,1.4-33.9-3.6
	c-7.4-3.6-15.8-7.7-28.5-9.6c-17-2.5-26.7,2.8-38,8.9c-9.6,5.2-20.5,11.1-38.1,13.6c-21.2,3-37.1-12.9-52.6-28.2
	c-12.3-12.2-23.9-23.8-37.2-24.5c-20.3-1.1-35.1,16.9-50.6,36c-7.6,9.2-15.4,18.8-24.3,27c-10.1,9.3-19.8,13.8-28.8,13.3
	c-5.6-0.4-10.9-2.8-14.9-6.8v2.2c4,3.7,9.3,5.9,14.8,6.2c0.5,0,1,0,1.4,0c9,0,18.6-4.6,28.5-13.7c9-8.3,16.9-17.9,24.5-27.2
	C86,76,99.8,59.1,119.3,60.1c12.8,0.7,24.1,12,36.2,24c15.7,15.6,31.9,31.7,53.9,28.7c18-2.5,29-8.5,38.7-13.8
	c11-6,20.6-11.2,37.1-8.7c12.5,1.9,20.8,5.9,28.1,9.4c10.7,5.2,19.2,9.3,35.1,3.7c10.9-3.9,21.5-12.6,31.7-21.1
	c14.8-12.3,28.8-23.9,43.1-20.8c10.8,2.4,23.8,16.1,37.5,30.7C478,110.9,496,130,513.1,130c19,0,38.8-23.4,56.3-44.1
	c10.7-12.6,19.9-23.5,26.9-26.5c9.3-4,12.8-3.2,14.1-2.4c0.3,0.2,0.6,0.5,0.8,0.8v-2.1C608.5,53.9,603.3,54.7,595.7,57.9z"/>
<path class="st4" d="M597.2,72.7c-4.5,2.9-8.7,7.7-13.5,13.3c-11,12.9-24.7,28.9-52,31.5c-21.8,2.1-38.2-9.7-55.6-22.3
	c-13.6-9.8-27.7-20-45-23.5c-18.3-3.7-32.7,4.2-47.8,12.6c-17.3,9.6-35.3,19.5-61.5,13.7c-31.8-7-53.2-2.9-73.9,1.1
	c-11.6,2.2-22.6,4.3-34.8,4.3c-16.1,0-25.1-4.1-34.6-8.5c-10.5-4.8-21.3-9.8-42.1-9.3c-26.2,0.5-45.6,10.3-64.3,19.7
	c-9.7,4.9-19.7,9.9-30.5,13.6c-16.1,5.5-27,3.2-33.3,0.3c-2.7-1.3-5.3-2.9-7.5-5v2.1c2,1.7,4.3,3.2,6.7,4.3
	c4.9,2.2,10.3,3.3,15.7,3.2c6.4-0.1,12.8-1.2,18.9-3.4c10.9-3.7,21-8.8,30.7-13.7c18.6-9.4,37.8-19.1,63.6-19.6
	c20.5-0.4,31.2,4.5,41.5,9.2c9.7,4.4,18.8,8.6,35.2,8.6c12.4,0,23.4-2.1,35.1-4.3c20.5-3.9,41.7-8,73.2-1.1
	c26.8,5.9,45-4.2,62.5-13.9c14.9-8.2,29-16,46.8-12.4c16.9,3.4,30.9,13.5,44.4,23.2c16.2,11.7,31.6,22.8,51.3,22.8
	c1.8,0,3.5-0.1,5.3-0.3c27.9-2.7,41.9-19,53.1-32.1c4.7-5.5,8.8-10.3,13.2-13c6.9-4.4,11-5.8,13.2-6.1v-1.5
	C608.5,66.7,604.2,68.3,597.2,72.7z"/>
<path class="st2" d="M568.5,96c-15.3,9-46.5,20.9-82.9,0c-33.5-19.2-53.9-27.8-72.7-21l-2.4,0.9c-19.7,7.1-52.6,19-92.6,13.8
	c-24.6-3.2-39.5,1.7-55.2,6.9c-11.5,3.8-23.4,7.8-40.3,9.4c-22.4,2.1-43-10.1-61.1-20.9c-15-8.9-29.1-17.3-41.9-16.3
	C104.9,70,90.2,80.8,75.9,91.3c-13.4,9.9-27.3,20.1-40.4,21.6c-17.2,2-28.8-4.7-34.8-9.7v2c8.2,6.3,18.3,9.7,28.7,9.6
	c2.1,0,4.2-0.1,6.3-0.4c13.5-1.5,27.6-11.9,41.1-21.9c14-10.4,28.6-21.1,42.6-22.2c12.3-1,26.3,7.3,41,16.1
	c17,10.1,36,21.4,56.8,21.4c1.8,0,3.5-0.1,5.3-0.2c17.1-1.6,29.1-5.6,40.7-9.4c16.2-5.4,30.2-10,54.5-6.9c6.6,0.9,13.3,1.3,20,1.3
	c31.3,0,56.9-9.3,73.3-15.2l2.3-0.9c18.3-6.6,38.4,1.9,71.4,20.9c14.6,8.4,29.9,12.4,45.5,11.7c13.8-0.7,27.2-4.7,39-11.7
	c13.1-7.6,27.3-13.5,41.9-17.4v-1.6C596.2,82.3,581.9,88.2,568.5,96z"/>
<path class="st5" d="M533.2,96.6c-4.5,0-8.9-0.2-13.3-0.5c1.8-5.2,3.6-10.4,5.5-15.5c16.2-44.3,33.2-66.2,47.9-61.5
	c10.5,3.3,17,18.1,25.2,36.9c3.1,7,6.2,14.2,10,21.7c1.1,2.2,2,3.9,2.7,5.2v-3.3c-0.4-0.8-0.8-1.6-1.3-2.6
	c-3.7-7.4-6.9-14.6-9.9-21.6c-8.4-19.1-15-34.2-26.2-37.7c-15.8-5-33,16.6-49.8,62.5c-2,5.3-3.8,10.7-5.7,16
	c-13.8-1.1-27.5-3.4-43.7-6.3c-9.8-1.7-20.8-3.6-33.5-5.5c-7.5-1.1-15.2-1.4-22.7-0.7C407.6,55.2,397,30,382.3,25.3
	c-18-5.8-35.8,26.3-51.5,54.6c-1.8,3.2-3.5,6.3-5.2,9.3c-1.3,2.3-2.7,4.6-4.2,6.7c-22.7-3.1-45.7-2.7-68.3,1.4
	c-16.2-8.5-32.3-6.9-49.9,5.3c-13.1-1.9-22.5-7.3-31.7-12.5c-9.6-5.5-19.5-11.1-33.4-12.9c-7.4-1-15-0.6-22.2,1.4
	c-1.9-4.1-3.8-8.4-5.7-12.6c-9.3-20.8-18.9-42.3-30.8-46.1c-9.2-2.9-17.8,1.3-26.2,13c-7.8,10.8-14.8,26.9-21.3,42.5
	c-4.3,10.3-9.1,21.3-13.6,31.6c-8.2-1.1-13.1-3.5-16-5.9c-0.5-0.4-1-0.8-1.5-1.3v2.1c0.1,0.1,0.2,0.2,0.4,0.3c3,2.5,8.1,5,16.4,6.2
	c-7.3,16.6-13.9,31.1-16.8,37.3v3.7c0.8-1.8,9-19.6,18.4-40.8c8.4,0.8,16.8,0.7,25.1-0.4c21.8-2.6,35.9-10.4,48.5-17.4
	c7.5-4.2,14.5-8,22.3-10.4c4.2,8.8,8.5,17,13,22.8c10,12.7,21.1,24.6,34.4,25.6c8.6,0.6,17.2-3.4,26.4-12.3
	c4.6-4.5,9.4-8.6,14.6-12.3c9.1,1.2,20,0.9,33.8-2.2c5.4-1.2,10.6-2.2,15.4-3.1c2.5,1.3,4.9,2.8,7.2,4.5
	c13.9,10,26.8,13.8,38.4,11.2c8.9-2,16.9-7.7,23.7-17c2.5,0.3,5,0.7,7.4,1c5.3,0.7,10.4,1.4,15.4,1.9c11,1,22.4-2.6,35.5-6.7
	c11.2-3.5,23.4-7.3,37-8.6c0.9,2.5,1.9,5,2.8,7.5c2.7,7.3,5.6,14.8,8.5,22.1c8.7,21.8,16.1,36.6,23.2,46.7c8,11.2,15.8,16.7,24,16.7
	c0.5,0,1.1,0,1.6-0.1c14.7-1.3,25.6-32.9,38.1-69.5l3.7-10.9c4.6,0.3,9.2,0.5,13.9,0.5c29.6,0,66.5-8.1,78-10.8v-1.6
	C600.2,88.4,563,96.6,533.2,96.6z M92,89.5c-12.4,6.9-26.4,14.6-47.9,17.2c-8,1.1-16.2,1.3-24.3,0.5C24.3,97,29,86.2,33.3,76
	c14-33.4,27-60.5,45.5-54.6c11.3,3.6,20.8,24.8,29.9,45.3c1.8,4.1,3.7,8.3,5.6,12.4C106.5,81.4,99.5,85.3,92,89.5z M187.8,115.4
	c-8.8,8.6-17.1,12.4-25.2,11.9c-12.7-0.9-23.5-12.5-33.3-25c-4.4-5.6-8.7-13.6-12.7-22.3c7-1.8,14.2-2.3,21.3-1.3
	c13.6,1.7,23.4,7.3,32.8,12.7c9,5.1,18.1,10.3,30.6,12.5C196.5,107.4,192,111.3,187.8,115.4L187.8,115.4z M237,100.5
	c-12.7,2.9-22.9,3.4-31.5,2.4c15.9-10.4,30.4-12,45-5.2C246.2,98.6,241.7,99.5,237,100.5z M298.1,113.1
	c-11.1,2.5-23.7-1.2-37.2-10.9c-1.9-1.4-3.7-2.6-5.6-3.6c21.5-3.6,43.4-4,65.1-1.1C313.8,106,306.4,111.3,298.1,113.1z M379.9,92.3
	c-13,4.1-24.2,7.6-34.9,6.6c-5-0.5-10-1.1-15.3-1.9c-2.1-0.3-4.3-0.6-6.6-0.9c1.3-1.9,2.6-4,3.9-6.2c1.7-3,3.5-6.2,5.2-9.3
	c15.4-27.8,32.9-59.2,49.7-53.9c13.9,4.4,24.3,29,34.9,56.8C403.2,85,391.1,88.8,379.9,92.3L379.9,92.3z M514.2,108
	c-12.4,36.1-23.1,67.2-36.8,68.4c-19,1.6-34.6-30.6-47.3-62.3c-2.9-7.3-5.7-14.8-8.5-22c-0.9-2.4-1.8-4.7-2.7-7.1
	c7.3-0.6,14.7-0.4,21.9,0.7c12.6,1.9,23.7,3.8,33.4,5.5c16.1,2.8,29.8,5.2,43.5,6.3C516.6,101.1,515.4,104.6,514.2,108z"/>
<path class="st6" d="M577,103.2c-17.2-2.9-28.2-11.2-38-18.6c-8.5-6.4-16.6-12.5-27.3-13.8c-11.9-1.4-24.3,5.9-38.7,14.3
	c-13.3,7.8-28.4,16.7-46.1,20.3c-25.5,5.3-43.8-4-59.9-12.3c-6.8-3.5-13.2-6.8-19.4-8.4c-21.2-5.6-57.3-4.6-86.5,10.9
	c-28.3,15-77,17.3-106.4,4.9S74.3,86.5,43.9,91.9c-26,4.7-39.2,0-43.1-1.9v1.7C5.6,94,18.9,98,44.2,93.5C74.3,88,124.8,89.7,154,102
	c12.3,5.2,29.1,8,46.9,8c2.1,0,4.2,0,6.3-0.1c21-0.8,40.4-5.4,54.6-12.9c28.9-15.3,64.5-16.3,85.4-10.7c6,1.6,12.4,4.9,19.1,8.3
	c15.5,7.9,34.9,17.8,60.9,12.4c18-3.7,33.2-12.7,46.6-20.5c14.2-8.3,26.4-15.5,37.7-14.1c10.2,1.2,17.8,6.9,26.5,13.5
	c9.9,7.5,21.1,16,38.7,18.9c23.5,3.9,31.7,4.3,34.5,4.2v-1.5C609,107.5,601.4,107.2,577,103.2z"/>
</svg>
