<?xml version="1.0" encoding="utf-8"?>
<!-- Generator: Adobe Illustrator 22.1.0, SVG Export Plug-In . SVG Version: 6.00 Build 0)  -->
<svg version="1.1" id="about" xmlns="http://www.w3.org/2000/svg" xmlns:xlink="http://www.w3.org/1999/xlink" x="0px" y="0px"
	 viewBox="0 0 95 95" style="enable-background:new 0 0 95 95;" xml:space="preserve">
<path d="M71.7,52.7l-7.5,4.1l-2.6,1.4l-2.2,1.2l-2,1.1l-3.7,2l-4.4,2.4l-1.9,1l-0.6-0.3c-0.3-0.2-1.3-0.7-2.1-1.2l-3.1-1.7l-2.9-1.6
	l-3.5-1.9l-8.4-4.6l-4.2-2.3l-1.1-0.6c-0.1-0.1-0.2-0.1-0.3,0c-0.1,0.1-0.1,2.5-0.1,7.5v7.4l1.9,1.1l3.2,1.7l2.5,1.4l4,2.2l3.8,2
	l1.3,0.7c0,0.1,0.7,0.4,1.4,0.8c0.7,0.4,2.1,1.1,3,1.7l3.4,1.9c0.6,0.4,1.2,0.6,1.8,0.8c0.4-0.1,2.7-1.4,5.7-3.1
	c2.5-1.4,3-1.7,5.6-3.1c1-0.5,3-1.7,4.5-2.4c1.5-0.7,2.7-1.4,2.7-1.4s2-1,5.6-3.1l1.9-1c0.2-0.1,0.2-0.5,0.2-7.6
	c0-4.3-0.1-7.5-0.1-7.5C73.6,51.7,72.7,52.1,71.7,52.7z M90.5,37.1l-4.2-2.3l-4-2.2l-2.1-1.1L75.2,29c-2.1-1.1-4-2.1-4.2-2.2
	L69.6,26l-10.2-5.5c-1.9-1-3.5-1.8-7.9-4.2c-2.1-1.1-3.9-2-4.1-2c-0.5,0.2-1,0.4-1.4,0.6c-1.1,0.6-3.5,2-6.3,3.4l-4.9,2.7l-4.4,2.4
	l-5.2,2.8c-5.4,2.9-6.3,3.4-7.9,4.2l-4,2.2l-5.4,2.9C3.3,37.8,2,38.6,2,38.7c0,0.1,0.3,0.3,0.7,0.5l6.6,3.6l4.6,2.5l0.8,0.4v9.9v9.9
	l-1.3,0.3l-5.3,1.4c-0.5,0.1-0.9,0.2-1.3,0.5c0,0.4,2.3,8.8,2.4,9c0.1,0.1,0.2,0.1,0.3,0.1l1.8-0.5l3.4-0.9l2.6-0.7
	c0.3-0.1,0.7-0.2,1-0.3c0,0,0-6.1,0-13.4V47.6l0.5,0.3c0.3,0.1,1,0.5,1.6,0.9l2.8,1.5c1,0.5,1.9,1,2.2,1.1c0.5,0.3,6.3,3.4,8.4,4.5
	l6.2,3.3c6.2,3.3,7.1,3.8,7.3,3.8c0.8-0.3,1.5-0.7,2.3-1.1l3.3-1.8c1.3-0.6,1.3-0.6,7.2-4l5.4-2.8l5.3-2.8l7-3.7l4.9-2.7l3.2-1.7
	c4.6-2.4,7-3.7,6.9-3.9C92.2,38,91.4,37.5,90.5,37.1z M49.4,40.7c-3,0.8-6.4-0.3-7-2.4c-0.2-0.6-0.1-1.3,0.2-1.8
	c1.1-2.3,5.9-2.9,8.4-1.2C53.6,37,52.7,39.8,49.4,40.7z"/>
</svg>
