<svg id="community_bg" data-name="community bg" xmlns="http://www.w3.org/2000/svg" xmlns:xlink="http://www.w3.org/1999/xlink" viewBox="0 0 1016 206.36"><defs><linearGradient id="linear-gradient" x1="508" y1="1.49" x2="508" y2="205.36" gradientUnits="userSpaceOnUse"><stop offset="0" stop-color="#017cc0"/><stop offset="1" stop-color="#02659b"/></linearGradient></defs><title>community</title><g id="people"><path d="M128.6,51.38a.85.85,0,0,0,.28-.11ZM67.94,23.77c-.09.12-.14.21-.12.2A1.36,1.36,0,0,0,67.94,23.77Zm229,143-2-1.44s1,1.17,2.17,2.52A.73.73,0,0,0,297,166.79Zm718.4,23.14h.63l-.72-8.84c-.4-3.87-.88-8.2-1.2-10.14a18.14,18.14,0,0,0-2.55-6.68s0,2.63.1,5.27a14.83,14.83,0,0,0-.89-1.46s0,3.78.18,7c-1.82-1.15-4.26-3.18-3.86-5.65l.64-3.89a22.44,22.44,0,0,0-1.79,4.57c-.27.52-.65,1.31-1,2.22l-.48-.64a22,22,0,0,0-2.45-2.91c-1.12-1-4-2.17-6.18-3-.11-.95-.27-2.27-.27-2.27A38.42,38.42,0,0,1,997,157c.78-1.65,1.91-3.5,1.81-6.49s-.42-5.61-.42-5.61,1-2.27,1.28-3.13,1.37-4.24,1-6.38-1-4.67-1-4.67.29-3.83-.84-4.87a23,23,0,0,0-1.78-1.54s-2.58-3.67-2.8-4a8.44,8.44,0,0,1-.46-.94,5,5,0,0,0,2.54-1.55c.64-1,.58-.8.58-.8l-.27.86a2.8,2.8,0,0,0,.71-1.15c.25-.76.3.25.3.25a9.85,9.85,0,0,0,.82-3.8c-.2-1.38-1.73-8.36-3.25-10.56s-3.88-4.49-6.5-5a33.65,33.65,0,0,0-4.48.29c-.55-2.09-1.44-4.21-1.93-6.14-.8-3.1-3.71-8.29-4.49-10.35s-3.76-6-4.27-7.1-2.37-4.54-2.37-4.54a9,9,0,0,0,1.62-1.93c1-1.46.3-1.76-.2-2.92a29.54,29.54,0,0,0-2.83-4.21A28.6,28.6,0,0,0,967,56.9a6,6,0,0,0-4.21-1.25c-1.58.12-1.8.59-1.8.59a12,12,0,0,1-2.12-.6,19.61,19.61,0,0,1-4.43-2.51,7.91,7.91,0,0,1-1.86-4.4,1.06,1.06,0,0,1,.7-.93,8.26,8.26,0,0,1,.32-1.16,6.26,6.26,0,0,0-.1-2.4,13.85,13.85,0,0,0,1.72.24c.88.06.92-.64,1-.66s-.84-.41-.74-.45,1.07-.83,1.07-.83l-1.09-.27s.74-.42.8-.44-1,.09-1.5-.35-.48-1.73-1.64-4.19-4-3.23-5.71-3.85-3.85-1.07-5.31-.62a4.22,4.22,0,0,0-2.21,1.7s-.08,0-1.22.6a11.21,11.21,0,0,0-3,3.33c-.39.7-1.87,3.64-1.85,4.45a9.61,9.61,0,0,0,.23,3,17.39,17.39,0,0,0,2.34,2.46l-1.28-.56a6.91,6.91,0,0,0-2.65-1c-1.42-.18-.92-.06-1.12-.4s-2.44-2.82-2.44-2.82.11,0,.62-.61,1.32-2.9,1.38-2.8a1.05,1.05,0,0,0,1.06,0c.5-.24,1.56-3,2.13-3.93s.3-1.5.3-1.5l-.16-.62.36.26s0-.4.06-.46.09-.78.09-.78l.41.68S935,33,935,32.48a7.42,7.42,0,0,1,.14-1.3l.28.52,0-1.06s.2.56.14.18S935,29,935,29l.39.48-.24-.92.36.22a5,5,0,0,1-.62-1.1c-.13-.4-.44-1.88-.44-1.88l.64.2-1.31-1.4s.58.28.38,0a8.65,8.65,0,0,0-1.68-1s.68-.21.7-.3-.51-.2-.7-.2a5.59,5.59,0,0,1-1.08-.75l.38-.29-1.62-.28s.26-.38,0-.42-.86,0-1.08-.06-.16-.46-.26-.48-.77.16-.88.08-.27-.42-.54-.36a4.22,4.22,0,0,0-.68.26c-.33.12-.5-.32-.5-.32s-1.81.58-2,.56-.72-.42-.72-.28-.8.44-.8.44l-.62-.4c-.07,0-.2.64-.28.64s-.65-.18-.74-.2.15.6.15.6h-.67s.42.54.07.56a10.36,10.36,0,0,0-1.4.37,7.44,7.44,0,0,0,.8.27l-.78.39s.68.19.42.24a10,10,0,0,0-1.38.67s.87.16.52.35a3.09,3.09,0,0,0-.74.72,4.89,4.89,0,0,0,.67-.45,4.64,4.64,0,0,1-.51.79.89.89,0,0,0-.22.86s.32-.58.22-.24-.66,1.78-.66,1.78l-.34.42.32.2-.46.34.32,0,.2.42-.34.25c-.34.24-.36.79-.54,2.54s.1,3.72.36,3.62a3,3,0,0,0,.53-.26,13.7,13.7,0,0,0,0,1.53,11.48,11.48,0,0,1,.06,2c-.1.22.3.92,0,.92a7.19,7.19,0,0,1-2.38-.66,2.22,2.22,0,0,1-.81-.92,2,2,0,0,0,.88-.44c.47-.38.69-1,1.07-2.57a4.34,4.34,0,0,0-.88-3.66c-.48-.38-1.91-2-1.91-2a3.26,3.26,0,0,0,.53-1.42c.15-1-.51-2.3-.92-3.62s-2.51-2.07-2.63-2.07-3.27-.88-4.19-1a12.83,12.83,0,0,0-3.57-.16c-.76.18-.93,1.08-1.54,1.88S899,27.09,899,27.09a25.2,25.2,0,0,0-1.6,2.24c-.5.86-1,2.15-1.38,2.93a1.64,1.64,0,0,0,.22,1.74c.25.44.32,1.12.82,2.23a4.54,4.54,0,0,0,3.08,2.16c1.29.32,4.73,1.5,4.73,1.5l.7.66-.68-.08s-.6.88-1,1a5.9,5.9,0,0,1-1.68,0,3.71,3.71,0,0,1-1.28-.2c-.49-.16-.77.2-1.45.68a3,3,0,0,0-.72,2.69,16,16,0,0,0,1,2.28,19.09,19.09,0,0,1-.24,2.85c-.24,1.36-1.64,5.37-1.64,5.37a8.06,8.06,0,0,0-.76,2.56,5.4,5.4,0,0,0,.56,2.44s0,.44,0,1.32a4.34,4.34,0,0,1-.47,1.77,4.18,4.18,0,0,0-1,.35c-.85.37.23.85.23.85l-.23.6a8.56,8.56,0,0,1-1.44.8c-.65.24.19.92.19.92a12.15,12.15,0,0,1-1,2.09,11.94,11.94,0,0,0-1.28,6c0,2.77,1.52,2.85,2.64,3.09s5.45,1.56,5.45,1.56l.09,1.17a14.19,14.19,0,0,0,.72,4c.32.48.08,2.32.48,3s.8.37.8.37-.49,2.76-.67,4.69a63.14,63.14,0,0,0,.37,7.25,1,1,0,0,0-.38,0c-.3,0-1.75,1.4-1.75,1.4s-.12.18-.72.36a8.43,8.43,0,0,1-2,.5l-.46,0A18.46,18.46,0,0,0,894,97.67c-1.53-1.42-5.51-1.82-7-1.82a3.42,3.42,0,0,0-2.46,1.42,5.3,5.3,0,0,0-.31-1.38,14.08,14.08,0,0,0-1.74-2.12c.2.46.86,2.37.44,1.72a3.33,3.33,0,0,0-1.34-1.12,7.81,7.81,0,0,1,.36,1.37,10.34,10.34,0,0,0-1.34-1s.49,1-.44.66-1.7,1-1.7,1,2.49-.66,1.42.2-1.52,3.34-1.52,3.34.85-.95,1.5-1.72a10.34,10.34,0,0,0-.69,1.58c-.54,1.51.93,3.23.93,3.23l-.44-1.36c-.45-1.37,1.65-3.4,1.65-3.4a6,6,0,0,1-.62,1,9,9,0,0,0-.62,2.37l.85-1.41-.27,1c-.28,1,.08,1,.08,1.17s.5-.31.54-1.32,2.32-2.58,2.32-2.58a4.23,4.23,0,0,1-1,1.31c-.89,1-1.21,3.5-1.43,3.95s.49,2,.49,2a4.42,4.42,0,0,0-1.47,1.17c-.45.65-.23,3-.23,3s-.76,2.08-.89,2.28a3.66,3.66,0,0,1-1.7.86c-1,.3-1.38,1.87-2.46,3.3s-1.16,2.17-2.32,4,.22,3.59,1.43,4.7,4.33,1.83,4.33,1.83,1.21,7.54.81,9.06a5.59,5.59,0,0,0,.44,4c.59,1.52-.44,7.14-.44,7.14l.76.26s-1.3,7.89-1.39,9-1.07,4.25-1.16,6.58,1.08,1.62,2.37,2.68a2.43,2.43,0,0,0,.25.2l-.6-.1,1.07.48c1.08.84,2.1,1.55,2.1,1.55s.22,3,.22,3.19l-.05.06a4.33,4.33,0,0,0-.64,2.45h0c-.06-.31-.84-4.21-2.07-5s-6.22-1.67-6.22-1.67,5.11,1.83,5.11,3.39a5.79,5.79,0,0,1-.19,1.36,18,18,0,0,0-3.71-1.82c.18-.29.2-.39-.09-.13,0,0,0,.05-.05.08a30.24,30.24,0,0,0-2.9-.91s1,.76,2.43,1.8c-.73.95-1.72,2.16-1.72,2.16s-1.91-2.48-1.59-3.08-3,2.48-2.87,3.56c.07.5-.1,0-.56-.69.06-1.06.15-2,.17-2.56,0-1.27-.76-8.34-1.28-9.34a6.71,6.71,0,0,1-.67-3.44c0-1.77-.22-6.41-.37-8s-.68-2.14-.23-2,.43-3.54.38-4.93.4-5,.59-7.08a47,47,0,0,0-.39-6.83l.84-.79c.85-.8.35-4.64.35-4.64s.7-.94,1.3-1.89.5-3.89.44-4.88a13.54,13.54,0,0,1,.25-3.09c.26-1.75,2.74-5.16,3.58-6.74a16.48,16.48,0,0,0,1.61-5.35c0-1.12-.19-4.69.05-5a7.71,7.71,0,0,0,.79-2.28c.18-.88-2.67-2.09-2.67-2.09a1.74,1.74,0,0,1,.12-1.39c.4-.74-.72-1.49-.72-1.49l.67.05s-.17-.22-.26-.37.24-.48.24-.48l.21.52.19-.28c.18-.28.48-.9.48-.9s-.24.6-.18.58.5-.15.55-.45a6.52,6.52,0,0,1,.62-1.17s.54.48.56.39a10,10,0,0,1,.68-.86l0,.54a.77.77,0,0,0,.43-.62.78.78,0,0,1,.56-.61l.11.35.52-.39.19.32.22-1.24s.17.51.23.36l.47-1.12s.05.46.07.41.43-1,.43-1,.22.41.22.35.1-1.3.1-1.3l.38.14a1.87,1.87,0,0,1-.29-.76,10.55,10.55,0,0,1,0-1.61l.4,0-.53-.79s.51,0,.34-.07-.43-.92-.43-.92l0-.7h-.36l.28-1.12-.39.07.22-.39-1-.33s.33-.14.09-.15a6.64,6.64,0,0,1-1.21-.62s.37-.15.17-.19-1.26-.39-1.31-.39a3.24,3.24,0,0,1-.26-.69,4.43,4.43,0,0,1-.55.33,3.15,3.15,0,0,1-.28-.59s0,.43-.22.33-1.31-.27-1.56-.33a3.23,3.23,0,0,1-.78-.58.74.74,0,0,1-.56.24c-.33,0-1.87-.39-1.87-.39l.94.67-1.4-.19-1.18-.24a3.35,3.35,0,0,1-.09.66,6.53,6.53,0,0,1-.92-.42s.67.44.06.66-.68.33-.45.33a2.49,2.49,0,0,1,.74.3l-.61.1c.08,0,.41.22.41.22l-.54.08.33.17a15.17,15.17,0,0,0-1.51,1.06,3.5,3.5,0,0,0-.86,1.16c0,.19,0,.77,0,.77l-.41-.21.13.18a.52.52,0,0,0,.35.21,5.19,5.19,0,0,1-.27.67c-.14.25-.34.4-1,.6l-.73.24s-.7-1.1-1.1-1.66A5.73,5.73,0,0,0,859.13,76a10.08,10.08,0,0,1-2-1.35l.35-.24.54-.08a4.86,4.86,0,0,0-.56-.15c-.09,0-.63-.8-.43-.69a.56.56,0,0,0,.41,0s-.22,0-.38-.37,0-.92.16-2.28.56-2.25-1.32-4.9-3.41-2.58-3.72-2.56a5,5,0,0,0-1.12.41,3.52,3.52,0,0,0-2,.43c-1,.56-1.75,2.62-2.22,4.69s.24,3.49.28,4.47a1.92,1.92,0,0,0,.63,1.42s.14-.79.15-.36a1.54,1.54,0,0,0,.25.75s.26-.5.26-.3a2.38,2.38,0,0,0,0,.41l.2-.15a1,1,0,0,1-.3.75,13.18,13.18,0,0,1-2.78.75c-.45.07-.79,1-.79,1.23a3,3,0,0,1-.63,1c-.22.22-.21,1.45-.22,1.81a6.37,6.37,0,0,1-.47,1.37,12.2,12.2,0,0,1-1.35,2.13c-.24.24,0,.8-.58,1.21s-.13.82-.56,1.2-.41,1-.64,1.74a20.55,20.55,0,0,0-.44,2.4s-.05.26-.14.63a10.21,10.21,0,0,0-1.08-.42c-1-.33-3.5-1.28-3.5-1.28a8.63,8.63,0,0,1,.64-.79c.55-.64.81-1.49,1-3.63s-.92-6.39-2-8.59-.68-1.54-1.23-2.62a3.15,3.15,0,0,0-1-1.31.46.46,0,0,1,.22-.36c.2-.09,0-.57-.24-1.49s-1.06-1.17-2.27-1.24a5.92,5.92,0,0,0-2.64.75,1,1,0,0,1-.39.27,7,7,0,0,1-.71.06,12.7,12.7,0,0,0-2-.31c-1.61-.17-2.31,1.61-2.38,2.16a5.18,5.18,0,0,0,.48,1.78,15.59,15.59,0,0,0-1,2.28c-.48,1.34-2.2,5.83-2.24,7.61a44.14,44.14,0,0,0,.24,4.44s-.83.47-1.27.68-2,.82-2,.82l.5-.31s.28,0,.9-2.66-1.43-7.38-1.43-7.38-.15-.43-1.3-1.35-4-1-6,0-2.21,4.22-2.31,4.9-.86,1.37-1,3.48.58,2.28,1,2.68a2.37,2.37,0,0,0,1.36.39,1.1,1.1,0,0,0-.76.42,4.68,4.68,0,0,0-.43.86l.89.08a2.28,2.28,0,0,1-.33.33c-.18.14-.29,1.5-.75,2.66s-.25,2.58-.44,3.57-.18,2-.53,3.36a3,3,0,0,1-1,1.8,13.72,13.72,0,0,1-2.11,2.64c-2,2.24-.06,4.88,2.11,6.53a13.81,13.81,0,0,0,5.81,2v2.18l-.4,4a29.23,29.23,0,0,0-.66,3.43,4.2,4.2,0,0,0,.73,1.78s.86,3.17.06,3-2.17,1.19-1.38,2.31,3.43,1.85,3.43,1.85a3.39,3.39,0,0,0,0,1.45,45.85,45.85,0,0,1,.59,5.8c0,.86,0,8.38.14,9.1s-.18,2.22,0,3.32,0,5.89.3,6.82a1.74,1.74,0,0,1-.39,1.64c-.07.11.37,1.41.37,2a6.29,6.29,0,0,0,.2,1.25c0,.41,1.12,4.74,1.52,6.38a26.46,26.46,0,0,0-5.87-1.18,64.6,64.6,0,0,0-7.44-.22s10.87,1.72,13.48,3c0,.24,0,.5,0,.8-2.57.47-13.32-1-13.5-1.8-.14-.61-1,.78-1.6,1.82h-.35l.31.06c-.25.45-.44.81-.48.89,0-.62-.11-1.19-.18-1.66-.39-2.69-.88-15.6-1.27-17.15s-1.2-8.75-1.33-9.55,0-2.49-.15-5.31-.65-10.09-.77-11.77a61.89,61.89,0,0,1,.53-7.52c.22-2-1.41-8.15-.53-8.34s1.35-1.26,1.37-3,0-5.17,0-5.17,4.91-.63,7.41-2.22-.22-5.31-.21-6-1.57-5.05-2.49-7.75.58-13.23.65-13.43a12.34,12.34,0,0,1,1.57-2.74,27.12,27.12,0,0,0,3.16-7.3c.42-2.08,1.68-7.85,1.69-8.79s-.58-3.43-.23-5a12.08,12.08,0,0,0-.43-4.9c-.19-.41-2.39-3.59-2.92-4.54S799.28,32,799.28,32l-2.3.72-3.05-4.2s-.19-1.34-.45-2.69A26.25,26.25,0,0,0,792.17,22c-.26-.74-2.21-1.5-3.35-2a5.28,5.28,0,0,0-3-.7c-1.28.13-1.64,2.34-1.64,2.74s1.41-.12,1.41-.12a5.55,5.55,0,0,0,.12,2.29,1.57,1.57,0,0,0,1.67,1.15,4.11,4.11,0,0,1,.78,2.84c0,2,2.46,2.9,2.46,2.9l2,4a3.52,3.52,0,0,0-.14.73,21.34,21.34,0,0,0,2.05,3.39c.73,1,2.72,4,3.79,5.27s3,4.46,2.9,6.14A38.68,38.68,0,0,1,799.53,57a10.4,10.4,0,0,1-.93-1.15,23.09,23.09,0,0,1-1.11-4.31c-.25-1.82-1-2.9-2-5.8s-3.85-5.81-5-7-2.9-.16-2.9-.16-.26-.41-1.8-.22-4.33,2.79-6.17,5.12-1.82,9.06-1.9,10.2-1.5,2.54-1.78,4a5.19,5.19,0,0,1-1.16,2.34l1.21-.12a3.71,3.71,0,0,1-.55.93c-.4.54-1,.67-2,1a8.82,8.82,0,0,0-2.43,1.73v-.34S771,62.3,771,61.7a10.07,10.07,0,0,1,.35-1.81l.81.67a3,3,0,0,1-.33-1.07,4.6,4.6,0,0,0-.33-1.22l.67.68a33.76,33.76,0,0,0-1.49-6.46c-1.24-3.84-3.26-4-4-4.27a11.25,11.25,0,0,0-2.62-.29l-1.69.39c-1.68.39-2.91,2.39-3.79,3.53s-1.24,4-1.39,6,.85,3.11.17,3.17-1.43,1.6-1.5,2.07a24.84,24.84,0,0,1-1.24,3.82,17.64,17.64,0,0,0-1.79,4.68,46,46,0,0,0-.66,7.12c0,1.75.17,11.56.62,13s1.12,3.3,1.57,4.65,5,1.25,5,1.25l-.08,1.08s-.08,1.61-.09,2.75.19,1.82.11,3-1.56,2.34-.76,2.35,4,2.18,4,2.18l0,4.17.22,5.84s.79,8.75,1,10.5,2.85,12.72,2.62,15.61.36,13.58.6,16.27c.1,1,.54,3.42,1.06,6,0,.23,0,.47,0,.71-.35.11-.24.48,0,.92,0,.6,0,1.2.08,1.78a8.44,8.44,0,0,1-3.48-2.78c-.54.77-1.1,1.59-1.51,2.29a2.85,2.85,0,0,1,0-.71l.68-3.89s-2,3.42-2.14,5.9c-1.21-1-3.61-3.64-5-4.31-1-.5-.54.12.07,1a52.91,52.91,0,0,0-8.66-3.27s6.84,3.88,8.89,6.25l0,.06c-1.68,0-5.63-2.36-5.46-3s-1.06,2.09.21,3.46c.88.94-1.77-.48-4.35-1.76l.32-2.41a5.37,5.37,0,0,0-1.32,1.92c-.8-.38-1.53-.71-2.09-.92-1.76-.64.4,1,1.79,2.42a4.19,4.19,0,0,0,.25,1.43l.15.39a12.07,12.07,0,0,1-3-.45,2.59,2.59,0,0,1-.25-.59,11,11,0,0,1,.35-4.1,7.22,7.22,0,0,0-1.61,4.26,21.12,21.12,0,0,1-3.86-1.59v0a20.61,20.61,0,0,1,.8-4.76,62,62,0,0,0,1.39-6.59s1,1.18,1.16,1.32,1.19.64,2.32,1.21,4.66,0,6.84-.64a4.11,4.11,0,0,0,2.76-3c0-.26-1.34-3-1.7-3.94s-3.39-5.17-3.52-5.6-1.61-2.32-1.81-3.15-.55-1.24-.55-1.87a8.13,8.13,0,0,0-.58-2.47,9.65,9.65,0,0,1-.17-3.6,53.11,53.11,0,0,1,.92-6.33c.35-1,.29-2.19.86-2.22a2.24,2.24,0,0,1,2,1.15,8,8,0,0,1,1.08,2.37c.19,1,.62,1.07,1.38,1.55a6.51,6.51,0,0,1,2.22,1.72c1.29,1.34.77.34,2.29,1.45s.89,1.07.79,1.17,0,.27.29,1,.5.5,1.26.84a3.93,3.93,0,0,0,2.46.25,1.53,1.53,0,0,0,1-.92.89.89,0,0,0,.83-.13c.5-.29.24-1.3,0-2.23s-.76-.64-.76-.64a8.89,8.89,0,0,0-.82-.54c-.27-.14-.64.26-.9,0s-1-.21-1-.21a2.26,2.26,0,0,0-.33-.77,5.78,5.78,0,0,1-1.18-1.64,5.23,5.23,0,0,1-.52-1.47c0-.43-.89-.87-1-1.51s-1-.64-.92-1.07-.33-.44-1.1-.91-.47.26-1-2-1-2.11-1.51-3.15a6.11,6.11,0,0,0-3-2.19c-.6-.17-2.72-1.09-2.35-1.45a4.43,4.43,0,0,0,.58-1.67.59.59,0,0,0,.47-.16,4.66,4.66,0,0,0,1.24-1.66c.44-1,.11-1.19.11-1.19l.48-1a19,19,0,0,0,.69-7.3,16.9,16.9,0,0,0-2-4l.27-.4c.27-.4.44,0,.57-.1a3.88,3.88,0,0,1,.84-.35,3.77,3.77,0,0,1,1,1,3.64,3.64,0,0,0,1.09,1s-.72-1.11-.09-.67a8.85,8.85,0,0,1,1.71,1.85c.47.6.56,1.9.62,1.43a8.29,8.29,0,0,0-.14-1.73,13,13,0,0,1,.75,1.57,5,5,0,0,1,.41,2.37,24.58,24.58,0,0,1-.67,4.33s-.07.17.78-1.73a9.62,9.62,0,0,0,.47-4.52s.3.7.69,1.43a19.67,19.67,0,0,1,.56,4.11,23.28,23.28,0,0,0,.07-3.6c-.11-1.9-.69-1.71-.75-2a6.74,6.74,0,0,0-.19-.73l.07-.37s.19.57.32,1.17,2.87,3.32,2.87,3.32a13.8,13.8,0,0,1-2.42-4.92c-.51-2.5-3.05-3.16-4.3-4.13s-3.57.06-3.23-.23a4,4,0,0,1,1.44-.46,3.23,3.23,0,0,0-2.14,0,2.55,2.55,0,0,0-1.17,1.06.29.29,0,0,1-.5.19c-.44-.26-.51.1-.51.1s-.17.3-1.3.26-2.47,0-2.47,0a8.89,8.89,0,0,0-3.6.77c-1.51.78-2.39,2.58-2.9,3.61A13.37,13.37,0,0,0,735,109s-.13,0-.3.3a20,20,0,0,0-.4,4,1.61,1.61,0,0,0,.65,1.47.46.46,0,0,0,.63,0l-.14,1.43a7.53,7.53,0,0,1-1.44.43c-.93.19-2.74,1-3.54,1.2s-3.21,1-3.51.93a2.82,2.82,0,0,0-2.11,1.46c-.71,1.12-.65,1.85-1.33,3.15s-2.45,2.81-3.8,4.17a9.13,9.13,0,0,0-2.23,3.91c-.54,1.46-.58,1.26-1.35,1.88a10.93,10.93,0,0,1-1.3.94l-.15-.51c-1.34-4.78-2.71-18.68-2.79-21.66s-2.78-10.45-3.87-11.65.24-4.36.67-8.23a52.54,52.54,0,0,0,.57-8.23c0-4.46-1.17-14-1.17-14l1.19.11c1.19.11,6.85,0,8.14-.53A26.62,26.62,0,0,0,720.89,68c1.29-.69,2.61-3.45,2.62-4.35a61.76,61.76,0,0,0-1-8.74c-.48-1.49-1.94-5.67-1.92-7.56a18.36,18.36,0,0,1,1.54-6.24c.81-2-1.54-5.27-1.92-7S717.12,33,715.62,34s-1.13,5.55-1.13,5.55a16.12,16.12,0,0,0-.43,3.17c.09.8,2.06,2.8,2,4.88a72.4,72.4,0,0,1-1.46,8.52l-1.58-.61a12.57,12.57,0,0,1-3.46-2.31,21.33,21.33,0,0,0-4-2.51,50.15,50.15,0,0,0-6-.65c-.3,0-.89-1.2-.89-1.2l-1.37-1.6,1.49-.68c1.5-.69.23-3.07.93-4.36s-.13-7.64-.13-7.64a7.19,7.19,0,0,0,4.67-.56c2.89-1.16.24-4.36-.45-5.66s-6.05-.35-6.05-.35a21.81,21.81,0,0,0-4.44-3.21c-1.58-.61-3-1.22-8.35,1.81s-5.82,7.79-5.83,8.79,1.56,3.19,1.56,3.19l-.61.92c.06,0,.1.24.1.66,0,1.58.87,2.48.87,3.08a3.14,3.14,0,0,1-.31,1.19h.49l-.1.69h.5l-.81,1.48.8-.48,1.58.21s-.2.79-1.39.78-.81,1.28-3.88.36a3.54,3.54,0,0,1-2.74-3.69,3.54,3.54,0,0,1,0-2.19,14.28,14.28,0,0,1,1.32-3.06c.8-1.39,5.65-11.47,5.65-11.47s5-6.7,5.42-7.39a39.91,39.91,0,0,1,4-3.64s1.89-.28,1.89.12-.51,1.38.88,1.3-.37-2.89.12-2.39,1.48,1.21,1.78.52-1.07-2.3-1.07-2.3l1.08.71c1.09.7,1.79.21,1.79-.29s-3-3.89-4.71-5.2-2.68.08-4.58,1.06S683,18.17,683,18.17s-3.81,4.73-9.52,10.54S666.35,40,666.35,40L665,41.24a10.63,10.63,0,0,0-1.42,3.46c-.51,2.18,1.23,6.66,2,8.25s2.92,6.58,3.1,8.76,2.15,4.39,2,6.86-.18,8.94,1,13.32,0,4.46.12,8.33,2.9,9.15,2.49,10.64-2.24,7.23-2.65,8.61.34,6.36.34,6.36,1.23,18.17,2.39,22.44,3.13,16,3.92,17,.44,6.25.61,9.23c0,.77.25,2.24.53,4a6.93,6.93,0,0,0-2.91,2.7l-.47,0a8.16,8.16,0,0,0-.09-3.26c-.48-1.06-1.63.8-2.39,2.67a5.21,5.21,0,0,1-1.71-1,4.76,4.76,0,0,0-2.05-2.9L667,165.46s2.74,2.69,3.08,4.85c.15.94-.93,2.14-2.11,3.18-.31-.35-.65-.71-1-1.05a10,10,0,0,1,1.07-2.67c.54-.52-1.94.13-3.49,1a4.31,4.31,0,0,0-.86-.28l-1.33-.24A8,8,0,0,0,658.6,167a6,6,0,0,0-.18-.9,52,52,0,0,1-1-7.38,9.07,9.07,0,0,0-.72-2.55c-.49-1.51-1.95-4.13-2.36-5s.28-1,.38-3.44.83-4.39.73-4.92a4.55,4.55,0,0,1-.11-1.89,8.64,8.64,0,0,0-.11-2.1c0-.53.22-.81,1-2.53a36.59,36.59,0,0,0,1.45-4.49,4.37,4.37,0,0,0,1.12-.59,20.15,20.15,0,0,1,.39-3.79,15.58,15.58,0,0,0,.59-5.48,13.86,13.86,0,0,1,.74-4.81c.17-.45,1.56-1.25,2.24-2.36s1.53-6.42,1.61-7.84,2-5.81,2.68-8.46,1.45-3.89,1.47-5.91S668,86,667.18,85A45.56,45.56,0,0,1,664.36,79c-.09-.21-.2-2.36-.2-2.45s.17-.63.17-.63l.15.47,0-.39a6,6,0,0,0-.09-1.15l.15.34v-.14a9.63,9.63,0,0,1,.25-1l.11.34.13-.6a8.86,8.86,0,0,1,.78-1.62c.28-.59,1.07-2.72,1.43-3.37a7.2,7.2,0,0,0,.7-3.21,10.14,10.14,0,0,0-.87-2.94s.53-.23.42-.25-1.36-1.09-1.36-1.09l.51-.32-.55-.55.28-.53-.85.11v-.64S665,59,665,59s-.51-1.13-.51-1.13l-.11.79a6.25,6.25,0,0,0-1.46-1,9.87,9.87,0,0,0-1.38-.28s.08.3-.11.26l-.92-.24s-.08.16-.55.16-1.53.1-1.53.1,1.36.13.73.13a22.41,22.41,0,0,0-3.71.79,14.33,14.33,0,0,0-4.08,2c-1.19,1-1.29,3.62-1.29,3.62s.53-.7.23-.13a15.93,15.93,0,0,0-.72,2.23s.36-.36.21.11a5.28,5.28,0,0,0-.17,1.19s.49-.49.49-.26.42,1.21.4,1.53A4.82,4.82,0,0,1,650,70s-.93-.51-.91-.78-.47-.43-.54-.75-.65-.53-.65-.53l.25-.57,0,.57a6.93,6.93,0,0,1,.44-1,3,3,0,0,0,.25-.62l0,.13.23-.25a3.26,3.26,0,0,0,.38-1.09l-.15.79a3.9,3.9,0,0,0,.45-1.93,9.78,9.78,0,0,0-1.32-4.23c-.64-1.39-2.17-2.11-3.15-2.77s-3.33-.68-4.89,0a5.49,5.49,0,0,0-3.1,3.13c-.62,1.44-.66,5.12-.94,6.22a4.41,4.41,0,0,0,0,2l.3-1.4a8.75,8.75,0,0,0-.15,1.47,4.19,4.19,0,0,0,.28,1.19s.08.06-.39.21a5,5,0,0,0-1.57.47c-.78.42-1.19,1.1-1.83,1.49A41.53,41.53,0,0,1,628,73.57a9.78,9.78,0,0,1-3.23.21,3.77,3.77,0,0,0-1.47,0c-.6,0-.4,0-1.53.32s-.8,1.12-.93,1.06a3,3,0,0,0-.75-.21,10.42,10.42,0,0,0-1.61-.26c-.21,0-.59-.06-1-.1a9.46,9.46,0,0,0-.55-1.71,10.17,10.17,0,0,0-3.47-4.49c-1-.63-4.62-1.79-7.11-1.19s-6.49,3-7.07,6.68-.59,6.29-1.75,8.84-1.29,8-1.25,9.09c.18,5.1,2.86,14.77,2.32,17.86-.67,3.8-1.85,12-2,13.32a21.06,21.06,0,0,0,.89,7.88c1.1,3.64,1.89,11.87,2.91,15.33s2.14,8.3,1.13,11.41-1.23,7.73-1.14,11.42v0a16.22,16.22,0,0,0-2,.82,2.6,2.6,0,0,0-1.25-.81l-2.57-.7s2.4,1.67,2.05,2.85a0,0,0,0,1,0,0l-.53.71a12.4,12.4,0,0,1-3,1.69s-6.67-3.18-5-3.67l1.71-.48s-3.08-.24-4.27.8a23.16,23.16,0,0,0-2.86-.61,7,7,0,0,0-.91-.42c0-.73,0-1.43,0-1.92a10.52,10.52,0,0,1,.34-2.51c.09-.24.66-2.06,1.05-3s1.11-2.27,1.11-2.27l.5.26c.52.27.14-.15.49-1s1.55-2.45,2-3.18a65.49,65.49,0,0,0,2.49-6.1,18.29,18.29,0,0,0,.64-4.08l2.17-3.36a17.28,17.28,0,0,0,1.36-4.7,19.54,19.54,0,0,0-.7-3.89,1.35,1.35,0,0,0,.88-.61c.38-.56-.77-1.73-1.37-3.2s-1.1-3.34-1.42-4.44-1.36-3.78-2-4.31a34.91,34.91,0,0,1-3.64-3.13,21.37,21.37,0,0,0-2.6-2.3l.61-.55,1.19-2.28a1.19,1.19,0,0,0,.65.18c.46,0,.73-1,1-1.41a9.13,9.13,0,0,0,.84-2.9c0-.68,0-1.79,0-1.79s.15.09.42-.13a2.19,2.19,0,0,0,.75-1.48,17,17,0,0,0,.11-5.08c-.35-2.18-2.81-4.46-3.64-5.18a6.69,6.69,0,0,0-3.45-1.57,9.5,9.5,0,0,0-3-.29,10.91,10.91,0,0,0-3.71,1,12,12,0,0,0-3.91,3.67c-.7,1.12-.82,3.88-.84,4a12.56,12.56,0,0,1-1.74,1.17c-.86.51-1.06,1.17-.71,1.3s2.26-1.15,2.26-1.15.26.67.19.76-.39.79-.39.79.44-.44.35-.13-.2,1.15-.2,1.15L570,105l-.25.66.31.17a2.21,2.21,0,0,0-.35.51,7.21,7.21,0,0,0,.22,2.14,18.39,18.39,0,0,0,.73,2.46c.42,1,.92.5.92.5s.25.89.41,1.79a3.12,3.12,0,0,0,.61,1.44,3.46,3.46,0,0,0-.77.48,38.73,38.73,0,0,1-4.3,1.48c-1.51.51-1.33.89-1.88,2.19a20.75,20.75,0,0,1-2.76,4.79c-.78.68-1.24,1.46-1.17,1.68s.41,1.74.41,1.74l-.26.42a18.76,18.76,0,0,0-2.89.38c-.33.09-1.63.49-3.2,1-.22-1.76-.5-3.31-.55-3.72a29.65,29.65,0,0,1,.09-3.65,28.51,28.51,0,0,0-.58-5.29s-.15-.58.64-.81,1.31-5.7,1.31-5.85,2.93-8.36,3.89-10.46a31.94,31.94,0,0,0,1.73-7.48c0-.59.11-2.08.11-3.66s.5-5.61.5-5.61a3.33,3.33,0,0,0,1.11-1.49c.38-1-1.4-5.67-1.78-10a65.18,65.18,0,0,0-2-9.93,30.83,30.83,0,0,0-3.54-3.52A62.88,62.88,0,0,0,546,50.8c-3.78-1.69-3.46-4.62-3.46-4.62l.32.06s.24.24,0-.43a11.12,11.12,0,0,1-.17-2.52s.38.56.44.38.06-1.66.06-1.66.11,1.05.38.61a7.66,7.66,0,0,0,.44-1.84s.43-.09.43-.26-.09-.82-.09-1.14-.14-.62.83-1.49.29-1.38.34-1.84a5.74,5.74,0,0,1,.5-2.63c.62-1.23-.06-1.41-.47-3.51s-1.17-2.78-1.57-3.07-.74-1.75-1.29-2.45-1.23-.59-2.81-1.15-.9.09-2.77-.38-1.32.12-2.49.38a30.79,30.79,0,0,1-3.15.76,11.77,11.77,0,0,0-2.63.71A12.59,12.59,0,0,0,525,27.8c-.5.65-.11.67-.38.94s.09.82,0,1.34-.4.59,0,.7.41.27.41.27a19.67,19.67,0,0,1-.58,3.36c-.41,1.31.17,1.29.5,1.75a8.78,8.78,0,0,1,.66,1.32,9.25,9.25,0,0,1-.49,2c-.5,1.57.38,2.13.38,2.13s.26,1.26.35,1.46.88,3.68.88,3.68a5.6,5.6,0,0,0,.32,1.7,3.6,3.6,0,0,0,2,.5,6.37,6.37,0,0,1,2,.43s0,1.23,0,1.37-1.14.24-1.66.88-5.79,2.1-8.94,3.86-4.33,9-4.38,11a40.52,40.52,0,0,1-1.68,7.05c-.07-2.31-.43-3.68-.46-5.25,0-2.13-1.58-5.06-2.84-7.81s-3.62-5.47-4.38-5.69-.41-.68-.41-.68l.36-1.08.14,1,.4-1.08.09,1.08.36-2.07c.37-2.08-1.17-3.84-1.85-6.14S502.43,36.64,501,33.3s-2.76-4.6-4.47-5.32a11.14,11.14,0,0,0-3.34-.82,3.27,3.27,0,0,1-.68-.36,9.36,9.36,0,0,0-3.52.5c-.55.32-3.39,1.4-4.7,3.21s-3.29,8-3.34,10.6a50.62,50.62,0,0,1-1.8,9.57c-.55,1.85-.1,2.85.27,4.92a9.58,9.58,0,0,0,1.44,3.3A8.84,8.84,0,0,1,480,60s-.77.72-2.44,2-1.9,8.94-1.9,8.94-.08.45-.63,2.34,1,5.69,1,6.55a69.67,69.67,0,0,1-2.21,10.25c-.68,1.76-.45,3.29-.81,6.58s-.59,8.54-.86,11-.9,5.91-.9,5.91a33.17,33.17,0,0,1-1.67,3.66,8.45,8.45,0,0,0-.95,5.27,6.22,6.22,0,0,0,1.71,3c.36.46.54-.22.54-.22,1.41,1.85.23-4.2.32-4.74s1.81-2.26,1.81-2.26a12,12,0,0,0,.58,2.94c.59,2,2.31,7.49,3,10.38s4.15,11.38,4.92,13.32a48,48,0,0,1,1.63,7.13c0,.18,1.53,10.74,1.48,11.2,0,.26.76,4,1.41,7.22-1.61-.76-3.4-1.59-4.53-2-2.73-.93,3.42,3,3,4-.1.22-.7.26-1.59.16l-.27-.12v.09c-3.54-.47-10.79-2.86-9.55-4.8l1.59-2.52a8.14,8.14,0,0,0-3.19,4.24c-.57,1.81-2,1.14-3.36.06.33-.15.66-.31.43-.78-.45-.9.37-2,.14-2.41s.45-1.33-.32-2.85,0-1.25-.37-2.72-.19-2.8-.94-5.93-.76-7.78-1.09-8.73.48-2-.07-4-.52-8.57-1.08-10.91a27.32,27.32,0,0,1-.61-6.78c0-2.55.65-4.24-.06-6.54s-.95-2.05-1.08-4-.92-5.25-.27-6.11c0,0,1.35-1,1.47-1.66s1.6-1.9,1.6-2.76,3.07-3.32,3.38-4.18.67-2.08,1.53-4.6.18-4.85-.12-6.51-2-9.15-2.83-11.61-2.94-6.07-3.13-7.05-.18-2.52-1.66-3.14S459.36,65,459.36,65s-1.26-4.64-1.69-5-.55-.61-1.29-.33-1.26-.22-1.9-.34-1,.15-1-.37a4,4,0,0,0-1.13-2.27,3.31,3.31,0,0,1-.67-.4s.3-1.93-.38-2.46.26,0,.26,0l-.25-.43-.14-.62.23.27-.09-.33.17-.33-.17-.16.23-.2-.12-.25v-.62l-.12-.57.18.08-.17-.3s.27-.07.27-.15a1.86,1.86,0,0,0-.27-.57c-.06-.06,0-.09-.05-.38s0-.3,0-.3a1.2,1.2,0,0,1-.17-.17c-.07-.09,0,0-.05-.18s0-.29,0-.29a3.45,3.45,0,0,0-.76-1,2.07,2.07,0,0,1-.57-.62l.44.08a3.13,3.13,0,0,0-.58-.27c-.4-.15-.72-.77-1-.86s.11-.12.08-.12h-.55l-.25-.24s0,.22-.17.14S447,45,447,45s-.07.37-.15.35-.54-.27-.82-.35.06.07.06.07a6.1,6.1,0,0,0-.91-.1,1.69,1.69,0,0,1-.59-.09l.12.24a5.21,5.21,0,0,0-.72-.06h-.73l.2.11s-1.45.21-1.59.27a3.66,3.66,0,0,1-.54.15h.14s-.84.41-.92.42-.05.09-.05.09-1.15,1.24-1.32,1.34-.06.11-.06.11-.31.37-.39.49-.18.37-.14.32-.27.78-.33,1,.13.44-.09.8-.39.69-.39.69l.29-.1-.12.7c0,.11.07.42,0,.53s.11,0,.11,0-.12.68-.12.77a4,4,0,0,1-.05.63c0,.06.09.11.09.11l.07-.08a2.8,2.8,0,0,0,0,.47c0,.09.08.48.08.48l.07-.06a.9.9,0,0,1,.11.29c0,.13.14.43.15.5s.19,1.31.37,2,.81,2.54.81,2.87a8.14,8.14,0,0,0,.74,2.2l.84,1.41a7.22,7.22,0,0,1-1,.75c-.47.3-1,.79-1,.93a1.49,1.49,0,0,0,.35.92c.35.32.76.78.76.78a26,26,0,0,1-4,2.63,4.57,4.57,0,0,0-2.09,1.75c-.2.31-.61,2.81-1.16,4.35s-.41,2.9-.7,5a17.57,17.57,0,0,1-.75,3.32,9.2,9.2,0,0,0-.06,2.43c0,1.29-.29.9-.84,2.11a2.77,2.77,0,0,0,.35,2.83c.4.53.47.42.18,1.24a5.37,5.37,0,0,0,.08,2.34c0,.18-.94,2.53-.69,3.87s.61.9.59,1.78-.72,2.31-.27,3.78a11.25,11.25,0,0,1,.49,3.24c0,.51.74.49.74.49s1.64,1.21,1.74,1.57-.29,1.25.53,1.5l1.13.33s.82,1.57,1.27,2.31.63,4.5.63,5.64a27.67,27.67,0,0,0,1.37,6,37,37,0,0,1,1.09,7.49,25.64,25.64,0,0,0,.51,5.63c.32,1.6.47,3.67.67,5.24a8.68,8.68,0,0,1-.41-1.06,29.49,29.49,0,0,0-1.76-3.85,6.51,6.51,0,0,1-.93-3.1c0-.79-1.57-4.26-1.87-6s-2.1-2.69-2.7-3a1.56,1.56,0,0,1-.7-1.42c0-.3-.34-.64,0-1.09s-.07-.67.08-1.12-.64-.75-.64-.75l.34-1.23a13.93,13.93,0,0,0-1.61-7.52c-1.27-1.86-5.5-2.09-6.8-1.75a4.22,4.22,0,0,0-2.14,1.57,15.72,15.72,0,0,1-.48-1.68c0-.38-.86-2.36-.9-2.51a25,25,0,0,1-.78-3c0-.53-.68-.9-.68-1.39s-.44-1.12-.44-1.57a32.57,32.57,0,0,0-1.2-3.51,18.5,18.5,0,0,0-1.23-3.25c-.53-.94-.27-2.81-.72-5s-1.38-5.84-1.68-6.92-1.42-6.24-1.53-7.29-3-4.83-3-4.83l1.83,1.09A11.49,11.49,0,0,0,409.85,72c-2-1.74-1.25-1.79-.8-1.71a1.53,1.53,0,0,0,.86-.15,13.63,13.63,0,0,0-2-1.63c-.52-.22-1-1.8-1.41-2.36s-.67-1.72-.37-1.5l1.14.85a1.45,1.45,0,0,1-.25-.36,8.64,8.64,0,0,0-1.34-1.61,9.71,9.71,0,0,0,1.27.86c.26.07,1.5.56,1.5.56a12.25,12.25,0,0,1-1.65-1c-.94-.64-2-2.88-3.07-5.28a14,14,0,0,0-4.56-5.49c-1.79-1.38-6.13-2-8.33-.56s-2.47,6-2.55,6.8-1.42,3.93-1.57,6.47,1.46,4.79,1.46,5.5a3.28,3.28,0,0,1-2,2.58c-1.31.52-2.58,1.12-3.44,1.57a6.51,6.51,0,0,0-2.09,2.09,9.31,9.31,0,0,0-1.12,2.84,22,22,0,0,0-.64,2.32A10.25,10.25,0,0,1,378,86c-.64,1.35-.9,3-1.27,3.63a8.2,8.2,0,0,0-.46,3.06,7.33,7.33,0,0,1-1.38,3.59c-.52.71-.3,1.12-.3,1.12s.15.64.34,1.83a6.89,6.89,0,0,0,1.87,3.11c.78.93,2,2.91,3.06,3.48a9.87,9.87,0,0,1,3,2.76,14,14,0,0,1,1.46,1.94v12.9c0,1.89.07,4.34.07,4.34l1.42.6a31,31,0,0,1,.66,5c.15,2.82.86,5,.86,5.83s.43.92.26,1.44a3.71,3.71,0,0,0,.3,1.7,4,4,0,0,0-.36.82c-.15.49.11.83-.22,1.33s-.15.28-.36.84a12.66,12.66,0,0,1-1.1,2.28c-.66,1.14-.62,1.16-1.05,3.33a32.41,32.41,0,0,1-.76,3.2l-.4.15c-.3.11-1,.24-1.27.91a17.21,17.21,0,0,0,.06,3.76,12.74,12.74,0,0,1,0,3.08,2.24,2.24,0,0,1-.47.81l-.39-1.35-1,1.65a5.67,5.67,0,0,1,1,2.37,14.31,14.31,0,0,1-.34,1.69,12.12,12.12,0,0,0-.3,3.92,3.21,3.21,0,0,0,.41,1.2c-1.69.14,0,0-1.47-2.95s-9.72-3.66-9.72-3.66a14.3,14.3,0,0,1,7.05,3.15,23.83,23.83,0,0,0-4.09,1.63c-.89-1.38-3.47-3.41-2.46-2.48,1.24,1.15-4.49,4.45-5.23,3.59s2-3.34,1.22-3.62l.36-.3-.57.28a3.08,3.08,0,0,0-.77.19,4.06,4.06,0,0,0-1.43.89c-.69.35-1.57.77-2.66,1.31-.36-.25-.77-.5-1.15-.72.59-2.3,1.12-4.25,1.34-4.94.62-1.89.45-8,.45-8a2.37,2.37,0,0,0,1.54-1c.41-.79-1.24-6.55-1.41-10.11s1.13-14.86,1.34-16.5a33.57,33.57,0,0,1,1.78-6.17c.17-.1.79.24.86-.65s.44-5.21.44-5.21,2.61-1.55,3.47-2,2.26-3.46,2.74-5-.45-6.28-.45-6.28l.28.21a18.63,18.63,0,0,1,1.27,2.71l.58-.14a6.08,6.08,0,0,0-.2-1.16,11.76,11.76,0,0,0-1.38-2.54s.45-.41.35-2-4.12-4-4.12-4a2.14,2.14,0,0,0,.17-.82,13.13,13.13,0,0,0-.83-3,4.2,4.2,0,0,0,2.62-.31c1.14-.65.78-3.6.8-5.22a7,7,0,0,0-1.57-4,83.7,83.7,0,0,1-3.49-8c-.39-1-1.62-4.19-1.85-5.14a3.23,3.23,0,0,0-1.09-2.16A44.14,44.14,0,0,0,360,65.7a13.67,13.67,0,0,0-3-.07s-.46-.7-.07-.82,1-1.14,1-1.14a19.63,19.63,0,0,1-2.91-.82,4.58,4.58,0,0,0,1-.21,5.18,5.18,0,0,1-1.88-2.18,9.15,9.15,0,0,0-.56-1.85,8.45,8.45,0,0,1-1.06-2.8,28,28,0,0,0-.77-4.84c-.74-3.7-4.88-4.86-7-5.84a11.68,11.68,0,0,0-7-.13c-1.19.46-1.52,2.16-1.52,2.16a14.39,14.39,0,0,0-1.75.85c-.77.47-1.13,2-1.13,2s1.88-1.85.31.42-1,6.25-1,4.85A17,17,0,0,1,333.84,51a17,17,0,0,0-.82,4.52,8,8,0,0,0,1.46,3.93c.62,1.09,1.16.7,1.16.7a1.63,1.63,0,0,0-.36-.54c-.26-.26.2-.72.2-.72l.67.88a20.82,20.82,0,0,0,1,2.82c.75,1.83,3.5,2.6,3.5,2.6a7.28,7.28,0,0,1,.41,1.21c.23.85.67,3.75.67,3.75a4.78,4.78,0,0,1-.6.23A30.65,30.65,0,0,0,338,71.85c-1,.59-2.68,3.27-3.83,4.58A4.57,4.57,0,0,0,333,80c.18.54,1.9,4,1.9,4a10.23,10.23,0,0,0-.74,3.29c-.26,2.34,1.9,4,2.59,4.73s1.52,4.78,1.52,4.78a18.82,18.82,0,0,0-1.31,2c-.33.67-3.52,5.09-4.37,6.37s-2.39,2.58-3.22,3.84-2.31,3.86-2.62,4.4a.87.87,0,0,0,.13,1l-.08.31c-.07.3.49,1,.49,1l-.18.18c-.18.18.26.8.26.8v.93a17,17,0,0,0,.87,3.08l-.21.06a11.14,11.14,0,0,1-2-1.71c-.25-.5.17-2.08.24-2.66a4.12,4.12,0,0,0-.53-2.13,5,5,0,0,0-1.52-2.14,9,9,0,0,0-3.9-1.3c-1.49-.11-3.7,1-4.81,1.92s-1.37,3.56-1.37,3.56a7.76,7.76,0,0,0-1.1,1.06,22,22,0,0,0-2,3.23c-1.07,1.87,1.61,3.72,2.74,4.37s2.35,1.29,2.35,1.29a2.52,2.52,0,0,1,.79,1.25c.06.61-.74,1.18-.74,1.18s-.5,0-1.2,0A13.23,13.23,0,0,0,311.8,130a8.41,8.41,0,0,0-2.37,2.28s-.2-.55-.29-.77a5.82,5.82,0,0,1-.17-1.63c0-.45-.55-.69-.63-.89a3.73,3.73,0,0,0-1.13-.88,7.53,7.53,0,0,0-1.65-.06s-.41-.57-.37-.71.85-.65.85-.65a2.15,2.15,0,0,0,1-.27c.34-.26.27.08.58-.4s.74-.8,1.06-.44,1,.12,1.55-.11.63-.92.72-1.8-1.05-.86-1-1.09-.48-.28-.48-.28a1.44,1.44,0,0,0-.17-.48c-.18-.36-1,.09-1,.09l-1-1.41c-1-1.4-3.26-1.81-5-1.58s-2.51,3-2.51,3l-.54-.1c-.55-.11-.69.68-.69.68s-1.27-.17-1.58.19a2.15,2.15,0,0,0,.31,2.3,1.6,1.6,0,0,0,1.92-.07c.33-.34-.22-1.83-.22-1.83l.32.27.28-.22s.15.63.17.74,0,.48,0,.48a5.27,5.27,0,0,0,.06,1.25,4.85,4.85,0,0,0,.7.9l0,.31-.3,0a6.42,6.42,0,0,0-1.19.14,5.35,5.35,0,0,1-1.15.07,8.61,8.61,0,0,0-1.5.13c-.64.12-.43,1.22-.52,1.25s-.53.9-.58.91a9.15,9.15,0,0,0,.69,1,1.28,1.28,0,0,1-.29.28c-.25.17-1.22,1.52-1.41,1.49a1.68,1.68,0,0,0-1.13.27,1.9,1.9,0,0,0-.49,1c0,.17.71.53.85.46s1.42-.38,1.5-.39a5.65,5.65,0,0,0,.86-.31,9.62,9.62,0,0,0,1.24-.79l.19.09c.18.08.52-.26.52-.26a7.83,7.83,0,0,0-1.13,1.75c-.25.72-.36,3.07-.53,4a18.87,18.87,0,0,0,.29,3.75l1.17.31a12.29,12.29,0,0,0,0,2.87,5.41,5.41,0,0,1-.24,2.57l-.34.36a.69.69,0,0,0-.33,0,1.73,1.73,0,0,0-.32.13s-.17,0-.12.28.31.4,1.06.55a14.36,14.36,0,0,0,1.87.51c.31-.05.57-.74.6-1.28a7.24,7.24,0,0,1,.39-1.72,6.44,6.44,0,0,0,.28-1.85c0-.5,0-2.2,0-2.2h.1s.17,0,.89-.06a12,12,0,0,1,1.87,0l-.1,1.58a15.72,15.72,0,0,0-.07,1.8c.05.42.5,2,.53,2.62a1.27,1.27,0,0,0,.53,1.09c.3.28,1.19.06,1.65-.2s1.2-.89,1.17-1-.3-.17-.26-.27-.47-.09-.48-.22-.53-.12-.53-.12a3.82,3.82,0,0,1,.07-.57,22.07,22.07,0,0,0,.22-2.79c-.05-.52-.07-2.2-.07-2.2a3.89,3.89,0,0,0,.62-.1c.24-.07.75-1.23.75-1.23a4.29,4.29,0,0,0,1.85.78,3.18,3.18,0,0,0,1.51-.75s-.34.82-.61,1.4-.48,4.39-.76,5.66a10.42,10.42,0,0,0-.1,3.39c.1.83-.55,6.55-.55,6.55a26.57,26.57,0,0,0-.28,4.83,15.16,15.16,0,0,1,.21,3.64c-.07,1.61-.23,3.8.57,4.35-1.82.78-3.8,1.29-4.06.47a1.15,1.15,0,0,1,0-.49c.29-.26.49-.42.49-.42l-.41.09c.54-1.61,3.08-3.63,1.19-2.84-2.25.93-6.73,5.6-6.73,4.53,0-.57-1.32-2.3-2.57-3.81a5.31,5.31,0,0,1-1.66,1.52c-.51-2.76-1.57-7.19-2.13-9.43-.75-3-1.79-6-2.12-8.07a58.86,58.86,0,0,1-.11-7.87,39.08,39.08,0,0,0,.49-4.87c0-2.63,0-6.36,0-8.25a51.89,51.89,0,0,0-.57-7.53,13.72,13.72,0,0,1-.73-4.45c0-2.38-.7-2.2-1.06-3.33s-1.11-3-1.11-3,1.06-.39,1.17-.41a4.06,4.06,0,0,0,.62-1.71,3.25,3.25,0,0,0-.75-1.37c-.42-.55.07-2.67.1-3.27a11.78,11.78,0,0,0-.72-2.94c-.34-1-1-8-1.14-10.2s.38-5.38.18-6.83a17.36,17.36,0,0,1,0-4.4c.15-.9.59-5.38,1-5.35a3,3,0,0,0,1.35-.32,18.54,18.54,0,0,0,2.66-1.68c1.19-.82.78-1,.8-2s-2.09-1.71-2.09-1.71l.13-.44-.31-.7s3.83-3.49,4.7-4.47,3.47-3.73,4.71-4.92,5.1-6.08,5.78-7.87-.13-2.82-.34-4.29a27.07,27.07,0,0,0-1.19-5.15c-.52-1.29-2-2.51-2.3-3.21A20.76,20.76,0,0,0,301,37.13c-.18-.26-1-.75-1-1.37s-.42-.31-1-1a3.69,3.69,0,0,1-.67-1.94s-.29.72-.31.64a13.37,13.37,0,0,0-1.68-2.38c-.8-.83-1.58-3.26-2.64-5.33s-1.5-1.63-1.58-1.55a18.52,18.52,0,0,1-1.89.31s.05-.15-1.06-.05-1,.59-1,.59a3.07,3.07,0,0,0-1.24-.15.62.62,0,0,0-.63.75l-.49,0c-.49,0-.52,1.51-.52,1.51l-.38-.44c-.39-.44-1,.13-1,.38a13.86,13.86,0,0,0,.44,1.63,1.92,1.92,0,0,1-.36.37,5.29,5.29,0,0,1-1.51.87c-.75.29-.49.71-1.06,1.45s-.51.26-1.14.83a7.48,7.48,0,0,1-3.51,1.14c-1,0-.81-.07-1,0a5.42,5.42,0,0,1-1.84-.12,3.78,3.78,0,0,0-2.2.93,1.91,1.91,0,0,1-1.24.36l.08-1,0,.57.23-.46c.23-.47-.29-1.5-.29-1.5l.54.61a2.86,2.86,0,0,1-.15-.33,19.82,19.82,0,0,1-.26-2.84l.29,1.21V29.55a2.23,2.23,0,0,0-.73-1.37l.81.29a4.17,4.17,0,0,1-1.14-1.17,10.63,10.63,0,0,0-3.13-3.16c-2.2-1.65-3.19-1-3.52-.88a4.21,4.21,0,0,1-1.17.31c-.05-.07-.36-.26-1,0a4.84,4.84,0,0,0-2.49,3.19c-.54,1.94.26,2.61.26,3.52a3,3,0,0,0,.33,1.44s.16-1.7.16-.8a13,13,0,0,0,.72,2.9l-.1-.39c-.07-.25-.12-1.17-.16-1.69a8.26,8.26,0,0,0,.32,1.57,3.7,3.7,0,0,0,.67,1.11l-.16-.34c-.15-.34-.36-1.68-.2-1a5.1,5.1,0,0,0,.49,1.31,4.17,4.17,0,0,1,.26,1,13.65,13.65,0,0,1-1.79.64c-.26,0-1.29.08-2.22.08a18.14,18.14,0,0,0-2.87.21,2.4,2.4,0,0,1-1.25.05c-.85-.07-1.11-.39-2-.93a57.74,57.74,0,0,0-6.08-1.94l0-.31c.05-.31.18-.44-.29-.41a1.6,1.6,0,0,0-.74.2,4.31,4.31,0,0,1-.08-.9.85.85,0,0,0-1.06-.75,2.36,2.36,0,0,0-.78.57l-.08-.21c-.07-.21-.83-.39-1.29-.39s-1,.6-1.11.57a2.36,2.36,0,0,0-1.48-.23c-.59.21-.8.31-.8.31a2.22,2.22,0,0,0-.78,0c-.59.1-1.6,1.84-1.73,2.87s-.62,4.32-.62,4.32a1,1,0,0,0-.78.42,6.89,6.89,0,0,0-.57,2.84c0,1.14-.1,1-1.19,2S231,46.4,230.7,49s-.15,9.62-.1,10.86.31,1.81,1.5,3.11,11.65,7.86,12.73,8.79,2.69,1.3,3.83,1.82a14.54,14.54,0,0,1,2.9,2.22,8.92,8.92,0,0,0-2.95,2.49c-.72,1.29.42,2.17,1.29,2.48s4.2.83,4.2.83.72,6.26.88,7.5.1,7.56,0,8.75a49,49,0,0,0,1.29,9.47,8.89,8.89,0,0,0,2.17,3.72A22,22,0,0,1,256.6,116c-1.57,3.36-.93,13.81-.9,16.09s-.49,10.87-.49,11.8.39,10.56.39,12.08.67,10.77.67,12.35c0,1.17.13,3.67.33,5.46l-.16.06a26.16,26.16,0,0,0-1.75-4.34l.5,3.1a7.28,7.28,0,0,0-1.23-1.48,1,1,0,0,0-.2-.28l-1.6-1.48,1.43-.2s-.78-.06-3,0v-1.07s-.26.4-.62,1.08c-1.28,0-2.94.1-5.11.22a28.31,28.31,0,0,0-3.67.46l-.41-.26.19.3c-5.79,1.11-11.53,3.51-11.07,2.86.56-.81-.74-2.43-.74-2.43l-.37.38.54-2.39c.84-.84,1.3-1.41.38-1.17l-.12,0,.39-1.71,3.33-10.37a8.17,8.17,0,0,0,2.54-6c.07-3.91-2.36-10.95-2.36-10.95s.29-7,.48-8.95a25.74,25.74,0,0,0-.09-5.85c-.25-1.26-.25-3.14-.34-3.82s.19-1.79-.24-2.23a8.47,8.47,0,0,1-.92-2.42,11.36,11.36,0,0,0,.48-3.81,11,11,0,0,0-1-3.68c-.58-1.4-.72-1.7-.72-1.7s-.49-4.39-.63-4.83,1.5-3.24.43-6.43a18.47,18.47,0,0,0-2.08-4.6,7.53,7.53,0,0,1-.19-.82c0-.21,0-.46,0-.46l.29.25s0-.18,0-.61.05-.82.05-.82.61,0,.34.24.61.07.94-.41,1.63,1.42,2,1.52-.32-.63-.61-1.09.61.2,1,.29-.63-.29-.85-1.06a7.11,7.11,0,0,1,.34-2.63s.41,1.35.2,1.73l-.22.39a1.23,1.23,0,0,0,.53-.51c.19-.36-.1,1.19-.17,1.31a5.86,5.86,0,0,0,.63-1.33c.17-.63.34.8.29,1.23a18,18,0,0,0,.24-2.15A13.13,13.13,0,0,1,234,83c.07-.44,0,1,0,1s.7-1,.14-3.27a29.31,29.31,0,0,1-.77-6,29.77,29.77,0,0,0-1.38-6.09c-.65-2.08-2.68-6-3.72-6.56a5.51,5.51,0,0,0-3-.55l-.19.12a4.42,4.42,0,0,0-2.08-.34c-1.16.1-2.69,1.84-3.8,4.16a34.38,34.38,0,0,0-2.61,6.63,36.11,36.11,0,0,1-1.42,5.34,2.22,2.22,0,0,1-.71.63s-3.24-.77-4.2.29a9.89,9.89,0,0,0-1.63,2.75,8,8,0,0,0-.72,2.18,12,12,0,0,0,.14,2.44c.13.36.22.39.22.39l0,.36a24.91,24.91,0,0,0-.44,5.42,7.9,7.9,0,0,0,.51,2s.36,5.61.36,7a12,12,0,0,1-.12,2.8c-.17.56.12,3.32-.27,4.31a7.22,7.22,0,0,0-.36,3.12c.14.28,1.31,5.53,1.62,6.79s1.55,4.45,1.6,4.67-.37,1,0,1.3l.34.27s.94,3.43,1.26,3.51l.31.07a10.53,10.53,0,0,0,.12,1.69c.12.46,1.53,3.85,1.53,3.85a14.14,14.14,0,0,1-.73,1.81,7.55,7.55,0,0,1-.74.8s-.15-.15-.49.31-.29.95-.55,1.31a2,2,0,0,1-.81.55,3,3,0,0,1-.86-1,5.59,5.59,0,0,0-.9-1.31l-.41-.85a2.79,2.79,0,0,0-.12-1.79l-.42-.58.71-1.74a7.43,7.43,0,0,0,1.45-3.19c.07-1.4.17-2.22,0-2.27l-.17,0s-.17-5-1.26-5.68a4.64,4.64,0,0,0-2.15-.9,2.92,2.92,0,0,1-1.28-.39,1.65,1.65,0,0,0-1.14-.1c-.22.1-1.28,0-1.62.37a9.17,9.17,0,0,0-1.4,2.32c-.19.58-.92,2.37-1.18,3a9.67,9.67,0,0,0-.52,2.87c.1.34-.24.25-.24.71a3.6,3.6,0,0,0,.56,1.4,4.55,4.55,0,0,1,.39,1,2,2,0,0,1,0,.41,5.68,5.68,0,0,0-.83-.63,1.13,1.13,0,0,0-1.06.2c-.29.33-1,1.06-1,1.06a8.85,8.85,0,0,0-2.47,1.26c-.26.45-.12.53-.41,1s-.65,1.08-.55,1.42a3.32,3.32,0,0,0,.17.51,17.76,17.76,0,0,0-2.57,3.94c-.8,1.92-2.68,4.65-1.08,6.8s2.19,3.09,2.19,3.09-.38,5.88-.72,6.46-1.55,1.84-.58,2.15.87.68.87.68a37.78,37.78,0,0,1,.53,4.16,34.91,34.91,0,0,0,.32,4.71c.17.39,0,.8.14,1.09s-.39.78-.22,1.11l.07.16c-1.79,1.36-1.9,4.48-3.67,2.53a12,12,0,0,0-2.86-2c0-.2.08-.41.13-.62l.3-.07h-.28c.28-1.24.63-2.44.73-3,.22-1.3-.2-11.8.22-13.1s.19-1.08.05-2.38.39-1.63.28-2.85-.86-11-.88-12.1.49-6.44.41-7.93.94-1.55.08-3.35a34.56,34.56,0,0,1-1.63-5.94l.66-.3s-.16-1.11-.41-1.33a3.87,3.87,0,0,1-.64-1.55c0-.33-.24-2.62-.24-2.62a7.41,7.41,0,0,0,2.92-.34c1.3-.49,3.13-1.49,2.19-2.54a2.25,2.25,0,0,0-1.91-1,5,5,0,0,1-1.49-.58l-.55-.36s-.45-1-.72-1.11-.33-.19-.42-.19-.33-6-1.13-8.16a13.2,13.2,0,0,1-.89-3.23s2-.12,2.36-.64a6.73,6.73,0,0,0,.69-3.52c-.11-1.58.78-3.05.91-3.67s.23-4.52-.29-5.23.22-1.2-.13-2-.33-.7-.27-1.16.29-.33.13-.75a9.37,9.37,0,0,1-.27-1.72l.73,1.85.66-.06a5.37,5.37,0,0,1,.6,1.9,28.35,28.35,0,0,0,.1,3.22,3,3,0,0,0,.81,1.49c.13,0-.16.85.21.87s.78-.4.95-.68.62-.81.6-1.25.5-1.47-.14-2.4a12.36,12.36,0,0,1-1.1-3.3,22.15,22.15,0,0,0-.5-2.67c-.25-.77-.23-1.51-.7-1.93s0-.87-.63-1.33-.37-1.08-.64-1.34a13.43,13.43,0,0,1-1.49-2.37,6.46,6.46,0,0,1-.52-1.51c0-.4,0-1.76-.25-2a3.26,3.26,0,0,1-.7-1.16c0-.21-.38-1.29-.87-1.37a14.16,14.16,0,0,1-3.09-.83,1.13,1.13,0,0,1-.33-.83l.23.17a3.08,3.08,0,0,0,0-.46c0-.23.29.33.29.33a1.68,1.68,0,0,0,.27-.83c0-.47.16.4.16.4a2.15,2.15,0,0,0,.71-1.58c0-1.08.82-2.65.31-4.95s-1.37-4.58-2.47-5.2a3.79,3.79,0,0,0-2.19-.48,5.61,5.61,0,0,0-1.25-.46c-.35,0-2-.1-4.13,2.84s-1.65,3.92-1.47,5.43.38,2.12.19,2.53-.44.42-.44.42a.6.6,0,0,0,.46-.05c.23-.12-.37.75-.48.77a5.78,5.78,0,0,0-.62.17l.6.08.4.27a11,11,0,0,1-2.18,1.49,6.42,6.42,0,0,0-2.34,1.81c-.44.62-1.22,1.84-1.22,1.84l-.82-.27c-.68-.23-.91-.39-1.05-.66a5.7,5.7,0,0,1-.31-.75.57.57,0,0,0,.39-.22l.15-.21-.46.23s0-.65,0-.86a4,4,0,0,0-1-1.28,20,20,0,0,0-1.68-1.18l.37-.19-.6-.08s.36-.26.45-.25l-.68-.11a2.84,2.84,0,0,1,.83-.32c.25,0,.19-.13-.5-.38s.06-.72.06-.72a6.69,6.69,0,0,1-1,.45,3.35,3.35,0,0,1-.1-.73l-1.31.28-1.56.2,1-.74s-1.7.41-2.07.43A.83.83,0,0,1,155,58a3.63,3.63,0,0,1-.87.65c-.27.06-1.44.26-1.72.37s-.25-.37-.25-.37-.25.66-.32.66a6.3,6.3,0,0,1-.6-.37,3.38,3.38,0,0,1-.29.76c-.06,0-1.22.4-1.45.44s.19.2.19.2a7.2,7.2,0,0,1-1.35.69c-.27,0,.11.17.11.17l-1.17.37.25.43-.43-.08.31,1.25-.39,0,0,.79s-.29.91-.48,1,.37.08.37.08l-.58.87.44,0a11.43,11.43,0,0,1,0,1.78,2.43,2.43,0,0,1-.31.85l.41-.16s.1,1.38.1,1.45.25-.4.25-.4.46,1,.48,1.08.08-.45.08-.45.46,1.07.52,1.24.25-.39.25-.39l.25,1.36.21-.35.58.44.12-.4a.89.89,0,0,1,.62.69.84.84,0,0,0,.48.68l0-.6a10.56,10.56,0,0,1,.74,1c0,.11.63-.43.63-.43a7,7,0,0,1,.68,1.3c.06.34.56.48.62.5s-.21-.64-.21-.64.34.68.54,1l.21.31.23-.57s.37.37.27.53-.29.42-.29.42L155,76s-1.24.83-.8,1.65a2,2,0,0,1,.14,1.54s-3.17,1.34-3,2.32a8.52,8.52,0,0,0,.87,2.53c.27.33,0,4.29.06,5.53a18.09,18.09,0,0,0,1.78,5.93c.94,1.76,3.69,5.54,4,7.48a14.41,14.41,0,0,1,.27,3.42c-.05,1.11-.16,4.37.5,5.42s1.44,2.1,1.44,2.1-.55,4.26.39,5.14l.94.89a50.48,50.48,0,0,0-.44,7.57c.22,2.27.71,6.3.66,7.85s-.08,5.61.41,5.47-.08.47-.25,2.24-.36,6.91-.41,8.88a7.43,7.43,0,0,1-.75,3.81c-.58,1.11-1.46,9-1.41,10.36a.34.34,0,0,1,0,.1c-1,.2-2.21.44-3.3.74a7,7,0,0,1,.3-2.13c.6-1.94-1.57-10-1.23-11s.45-3.35-1.38-6-.37-.71-.19-3.06-1.3-4.26-1.27-4.78a56,56,0,0,0-1.38-10.38c-1.23-6-1.11-7.43-1.11-7.43l.22-.41a20,20,0,0,0,.67-2.76c.22-1,.44-1.24.07-2.21s-2.24-3.21-3.32-5.15-3.66-7.8-5.08-11.35-3.36-8.44-5.15-10.6-2.87-10.38-2.76-14.34a46.51,46.51,0,0,0-1.16-11,4.27,4.27,0,0,0-3.21-3.66c.67,0,.6-.75.6-.75l-.9.19c-.9.18-1.42-1.08-.59-.75s1.11-.37,1.56-.07a6.92,6.92,0,0,1,1,.89s-.34-.86-.56-1.37-2.73-.79-1.42-.72,1.53-1.38,1.53-1.38a3.13,3.13,0,0,1-1.68.9c-.89.07-1-.63-1.23-1.27a1.87,1.87,0,0,0-.7-.67c.5,0,.56-.46,1.11.07.78.74,2-.67,2-.67a1.1,1.1,0,0,1-1.53.07c-.74-.7-.37-.86-1.19-.82s-.52.52-1.42.12S125.52,52,126.64,53s.86-.19,1.46.26,1.37-.12,1.37-.12-1,.23-1.26-.4-1.09.11-1.5-.57a2.1,2.1,0,0,1-.2-.45c.45.28,1.56-.09,2.09-.29a2.87,2.87,0,0,1-1,0c-1-.15-.26-.6-.26-1.72s-.82-.37-1.38-1.12-.15-2.65-.15-2.65a2.1,2.1,0,0,1,.71,1.09c.15.67-.38,1.56-.08,1.26a3.08,3.08,0,0,0,.57-1.9c0-.78-1.73-.82-.45-.75s1.33-1.45,1.33-1.45a4.62,4.62,0,0,0-1,.93c-.26.41-1.34-.15-1.34-1.42s-.19-1.3-.9-2a3,3,0,0,1-.44-2.2A17.25,17.25,0,0,1,125.52,41c.89,1.19,0,1,.11,1.91a1,1,0,0,0,1.08.78.69.69,0,0,1-.63-.38c-.23-.4-.11-1,.18-1.87s-.33-1.34-1-2.08-1.08-2.47-.4-1.5,2,.26,2,.26-1.75.19-1.82-.48a2.07,2.07,0,0,0-.28-.7,2.44,2.44,0,0,0,1.1,0s-1.35,0-1.57-.94a3.15,3.15,0,0,0-1.16-2.32A11.4,11.4,0,0,0,119.36,31a9.14,9.14,0,0,0-4.14-.9,14.89,14.89,0,0,0-5.3,1.45A20.55,20.55,0,0,1,106.78,33a2.85,2.85,0,0,0-1.28,1.16,2.94,2.94,0,0,1-.55-.56l.15.53a.83.83,0,0,0,.22.35,3.89,3.89,0,0,0-.22.5l.31-.43a3.19,3.19,0,0,0,1.33.55c.63.11,1.16-.68,1.16-.68l-.49.86A29.87,29.87,0,0,0,105.73,39a6.68,6.68,0,0,1-1,2c-.44.74-1.56.52-1.56.52a1.1,1.1,0,0,0,1,.53c.74,0,.71-.45,1.38-1.42s.3,1.11-.26,1.71a9.9,9.9,0,0,0-1.72,1.79c-.6.93-.3,1.35-.41,1.83s-1.5,1.35-1.5,1.35a3.85,3.85,0,0,0,1.8-.71c.59-.56.41-.64.37-1.68s1.57-1.12,1.27-.07-.82,1.26-1.09,2.27-1,.9-1.45,1.49a1.26,1.26,0,0,0,.07,1.31s.57-.67,1.27-1.53,1.32-.34,1,.38-2.17,1.6-2.73,2.08-1.64-.7-1.64-.7a1.7,1.7,0,0,0,.33.74c.34.52.64.52,1.27.45s.71-.41.71-.41a3,3,0,0,1-.59,1.35c-.49.55-.64.11-.83,0s-.7-.08-.7-.08.78.45.41.75-1.5-.83-1.5-.83.93,1.39,1.65,1.39a1.29,1.29,0,0,0,1.37-1c.19-.71,1.46-.93.75.19s-1.15,1-1.72,1.79-.29,1.05-.59,1.68a1.25,1.25,0,0,1-.55.54l-.35-.95,0,0,0,0c-.2-.51-.39-1-.56-1.37-1.06-2.32-7.82-5.67-8.7-6.25s-3.3-1.8-3.3-1.8l-.23-1.14c-.24-1.13-3.7-4.67-3.75-5.33a22.57,22.57,0,0,1,.31-2.9,1.24,1.24,0,0,0,1.45.34c.41-.21.49-.72.8-1.62a28.33,28.33,0,0,0,.44-4.19l-.14-1.08-.15-.8.7.33-.26-.28a.35.35,0,0,1,0-.52,3,3,0,0,0-.1-.62,4.4,4.4,0,0,1,0-1.24l.54.57a4.53,4.53,0,0,1-.46-1.13,8.7,8.7,0,0,0-.24-1.08l.68-.06-.63-.36c-.31-.18-.36-.87-.36-.87l.68.15-.7-1c-.7-.95-.93-1.6-1.35-2.19a25.24,25.24,0,0,0-2.09-1.78,8.44,8.44,0,0,0-3.35-1.29c-.34,0-1.55-.72-1.93-.51a5.48,5.48,0,0,1-2,.33c-.71,0-.69-.18-1.31.18a10.43,10.43,0,0,1-1.58.78c-1,.46-1.18.07-1.18.07s0,.41-.81.9-1.1,1.53-1.7,2.25a9.31,9.31,0,0,0-.93,1.53c.2-.29.56-.74.55-.48s.46.39-1.94,2.51S65,27.4,64.9,27.4s2.4-1,1.93.13-.23,1.86,0,1.47.62-.7.41-.05-1.31,1.19-1.31,1.19a2.44,2.44,0,0,0,.88,0c.31-.1.79.26.79.26s-.25.05-.33.69A12.32,12.32,0,0,0,68.05,34a21.91,21.91,0,0,0,.72,2.92.72.72,0,0,0,.75.33l.67,3.9s-.62.15-1.29,1.29a11.21,11.21,0,0,0-1,2.53l-.67.2A54.49,54.49,0,0,0,57,49.93c-4,2.55-4.07,3.92-5.29,6.14s-6.06,12.41-6.29,13.78A18,18,0,0,1,43.51,74L48,76.68s-.28.73-2.18,4.6-3,11.74-3,11.74L41.37,104s-.36,2.17-.75,3.61-2.22,3.77-3,4.83-.23,2.45-.23,3.54a40.84,40.84,0,0,0,.26,4.69A3.83,3.83,0,0,0,38.3,122s0,.39-1,1.66-2.94,4.1-2.94,4.1a13.28,13.28,0,0,0-1.83.18c-.49.12-2,.46-3,.65a14.77,14.77,0,0,1-3.49-.31s-.83-.76-.57-.62a5.65,5.65,0,0,0,1.31.1,3.56,3.56,0,0,1-.48-.34c-.26-.2-.65-1-.29-.67a1.48,1.48,0,0,0,.77.41s-.61-.28-.61-.69-.72-.7-.39-.62.77-.33.77-.33a2.74,2.74,0,0,1-.46-.06c-.31-.05-1.34,0-.57-.54s1.26-2.76,1.43-3.71-.81-1.63-1.56-2.17-1.88-1.5-1.88-1.5-.13-.21.23-1.29-.38-3-.9-4a17.24,17.24,0,0,0-3.33-3.75c-1.11-.94-3.27-.59-4.62,0a19.56,19.56,0,0,0-4.51,2.76c-1.29,1.16-2,5.89-2.37,6.3a16.47,16.47,0,0,0-1.68,1.7c-.86,1.06-.57,2.09-.13,3.48a8.68,8.68,0,0,0,1.7,2.77s.52.31.16,1.21.1,1.11,0,1,.23-.69.34-.87a2.5,2.5,0,0,0,.07-.8,6.69,6.69,0,0,0,.28.85c.15.34,0,.47-.1.88s-.15,1.16-.15,1.16a.9.9,0,0,1,.15-.44,1.39,1.39,0,0,0,.37-.93,1.94,1.94,0,0,1,.07-.72s.59.72.59,1-.49.73-.49.73.42-.08.52-.21a5,5,0,0,0,.31-.62l.75.54c-.36.49-3.2.75-4.91,1.72s-1.35,1.93-1.74,2.75a8.8,8.8,0,0,0-.26,2.94l-.62,2.82a41,41,0,0,1-1.75,5.65c-.81,1.74.2,5.73.2,5.73l-.2.82a5.8,5.8,0,0,0,.5,2.55c.16.5,1.43.89,1.67.84s-.12-.73.12-.57a4.39,4.39,0,0,0,.93.35s-.2,1.78-.27,2.82,0,6.16,0,6.16.18,5.55.22,7c0,.54,0,1.34,0,2.25-.36,2.21-.81,5.73-1.19,9l0,3.48c-.06.66-.12,1.33-.19,2l-.09,1.24a12.76,12.76,0,0,0-1.24,3.36c-.31,1.57-.79,5.07-1.19,8.19L0,206.49l1012.5-.34.11-6.8c-.08-.56-.17-1.14-.26-1.71H1016ZM764.76,166.79a.81.81,0,0,0-.15,1.08c.95-1.35,1.85-2.52,1.85-2.52ZM407.28,65.5A3.08,3.08,0,0,0,408,66Z" style="fill:url(#linear-gradient)"/></g></svg>