<?xml version="1.0" encoding="utf-8"?>
<!-- Generator: Adobe Illustrator 22.1.0, SVG Export Plug-In . SVG Version: 6.00 Build 0)  -->
<svg version="1.1" id="Layer_1" xmlns="http://www.w3.org/2000/svg" xmlns:xlink="http://www.w3.org/1999/xlink" x="0px" y="0px"
	 viewBox="0 0 100 100" xml:space="preserve">
<title>ISD Families</title>
<g id="familiy_3"> 
	<g id="family">
		<path d="M53.2,43.1c0.1-0.7,0.2-1.4,0.2-2.1c0-0.5,0-1.1,0.1-1.6c0,0,0.8-0.7,0.8-1.7s-0.3-1.1-0.3-1.1s0.5-2.1-0.4-4
			s-2.7-2.9-4.9-2.9c-2.2,0-4.9,1.5-5.2,4.6C43,37.4,44,37.8,44,37.8s0.3,2.4,0.8,3.3c0.4,0.8,0.9,0.8,1.3,1.4
			c0.2,0.3,0.6,0.6,1,0.6c0,0,0.1,0.4,0.2,0.7l0.1,0.3c0,0-0.6-0.2-1,0.1c-0.3,0.2-0.3,0.4-0.4,0.6c-0.2,0.1-0.8,0.1-0.9,0.4
			s-0.1,0.6-0.1,0.6s-1.2,0.5-1.8,1.1c-0.6,0.6-1.1,1.4-1.7,1.8s-1,0.8-1.3,1.3c-0.2,0.5-0.2,0.5-1.4,1.3s-2.3,1.4-3.2,1.6
			c-0.9,0.2-2,0.2-2.1,0.4c-0.1,0.2-0.1,0.4-0.1,0.6c0,0-2.5,0.6-3.4,0.6c-0.8,0-2.2,0-2.9,0c-0.7-0.1-2.6-0.4-2.8-0.1
			c-0.2,0.3,0.1,0.6,0.1,0.6s-0.3,0.5-0.2,0.8s0.3,0.3,0.3,0.3s-0.6,0.4-0.1,0.8c0.4,0.3,0.6,0.1,0.6,0.1s-0.4,0.7,0,0.9
			c0.4,0.3,1.2,0.4,2,0c0.8-0.4,1.7-0.5,2.7-0.5s4.6-0.4,4.6-0.4s0.3,0.8,0.6,0.8c0.3,0,2.9-0.9,3.5-1s1.9,0,3.4-1s3.3-2.3,3.3-2.3
			s0,1.4,0.1,3c0.1,1.6,0.8,1.6,0.3,3.3c-0.4,1.7-0.6,2.1-0.5,3.7c0.1,1.6,0.3,1.5,0,4s-1,4.3-0.9,4.4c0.1,0.1,0.2,0.1,0.3,0.1
			c0,0-0.8,1.6-1.1,2.6c-0.3,1-0.7,1.4-1.2,2.9c-0.4,1.1-0.7,2.2-0.7,3.4c-0.1,0.8-1.2,2.5-2.2,5.1c-1.1,2.6-3,4.7-3.3,5.3
			c-0.3,0.6-0.7,0.7-0.5,0.9c0.1,0.2,0.3,0.3,0.4,0.4c0,0-1.3,0-2.4-0.1c-1.1-0.1-1.9-0.2-2.3,0.8c-0.3,0.9,0.9,1.8,2.8,2.5
			c1.9,0.7,2.5,0.3,3.7,0.9s2.3,1.2,3.3,1.2c1,0,1.5-0.3,1.7-1.1c0.1-0.4,0.1-0.9-0.1-1.3c0,0,0.5-0.3,0.7-1.4
			c0.2-1.1,0.2-2.4,0.9-3.8c0.6-1.4,2.8-5.4,2.8-6.6s0.4-1.7,1.4-3.2s4.2-6.6,4.2-6.6s2.1,4.7,2.6,5.7s1,1.3,1.3,1.7
			c0.3,0.4,0.2,1.2,0.8,1.9c0.6,0.7,2.6,2.2,3.1,4.2c0.5,2,0.4,3,0.9,4.2c0.5,1.2,0.5,0.9,0.3,1.4c-0.2,0.5-0.2,0.7-0.2,0.7
			c-0.7,0.4-1.5,0.7-2.2,1.1c-0.9,0.3-1.3,1-1.1,1.5c0.2,0.5,1.7,0.8,3.5,0.7c1.8-0.1,2.5-0.6,3.3-1s1.8-0.4,2.6-0.9
			c0.8-0.5,2.7-1.2,2.5-1.9c-0.1-0.7-0.4-1.1-0.8-1.6c-0.4-0.5-0.7-0.5-0.7-0.5c0-0.4-0.1-0.8-0.3-1.2c-0.3-0.6-0.5-2.2-1.2-3.2
			c-0.7-1-0.8-2.6-2.7-4.9c-1.9-2.3-1.8-3.2-2.4-4s-0.7-2-1.3-3.6c-0.6-1.5-0.9-1.6-0.9-2.3c0-0.3,0-0.7-0.1-1c0,0,2.4-0.3,2.4-0.6
			c0-0.4-0.6-3.4-1.4-4.8c-0.8-1.4-1.4-3.1-1.7-5.2s-0.8-5.8-0.8-5.8s3,2.1,3.8,3.3c0.9,1.2,2.9,2.9,3.3,3.6
			c0.5,0.7,1.3,0.3,1.3,0.3s0.6,1.1,0.6,1.8c-0.1,0.7,0.6,1.5,1,2s0.9,0.4,0.9,0.1c0-0.3-0.7-1.5-0.7-2s-0.1-0.8,0-0.6
			s1.5,1.1,1.8,1.4c0.4,0.3,1.4,0.7,1.6,0.5c0.1-0.1,0.1-0.3,0-0.4c0,0,0.4,0.1,0.5-0.3c0.1-0.3-0.1-0.4-0.1-0.4s0.3-0.2,0.3-0.4
			c0-0.1-0.1-0.2-0.1-0.3c0,0,0.3-0.3,0.2-0.7c-0.1-0.3-0.4-0.6-0.9-0.9c-0.5-0.3-1.4-1-1.9-1.1c-0.4-0.1-0.7,0.1-1.1-0.4
			c-0.2-0.2-0.3-0.5-0.5-0.7c0.1-0.3,0-0.7-0.2-1c-0.3-0.6-1.4-1.6-2.1-2.5c-0.7-0.9-1.7-2.5-2.5-3.3c-0.8-0.8-1.2-0.7-1.8-1.6
			C60.8,50,59,48.2,59,48.2s0.2-0.9-0.2-1.3c-0.4-0.3-1-0.6-1.4-1.6c-0.4-1-2.1-2-2.5-2.1C54.5,43.1,53.2,43.1,53.2,43.1z"/>
		<path d="M98,53.9c0,0,0-2.8-0.3-5.5c-0.3-2.7-0.4-3.5-1.4-4.9c-1-1.5-3-4.5-4.1-5.7c-1.1-1.2-2-1.7-2-1.7s-1.3-0.9-1.4-1
			s-0.7-0.3-0.8-0.9c-0.1-0.7,0-1-0.1-1.4c-0.1-0.3-0.2-0.5-0.5-0.6c0,0,0.3-0.5,0.2-0.9c0-0.2-0.2-0.4-0.3-0.6
			c0.3-0.2,0.4-0.6,0.2-0.9c-0.2-0.6-0.5-0.6-0.5-0.6s0.2-0.6,0-1c-0.2-0.3-0.3-0.6-0.5-0.9c0,0,0.1-0.4-0.2-1.3
			c-0.3-0.9-1.2-2.6-2.3-3.3c-1.1-0.8-1.6-0.3-1.6-0.3s-2.7-0.7-4.4,0.3c-1.7,1-2.2,2.7-2.2,3.5c0.1,0.8,0.4,0.8,0.4,0.8
			s-0.1,1.3,0.1,1.8c0.3,0.6,0.4,1.2,0.3,1.9c-0.1,0.8,0,1.9,0.7,2.6c0.7,0.7,1.2,1.6,1.8,1.8s1.6,0,1.6,0l0.4,0.6
			c0,0-2.7,1.5-3.3,2.2s0,1.3,0,1.3s0.2,0.8-0.6,2c-0.8,1.2-0.8,2-0.6,2.6c0.2,0.6,0,0.8,0,0.8c-0.3,0.7-0.5,1.5-0.6,2.2
			c-0.2,0.9-0.8,2.7-1.9,4.4c-1.1,1.7-2.2,5.2-2.8,5.9c-0.5,0.7-0.3,1-0.3,1s-0.8,1.2-1.4,1.7c-0.6,0.5-1.4,1-1.4,1.4
			s-1.4,2.7-0.4,3.5c1,0.8,0.8,0.3,0.8,0.3s0.5,0.4,0.8,0.4c0.2-0.1,0.3-0.3,0.3-0.3s0.2,0.5,0.7,0.4c0.5-0.1,0.7-0.4,1.2-1.6
			c0.4-1.2,0-1.6,0.8-2.9c0.8-1.3,1.3-1.8,1.3-1.8s1.4,0.7,1.9,0.8c0.3,0.1,0.5-0.1,0.7-0.3c0,0-0.1,3.1-0.1,3.8
			c0,0.9-0.2,1.7-0.4,2.5c-0.2,0.7,0.9,0.2,0.9,0.2s-0.7,2.2-1.3,3.5c-0.6,1.3-1.6,2.8-1.3,4.4c0.3,1.6,1.2,2.4,2.2,3.9
			s1.7,2.7,1.7,2.7s-0.5,0.5-0.4,0.8c0.1,0.3,2.2,4.3,2.8,5.3c0.6,0.9,1.6,1.9,0.9,3.5c-0.6,1.6-1.9,3.3-2.7,3.7
			c-0.8,0.4-2.8,0.9-2.5,1.8s3.2,0.6,4.4,0.5c1.2-0.1,3.7-1.1,4.1-1.2c0.4-0.1,0.6,0.7,1.1,0.7s3.6-0.7,3.8-1l0.2-0.3
			c0,0,0.6-0.1,0.7-0.2c0-0.1-0.1-1.2-0.4-1.7c-0.1-0.3-0.3-0.6-0.5-0.8c0,0-0.2-2.1-0.2-3.4s0.2-5.9,0.2-6.6c0-0.7-0.3-0.6-0.7-0.6
			h-0.4c-0.2-1.2-0.5-2.3-1-3.4c-0.7-1.6-0.9-1.6-0.9-2.7c0-1.1-0.3-3.3,0.4-5.5c0.4-1.3,0.5-2.8,0.2-4.1c0,0,0.5-0.1,1.3-0.7
			c0.7-0.6,0.9-1,0.9-1s1.3-0.2,1.7-0.6c0.2-0.2,0.4-0.3,0.6-0.4c0,0,1.8,0.4,3.3-0.3c1.5-0.7,1.6-1.2,1.6-1.2s1.1,0,1.3-0.2
			c0.2-0.2,0.6-1.3,0.8-2.5s0.5-2.4,0.7-3.1C99.1,54.8,98,53.9,98,53.9z M81,75.8c0,0-0.5-0.5-0.8-1c-0.3-0.5-0.4-0.7-0.2-1.3
			s0.5-1.6,0.5-1.6c0,0.6,0.1,1.1,0.2,1.6C80.9,74.6,81,75.8,81,75.8z"/>
		<path d="M25.5,17.1c-0.2-0.2-0.3-0.7,0.1-1.5c0.4-0.8,0.2-1.3,0.2-1.3s0.9,0,0.5,0.7c0,0.1,0.8,0,1.1-0.6c0.3-0.6,0.2-0.7,0.2-0.7
			c0.2,0.1,0.4,0.2,0.6,0.1c0.8-0.1,0.8-0.7,0.8-0.7s-0.4,0.2-0.6,0c-0.2-0.2-0.5-0.6-0.2-1.1c0.2-0.5,0.5-0.9,0.1-2.5
			c-0.3-1.1-0.7-2.1-1.4-3c-0.8-1.1-2.3-3.3-4.2-4s-5.1,0-6.7,0.5s-2.4,2.1-2.3,3.7c0.1,1.6,0.6,2,0.6,2s-0.1,0.6,0.1,0.9
			s-0.1,0.9-0.3,1.3c-0.2,0.5-0.8,1.1-0.7,1.4c0.1,0.3,0.7,0.2,0.7,0.5c0,0.3,0.1,0.6-0.1,0.9c-0.2,0.3,0.3,0.6,0.6,0.6h0.2
			c0,0-0.8,0.3-0.5,0.6c0.2,0.3,0.3,0.7,0.2,1.1c-0.1,0.3,0.1,0.8,0.9,1.1c0.6,0.2,1.2,0.3,1.8,0.3c0,0-1.7,1-1.6,1.6
			c0.1,0.6,0.6,0.9,0.5,2.8c0,2,0.1,3.9-1.1,5.9s-1.6,4-1.2,6.1c0.4,2.1,0.6,4.4,0.6,6.8c0,2.4-0.6,3.8,0.1,6.7s1.2,5.6,1.2,5.6
			c-0.6,2.8-1.3,5.6-2.2,8.4c-1.4,4.1-3.1,8.8-3,10c0.1,1.2,0.3,2.5-0.2,4.6C9.8,78,8.4,85.3,7.9,86.6c-0.5,1.3-4,4.3-4.2,4.5
			c-0.2,0.2,0.3,0.8,0.6,1c0.3,0.2-0.5,0.3-1.4,0.3c-0.8,0.1-2,0.3-2,1.1c0,0.8,0.4,1.2,1.9,1.5c1.5,0.3,3.8,0.3,4.7,0.6
			c0.9,0.2,4.7,0.7,5.9,0.5s1.3-1.2,1.3-1.2c0.1-0.7,0.1-1.4,0.1-2.1c-0.1-0.9-0.7-2.2,0.2-3.7s1.4-3.6,2.2-6c0.8-2.4,2.7-6.5,3-9
			c0.3-2.5,0.8-3.6,1.5-5.3c0.7-1.7,2-4.9,2-4.9s3.6,6.1,4.6,8.2c1,2.1,3.3,5.7,5.4,8.8s3.9,7.7,4.4,9.1c0.5,1.3,1.3,1.6,1.3,1.6
			s-3.4,1.3-2.7,2.6c0.8,1.3,4.3,0.7,5.5,0.2c1.1-0.5,3-1.5,3.7-1.7c0.7-0.2,3.1-1.4,3-2.3c0-0.9-1-1.8-1-1.8s0.7-0.8,0.4-1.3
			s-0.7-1.3-1.9-3.5s-2.8-6.7-3.7-8.5s-3-4.3-4.3-6.1c-1.3-1.7-1.1-2.8-2.3-4.1c-1.2-1.3-1.5-3.8-2.1-5.4s-0.9-4.6-0.8-6.4
			c0.1-1.8,0.2-2.3,0.2-2.3s4.7-0.7,6.1-2.5c1.3-1.8,0.7-3.1,1-6.1c0.3-3,0.5-8.6,0.4-10.5c-0.1-1.9-2.2-2-2.2-2s-0.1-1.4-0.9-1.8
			c-0.8-0.5-1.3-0.3-2.3-0.9c-1-0.5-2.6-1.8-2.6-1.8s-1-3.2-3.5-5.4s-3.2-1.9-3.2-1.9L25.5,17.1z"/>
	</g>
</g>
</svg>
