<svg id="pupil-experience" xmlns="http://www.w3.org/2000/svg" viewBox="0 0 956 951"><title>pupil-experience</title><path d="M873.05,121.13Q795.4,50,684.14,50,536.94,50,479,175.93,421.07,50,273.86,50,162.6,50,85,121.13,3.81,195.76,3.82,305.35C3.82,641.63,455.8,893,479,900c23.2-7,475.18-258.37,475.18-594.65Q954.18,195.75,873.05,121.13ZM792.73,236.85c-.26,4.1-4.92,19-6,25.12s-10.61,25.74-16.31,30.37S748.91,311.76,746,313.9s-5.18,10-9.66,17.27-7.94,3-12.08,5.17-15,9.27-15,9.27,6,5.87,7.76,12.46-2.59,8-2.59,8-1,0,.18-2.32-5-7.48-5-7.48l-.17,2a15,15,0,0,0,1.38,9.27c2.42,5.16,5,6.05,5,6.05a19.45,19.45,0,0,1-5.17-2.67c-2.76-2-8.11-10.16-7.42-6.06s1.9,2.14,1.9,5.35-.52,2.67-.69,2.13-3.63-2.49-3.63-2,1.9,3.21,3.63,6.06,2.41.54,3.45-.35,0-3.75,0-3.75a7.89,7.89,0,0,1,1.38,5.71c-.35,3.74-8.46,3.56-11.56,1.6s-6.73-11.76-6.73-11.76,0,3,.17,7.84-3.1,11.94-3.1,11.94l.52-3.93c.51-3.91-1.9-3-1.9,2.68s1.38,40.79,3.28,46.31-.09,7,1.29,13.21-3.54,13-3,14.76.86,5-.52,9.44S684.9,476,684.9,476s-6.55,35.27-6.55,41.68-4.32,47.39-4.84,52-1.89,7.66-1.89,13.18-4,24.4-4,29,.52,25.83-1,33-6.55,40.26-6.38,41.33a13.87,13.87,0,0,1-.35,7.48c-1.2,4.28-2.06,2-2.58,3.57s.34,8.37,1.2,11.4A73.21,73.21,0,0,0,664,722c2.42,4.27,7.77,9.08,11.74,12.64s5.52,8,2.59,14.79-25.88,2.49-29.16,0S634.52,727.35,633,722.36s-5-24.76-4.66-27.07.87-4.46-.52-8.2,1.21-3.56.18-5.88,7.42.72,2.07-5.88,1.55-22.62,1.21-35.26-2.59-50.24-2.59-53.27-3.28-26.72-3.28-26.72-5,23.34-5,26.9-3.8,25.83-4.49,28.85-3.62,20.32-4.48,25.66-.52,9.62-1,9.62-3.28,17.63-2.93,19.6,2.41,7.12-1.9,8.72.17,1.43-1.21,8.55,0,2.14,0,5.35a48.85,48.85,0,0,1-.33,4.93c2,2.9,4.1,5.39,5.27,6.82,1.31,1.61,6.39,2.62,13.22,7.12s1.89,15.4-1.45,17.28-13.37,3.93-18.59,2.19a36.29,36.29,0,0,1-6.93-3.61c-.4,1.27-.8,2.56-1.19,3.92-4,13.72-12.08,16.75-22.61,15.15s-8.79-13-7.76-15.15c.51-1.05,3.64-9.3,6.38-17.77-2-4.22-.14-13.05-.14-13.05a12.23,12.23,0,0,0-1.74-2.9c-1-1.16-1.16-2-3.49-4.21s-.29-1.16-1.3-4.36-18.3-19.32-21.64-22.37S530.41,651.06,523.14,645s-42.55-28.61-57.94-37.62-26-12.93-35.3-15S401,593.69,392,596.6s-28.9,22.36-35,27.3-29.63,29.92-34.13,35.72-6.1,7.12-8.86,11-18.74,24.1-17.72,26.28,2.61,3.63.43,13.22-13.07,9.44-20.91,10.31-3.92,1.31-6.53,3.2-12.06,4.35-20.48,5.23-17.43-1.31-19-6.69,2.76-10.75,6-11.91,15.11-10.31,17.87-12,10.46-9.73,12.35-10.17,4.64-2.9,5.51-3.78,2.18-3,4.65-5.66,3.34-8.42,3.34-8.42,2.18-1.31,1.75-3.49,4.64-11,4.64-11l23.24-38.63c1.75-2.9,4.21-7.84,9.15-12.78s22.23-33.11,28.76-41.4,21.79-24.25,21.79-25-.44-3.49-.44-5.23,1.31-1.45,3.34-3.05.87-1.89-.87-4.07.73-1.6,2.61-8.57-3-21.21-3-25S360,454.4,360,454.4s-6.68,23-8.86,29.92-2.18,5.09-2.32,11.18-10.89,23.1-11,26.58-7.12,6.54-6.39,10-1,3.92,0,6.68-2.62,2.32-5.23,4.35-5.81,1.31-5.67,3.05-1.3,7.41-2.32,9.88a45.34,45.34,0,0,0-2.47,10.46c0,1.88-1.59,6.1-3.34,6.68s-3.48-5.09-2.76-7.12.88-9.73.88-9.73a44.68,44.68,0,0,0-7,4.07c-2.61,2-4.35,7-4.35,7a35,35,0,0,0,2.47,5.23,4.66,4.66,0,0,1,.58,3.34,4.84,4.84,0,0,1-.44,2c-.43.73-2.61.44-2.61.44a11.93,11.93,0,0,1-1,2c-.58.87-2.18,1-3.49-.15s-5.95-7.54-6.68-12.49,6.25-14.08,9-18,8.28-11.47,8.28-11.47-1.31-1.31-4.07-4.21,1.45-2,3.48-6.24,5.38-17.73,7.56-23.54,2.32-7.26,5.95-16.7,8.43-34.27,10.89-51.85S346.24,403,350.6,399.5s16-12.05,22.8-14.38,13.51-12.92,14.38-15.25-.72-9.58-6.82-13.8-5.76-15.15-7.5-25.6,6.92-26.54,8.8-28.57,19.32-11.91,16-12.92,2.18-1.46.29-2.18,1-1-1.74-2.62-.44-2.61-2.18-4.21-6.19-3.38-6.77-4.4-2.35-6.21-1.64-13.07c1-9.47,21.86-7.55,24.18-6.53s3.69,5.84,4.27,9.62-3.48,11-4.5,12.64c-.79,1.24-3.07,2.48-3.84,2.83.65-.07,2.1.44,2.1.94s-1.45,1.75-1.45,1.75,2,.14,2.46.72-1.16,2-1.16,2,.87-.59,2.47.29,1.45,1.88,2.47,1.16,5.35-1.64,14.5-1.93,17.39,6.64,24.51,10.13,19.68,17.75,21.57,23.85,3.06,8.17,4.25,18.95c1.2,11,.82,11.6-2.67,19.15s-13.8,13.8-16,14.38-2.91,2.32-4.07,5.67-.87,3.77-.15,7.11-1.74,3.77-2.76,3.77a27.22,27.22,0,0,1-2.9-.28l-.29,2.17s1.89.88,5.66,2.47,14.67,10.9,19,19.61,16.41,42.84,16.41,45,3,6.1,6.83,17.29,6.39,29.92,6.68,34.27-.87,5.82.58,9.3,2.76,8.43,4.36,11.33,1.59,3.78,1.59,5.95a1.51,1.51,0,0,1-2,1.6c0,1.45,5.81,10.75,9.59,16.55s1.59,12.64.29,17.14-4.8,6.54-4.07,7.85,19.75,22.37,29.63,34.57,19.75,23.81,23.24,32.24a88.2,88.2,0,0,0,6.39,11.23c0-4.35.05-8.51.05-11.23,0-7.3,3.28-38.84,3.8-46.14s-3.28-31-4.66-40.61-.17-40.62.51-46.14,4-32.6,1.73-39.55-.06-27.38,1.9-35.27c2.24-9.06,8.8-28,8.8-39.9,0-11.22-6.39-23.34-7.08-27.43S575,360.74,575,361.81s1.38,6.42.86,6.06-5-6.23-4.31-2.67,4.31,6.23,4.31,6.23-5-1.6-7.41-4.81-3.28-6.59-3.28-1.95-6.73,7.48-4.66,5.69,1.73-4.45-.17-9.79a36.71,36.71,0,0,1-2.07-9.8s-2.59,7.48-4.32,10.33-3.1,5.17-8.28,7.31-9-2.32-9-2.32,3.28-1.25,8.63-2.85,4-15.14,2.93-12.29-8.45,4.09-10,5.7a3.18,3.18,0,0,0-.45,3.52l.11.22h0a1.77,1.77,0,0,1-.11-.22l-1.27-2.63c-1.38-2.85,5.18-7.12,4.49-7.12a11.52,11.52,0,0,1-8.29-5.53c-3.1-4.81,1.21-8.55,1.21-8.55a16.7,16.7,0,0,0,1.55,7c1.73,3.92,7.25,1.24,11.56-4.1s-3.1-9.62-6.38-16.57,2.41-6.77,2.24-8.73S529.8,287,527,281.12s-4-10.33-7.94-16-2.93-8.2-3.62-18-3.62-25.47-3.62-25.47l2.59-1.07s-.52-1.25-1.38-3.38-1-11.22-.69-22.27a98.12,98.12,0,0,0-.7-16.57c0-1.24-4-12.11-6.38-16.92s-7.25-8.91-8.11-11.76,3.63-2.31,6.21.54,11.22,13.53,13.46,18.52,5,3.57,5,3.57a7.73,7.73,0,0,0,2.08-2.68c.86-1.77,10.69-10.15,14.49-14.78s7.59-4.28,8.11-2.49-5.52,9.79-9,13.18S529.45,176,529.45,176a64.59,64.59,0,0,1,7.94-1.25c3.11-.18,5.35.36,6.56,4.09.85,2.66-.11,3.16-.74,3.23a14.59,14.59,0,0,1,3.33.51c1.72.54,1.89,1.08,2.93,3.57s-3.45,2.5-6.21,1.42-6,3-6,6.24a47.5,47.5,0,0,1-3.62,16.39c-2.76,6.77,1.55,8.73,1.55,8.73a39.72,39.72,0,0,1,6.38,1.24c1.9.72,2.59,16.75,2.59,16.75a30.28,30.28,0,0,0,6,3.92c3.1,1.43,1.55,1.78,2.41,8.19s.87,3.57,3.28,8.55a180.1,180.1,0,0,1,8.28,19.24c2.07,6.24,3.63,5.7,5.18,8a5.64,5.64,0,0,0,4,2.49,40.65,40.65,0,0,1,5.34-3.2c2.08-.9.18-2.5,3.28-6.77s4.06-8.82,4.32-16.57,3.62-8.82,3.62-12.56,7-12.83,9.83-19.24,22.78-11.48,22.78-11.48c9.92-1,15,1.95,21.48,5.25s13.45,14.25,14.75,16.74,2.93,9.26,4.83,10.42,5.61,6.77,6.64,9.53,4.49,16.84,4.49,20.85,1,2.4,5.86,6.23,6.21,8.91,9.41,12.92a17.36,17.36,0,0,0,8,5.34l6.73-1.87s5.52-2.94,6.81-4.18,13.37-6.06,15.18-7.23,5.18-3.73,6.56-7,11.13-10.06,15.61-11.22,5-3,5.61-5.35,11.13-4.45,12.16-6.23,1.73-8.91,1.73-8.91-1-2.76-4.92-5.7-8.71-9.8-8.88-11.58,1-2.13,2.5-2.31,6,4.72,7.76,7,7.42,4.19,8.11,3.92,0-3.38-.17-4.8-3.88-6.6-7-10.16-7.5-9.27-7.5-11.58,2.24-2.49,3.53-1.78,13.37,14.88,13.72,15.5a56.19,56.19,0,0,0,4.48,4.18l-.17-.62c-.17-.62-.43-7.75-.52-8.2a84.76,84.76,0,0,0-3.1-8.46c-1.29-2.85-4.23-9.35-4.23-11.57s1.9-2.76,3.37-2.14,6,9.17,6.72,10.69,4.4,9,4.4,9,.52-6.5.52-8.9a74.07,74.07,0,0,1,1.12-10.43c.69-4.27,3-1.07,4.06,3.3S793,232.75,792.73,236.85Z"/></svg>