<?xml version="1.0" encoding="UTF-8"?><!DOCTYPE svg PUBLIC "-//W3C//DTD SVG 1.1//EN" "http://www.w3.org/Graphics/SVG/1.1/DTD/svg11.dtd"><svg xmlns="http://www.w3.org/2000/svg" xmlns:xlink="http://www.w3.org/1999/xlink"><defs/><symbol id="about-isd" viewBox="0 0 95 95">
<path d="M71.7,52.7l-7.5,4.1l-2.6,1.4l-2.2,1.2l-2,1.1l-3.7,2l-4.4,2.4l-1.9,1l-0.6-0.3c-0.3-0.2-1.3-0.7-2.1-1.2l-3.1-1.7l-2.9-1.6
	l-3.5-1.9l-8.4-4.6l-4.2-2.3l-1.1-0.6c-0.1-0.1-0.2-0.1-0.3,0c-0.1,0.1-0.1,2.5-0.1,7.5v7.4l1.9,1.1l3.2,1.7l2.5,1.4l4,2.2l3.8,2
	l1.3,0.7c0,0.1,0.7,0.4,1.4,0.8c0.7,0.4,2.1,1.1,3,1.7l3.4,1.9c0.6,0.4,1.2,0.6,1.8,0.8c0.4-0.1,2.7-1.4,5.7-3.1
	c2.5-1.4,3-1.7,5.6-3.1c1-0.5,3-1.7,4.5-2.4c1.5-0.7,2.7-1.4,2.7-1.4s2-1,5.6-3.1l1.9-1c0.2-0.1,0.2-0.5,0.2-7.6
	c0-4.3-0.1-7.5-0.1-7.5C73.6,51.7,72.7,52.1,71.7,52.7z M90.5,37.1l-4.2-2.3l-4-2.2l-2.1-1.1L75.2,29c-2.1-1.1-4-2.1-4.2-2.2
	L69.6,26l-10.2-5.5c-1.9-1-3.5-1.8-7.9-4.2c-2.1-1.1-3.9-2-4.1-2c-0.5,0.2-1,0.4-1.4,0.6c-1.1,0.6-3.5,2-6.3,3.4l-4.9,2.7l-4.4,2.4
	l-5.2,2.8c-5.4,2.9-6.3,3.4-7.9,4.2l-4,2.2l-5.4,2.9C3.3,37.8,2,38.6,2,38.7c0,0.1,0.3,0.3,0.7,0.5l6.6,3.6l4.6,2.5l0.8,0.4v9.9v9.9
	l-1.3,0.3l-5.3,1.4c-0.5,0.1-0.9,0.2-1.3,0.5c0,0.4,2.3,8.8,2.4,9c0.1,0.1,0.2,0.1,0.3,0.1l1.8-0.5l3.4-0.9l2.6-0.7
	c0.3-0.1,0.7-0.2,1-0.3c0,0,0-6.1,0-13.4V47.6l0.5,0.3c0.3,0.1,1,0.5,1.6,0.9l2.8,1.5c1,0.5,1.9,1,2.2,1.1c0.5,0.3,6.3,3.4,8.4,4.5
	l6.2,3.3c6.2,3.3,7.1,3.8,7.3,3.8c0.8-0.3,1.5-0.7,2.3-1.1l3.3-1.8c1.3-0.6,1.3-0.6,7.2-4l5.4-2.8l5.3-2.8l7-3.7l4.9-2.7l3.2-1.7
	c4.6-2.4,7-3.7,6.9-3.9C92.2,38,91.4,37.5,90.5,37.1z M49.4,40.7c-3,0.8-6.4-0.3-7-2.4c-0.2-0.6-0.1-1.3,0.2-1.8
	c1.1-2.3,5.9-2.9,8.4-1.2C53.6,37,52.7,39.8,49.4,40.7z"/>
</symbol><symbol id="arrow--up" viewBox="0 0 100 100">
<polygon points="47.4,11 25.7,32.8 22,29 50,1 78,29 74.3,32.8 52.6,11 52.6,99 47.4,99 "/>
</symbol><symbol id="close-icon" viewBox="0 0 100 100">
	<line class="st0" x1="15.4" y1="15.4" x2="84.6" y2="84.6"/>
	<line class="st1" x1="1" y1="50" x2="99" y2="50"/>
	<line class="st0" x1="15.4" y1="84.6" x2="84.6" y2="15.4"/>

</symbol><symbol id="cta-arrow-head" viewBox="0 0 100 100">
	<title>Get started with ISD</title>
	<circle class="cta-arrow-head__circle" cx="49.7" cy="49.7" r="48"/>
	<path class="cta-arrow-head__arrow" d="M58,49.7L35.7,27.4l2.9-2.8l25.1,25.1L38.5,74.8L35.7,72L58,49.7z"/>
</symbol><symbol id="cta-arrow" viewBox="0 0 340.2 99">
	<title>Get started with ISD</title>
	<circle class="isd-cta-arrow__circle" cx="290.7" cy="49.5" r="48" style="fill:none;stroke:#fff;stroke-miterlimit:10;stroke-width:3px"/>
	<line class="isd-cta-arrow__line" y1="49.39" x2="265.98" y2="49.39" style="fill:none;stroke:#fff;stroke-miterlimit:10;stroke-width:3px"/>
	<path class="isd-cta-arrow__carat" d="M302,49.91,279.7,27.6l2.87-2.82L307.7,49.91,282.57,75l-2.82-2.82Z" transform="translate(0 -1.5)" style="fill:#efe921"/>
</symbol><symbol id="experience-heart" viewBox="0 0 956 951"><title>experience</title><g id="expr-heart"><path id="expr-heart-2" data-name="expr-heart" d="M873.05,121.13Q795.4,50,684.14,50,536.94,50,479,175.93,421.07,50,273.86,50,162.6,50,85,121.13,3.81,195.76,3.82,305.35C3.82,641.63,455.8,893,479,900c23.2-7,475.18-258.37,475.18-594.65Q954.18,195.75,873.05,121.13Z" style="fill:#231f20;fill-rule:evenodd"/><g id="kids"><path d="M508.33,537.77a1.51,1.51,0,0,0,2-1.6c0-2.17,0-3-1.59-5.95s-2.91-7.85-4.36-11.33-.29-4.94-.58-9.3-2.83-23.09-6.68-34.27-6.83-15.11-6.83-17.29-12.05-36.31-16.41-45-15.25-18-19-19.61-5.66-2.47-5.66-2.47l.29-2.17a27.22,27.22,0,0,0,2.9.28c1,0,3.49-.43,2.76-3.77s-1-3.78.15-7.11,1.89-5.09,4.07-5.67,12.49-6.83,16-14.38,3.87-8.17,2.67-19.15c-1.19-10.78-2.36-12.85-4.25-18.95s-14.45-20.37-21.57-23.85S436.85,285.74,427.7,286s-13.48,1.2-14.5,1.93-.87-.29-2.47-1.16-2.47-.29-2.47-.29,1.6-1.46,1.16-2-2.46-.72-2.46-.72,1.45-1.17,1.45-1.75-1.89-1.16-2.33-.87a10.83,10.83,0,0,0,4.07-2.9c1-1.6,5.08-8.86,4.5-12.64s-1.94-8.61-4.27-9.62-23.2-2.94-24.18,6.53c-.71,6.87,1.06,12.06,1.64,13.07s5,2.8,6.77,4.4-.58,2.61,2.18,4.21-.15,1.89,1.74,2.62-3.63,1.16-.29,2.18-14.09,10.89-16,12.92-10.54,18.11-8.8,28.57,1.4,21.39,7.5,25.6,7.7,11.48,6.82,13.8-7.55,12.92-14.38,15.25S355,396,350.6,399.5s-19,18.74-21.5,36.31-7.26,42.41-10.89,51.85-3.77,10.9-5.95,16.7-5.52,19.32-7.56,23.54-6.24,3.34-3.48,6.24,4.07,4.21,4.07,4.21-5.52,7.55-8.28,11.47-9.73,13.07-9,18,5.38,11.34,6.68,12.49,2.91,1,3.49.15a11.93,11.93,0,0,0,1-2s2.18.29,2.61-.44a4.84,4.84,0,0,0,.44-2,4.66,4.66,0,0,0-.58-3.34,35,35,0,0,1-2.47-5.23s1.74-4.94,4.35-7a44.68,44.68,0,0,1,7-4.07s-.15,7.7-.88,9.73,1,7.7,2.76,7.12,3.34-4.8,3.34-6.68a45.34,45.34,0,0,1,2.47-10.46c1-2.47,2.47-8.13,2.32-9.88s3.06-1,5.67-3.05,6.25-1.59,5.23-4.35.73-3.2,0-6.68,6.24-6.54,6.39-10,10.89-20.47,11-26.58.14-4.21,2.32-11.18S360,454.4,360,454.4s10.31,33.84,10.31,37.62,4.94,18,3,25-4.35,6.39-2.61,8.57,2.9,2.47.87,4.07-3.34,1.3-3.34,3.05.44,4.5.44,5.23-15.26,16.7-21.79,25-23.82,36.46-28.76,41.4-7.4,9.88-9.15,12.78L285.82,655.7s-5.08,8.86-4.64,11-1.75,3.49-1.75,3.49-.87,5.81-3.34,8.42-3.77,4.79-4.65,5.66-3.63,3.35-5.51,3.78-9.59,8.43-12.35,10.17-14.67,10.9-17.87,12-7.55,6.54-6,11.91,10.61,7.56,19,6.69,17.86-3.34,20.47-5.23-1.3-2.33,6.54-3.2,18.74-.72,20.91-10.31.59-11-.43-13.22,15-22.36,17.72-26.28,4.36-5.23,8.86-11,28-30.79,34.13-35.72,26-24.4,35-27.3,28.61-6.25,37.91-4.22,19.9,6,35.3,15,50.68,31.52,57.94,37.62,15.54,19.32,18.89,22.36,20.62,19.18,21.64,22.37-1,2.18,1.3,4.36,2.47,3.05,3.49,4.21a12.23,12.23,0,0,1,1.74,2.9s-1.89,8.86.15,13.08,6.68,4.64,11,6.24,6.39,2.18,6.39,2.18,9.44,7.27,14.67,9,15.25-.3,18.59-2.19,8.27-12.78,1.45-17.28-11.91-5.51-13.22-7.12a88.58,88.58,0,0,1-5.95-7.84c-2.18-3.34-8.43-6.1-9.73-9.15a72.47,72.47,0,0,0-4.8-8.27s-18.3-25.28-21.78-33.7-13.36-20-23.24-32.24-28.9-33.27-29.63-34.57,2.76-3.34,4.07-7.85,3.48-11.32-.29-17.14S508.33,539.22,508.33,537.77Z" style="fill:#fff"/><path id="girl" d="M622.45,217.53S602.52,222.6,599.67,229s-9.83,15.5-9.83,19.24-3.36,4.81-3.62,12.56S585,273.1,581.9,277.38s-1.2,5.87-3.28,6.77a40.65,40.65,0,0,0-5.34,3.2,5.64,5.64,0,0,1-4-2.49c-1.55-2.32-3.11-1.78-5.18-8a180.1,180.1,0,0,0-8.28-19.24c-2.41-5-2.41-2.13-3.28-8.55s.69-6.76-2.41-8.19a30.28,30.28,0,0,1-6-3.92s-.69-16-2.59-16.75a39.72,39.72,0,0,0-6.38-1.24s-4.31-2-1.55-8.73a47.5,47.5,0,0,0,3.62-16.39c0-3.2,3.28-7.3,6-6.24s7.24,1.08,6.21-1.42-1.21-3-2.93-3.57a15.41,15.41,0,0,0-3.8-.52s2.41.52,1.21-3.22-3.45-4.27-6.56-4.09a64.59,64.59,0,0,0-7.94,1.25s4.66-7.13,8.11-10.51,9.49-11.4,9-13.18-4.32-2.14-8.11,2.49-13.63,13-14.49,14.78a7.73,7.73,0,0,1-2.08,2.68s-2.76,1.42-5-3.57S506,153,503.4,150.19s-7.07-3.39-6.21-.54,5.7,6.95,8.11,11.76,6.38,15.68,6.38,16.92a98.12,98.12,0,0,1,.7,16.57c-.35,11-.18,20.13.69,22.27s1.38,3.38,1.38,3.38l-2.59,1.07s2.93,15.67,3.62,25.47-.34,12.29,3.62,18,5.18,10.15,7.94,16,15.7,30.81,15.87,32.77-5.52,1.79-2.24,8.73,10.7,11.23,6.38,16.57-9.83,8-11.56,4.1a16.7,16.7,0,0,1-1.55-7s-4.31,3.74-1.21,8.55a11.52,11.52,0,0,0,8.29,5.53c.69,0-5.87,4.27-4.49,7.12l1.38,2.85s-1.21-2.14.34-3.74,9-2.85,10-5.7,2.42,10.69-2.93,12.29-8.63,2.85-8.63,2.85,3.8,4.45,9,2.32,6.56-4.46,8.28-7.31,4.32-10.33,4.32-10.33a36.71,36.71,0,0,0,2.07,9.8c1.9,5.34,2.24,8,.17,9.79s4.66-1.07,4.66-5.69.86-1.25,3.28,1.95,7.42,4.81,7.42,4.81-3.63-2.67-4.32-6.23,3.8,2.32,4.32,2.67-.87-5-.87-6.06,2.76,5.17,3.45,9.27,7.08,16.21,7.08,27.43c0,11.87-6.56,30.84-8.8,39.9-2,7.89-4.14,28.33-1.9,35.27s-1,34-1.73,39.55-1.89,36.52-.51,46.14,5.17,33.31,4.66,40.61-3.8,38.84-3.8,46.14-.52,24.94,1.72,29-6,1.24-1.55,5.34,1.38,2.32,1.21,6.23-2.93,4.82-.52,8.2S565,729.85,564,732s-2.76,13.54,7.76,15.15,18.64-1.43,22.61-15.15,8.62-22.62,9-26.9,1-8.55,1-11.75-1.38,1.78,0-5.35-3.11-7,1.21-8.55,2.24-6.77,1.9-8.72,2.41-19.6,2.93-19.6.17-4.27,1-9.62,3.79-22.62,4.48-25.66,4.49-25.28,4.49-28.85,5-26.9,5-26.9,3.28,23.69,3.28,26.72,2.24,40.61,2.59,53.27-6.56,28.67-1.21,35.26-3.11,3.56-2.07,5.88-1.56,2.14-.17,5.88.86,5.88.51,8.2,3.11,22.09,4.66,27.07,12.94,24.58,16.22,27.08,26.22,6.77,29.16,0,1.38-11.23-2.59-14.79S666.44,726.28,664,722a73.21,73.21,0,0,1-5.52-13.36c-.86-3-1.72-9.8-1.2-11.4s1.38.71,2.58-3.57a13.87,13.87,0,0,0,.35-7.48c-.17-1.07,4.83-34.2,6.38-41.33s1-28.32,1-33,4-23.52,4-29,1.38-8.55,1.89-13.18,4.84-45.6,4.84-52S684.9,476,684.9,476s1.38-1.43,2.76-5.88,1-7.66.52-9.44,4.4-8.53,3-14.76.6-7.69-1.29-13.21-3.28-40.61-3.28-46.31,2.41-6.59,1.9-2.68l-.52,3.93s3.27-7.13,3.1-11.94-.17-7.84-.17-7.84,3.62,9.8,6.73,11.76,11.21,2.14,11.56-1.6a7.89,7.89,0,0,0-1.38-5.71s1,2.85,0,3.75-1.73,3.2-3.45.35-3.63-5.52-3.63-6.06,3.46,1.43,3.63,2,.69,1.07.69-2.13-1.21-1.25-1.9-5.35,4.66,4.1,7.42,6.06a19.45,19.45,0,0,0,5.17,2.67s-2.58-.89-5-6.05a15,15,0,0,1-1.38-9.27l.17-2s6.21,5.17,5,7.48-.18,2.32-.18,2.32,4.32-1.42,2.59-8-7.76-12.46-7.76-12.46,10.87-7.13,15-9.27,7.59,2.14,12.08-5.17S743,316,746,313.9s18.8-16.93,24.49-21.56,15.27-24.23,16.31-30.37,5.69-21,6-25.12.43-24.31-.6-28.68-3.37-7.57-4.06-3.3A74.07,74.07,0,0,0,787,215.3c0,2.4-.52,8.9-.52,8.9s-3.71-7.48-4.4-9-5.26-10.07-6.72-10.69-3.37-.09-3.37,2.14,2.94,8.72,4.23,11.57a84.76,84.76,0,0,1,3.1,8.46c.09.45.35,7.58.52,8.2l.17.62a56.19,56.19,0,0,1-4.48-4.18c-.35-.62-12.42-14.79-13.72-15.5s-3.53-.53-3.53,1.78,4.4,8,7.5,11.58,6.82,8.73,7,10.16.86,4.54.17,4.8-6.3-1.6-8.11-3.92-6.21-7.21-7.76-7-2.68.53-2.5,2.31,4.91,8.64,8.88,11.58,4.92,5.7,4.92,5.7-.69,7.13-1.73,8.91-11.56,3.92-12.16,6.23-1.12,4.19-5.61,5.35-14.23,7.93-15.61,11.22-4.74,5.88-6.56,7-13.89,6-15.18,7.23-6.81,4.18-6.81,4.18l-6.73,1.87a17.36,17.36,0,0,1-8-5.34c-3.2-4-4.57-9.09-9.41-12.92s-5.86-2.23-5.86-6.23-3.45-18.08-4.49-20.85-4.74-8.37-6.64-9.53S660,242,658.68,239.52s-8.28-13.44-14.75-16.74S632.37,216.54,622.45,217.53Z" style="fill:#fff"/></g></g></symbol><symbol id="families" viewBox="0 0 100 100">
<title>ISD Families</title>
<g id="familiy_3"> 
	<g id="family">
		<path d="M53.2,43.1c0.1-0.7,0.2-1.4,0.2-2.1c0-0.5,0-1.1,0.1-1.6c0,0,0.8-0.7,0.8-1.7s-0.3-1.1-0.3-1.1s0.5-2.1-0.4-4
			s-2.7-2.9-4.9-2.9c-2.2,0-4.9,1.5-5.2,4.6C43,37.4,44,37.8,44,37.8s0.3,2.4,0.8,3.3c0.4,0.8,0.9,0.8,1.3,1.4
			c0.2,0.3,0.6,0.6,1,0.6c0,0,0.1,0.4,0.2,0.7l0.1,0.3c0,0-0.6-0.2-1,0.1c-0.3,0.2-0.3,0.4-0.4,0.6c-0.2,0.1-0.8,0.1-0.9,0.4
			s-0.1,0.6-0.1,0.6s-1.2,0.5-1.8,1.1c-0.6,0.6-1.1,1.4-1.7,1.8s-1,0.8-1.3,1.3c-0.2,0.5-0.2,0.5-1.4,1.3s-2.3,1.4-3.2,1.6
			c-0.9,0.2-2,0.2-2.1,0.4c-0.1,0.2-0.1,0.4-0.1,0.6c0,0-2.5,0.6-3.4,0.6c-0.8,0-2.2,0-2.9,0c-0.7-0.1-2.6-0.4-2.8-0.1
			c-0.2,0.3,0.1,0.6,0.1,0.6s-0.3,0.5-0.2,0.8s0.3,0.3,0.3,0.3s-0.6,0.4-0.1,0.8c0.4,0.3,0.6,0.1,0.6,0.1s-0.4,0.7,0,0.9
			c0.4,0.3,1.2,0.4,2,0c0.8-0.4,1.7-0.5,2.7-0.5s4.6-0.4,4.6-0.4s0.3,0.8,0.6,0.8c0.3,0,2.9-0.9,3.5-1s1.9,0,3.4-1s3.3-2.3,3.3-2.3
			s0,1.4,0.1,3c0.1,1.6,0.8,1.6,0.3,3.3c-0.4,1.7-0.6,2.1-0.5,3.7c0.1,1.6,0.3,1.5,0,4s-1,4.3-0.9,4.4c0.1,0.1,0.2,0.1,0.3,0.1
			c0,0-0.8,1.6-1.1,2.6c-0.3,1-0.7,1.4-1.2,2.9c-0.4,1.1-0.7,2.2-0.7,3.4c-0.1,0.8-1.2,2.5-2.2,5.1c-1.1,2.6-3,4.7-3.3,5.3
			c-0.3,0.6-0.7,0.7-0.5,0.9c0.1,0.2,0.3,0.3,0.4,0.4c0,0-1.3,0-2.4-0.1c-1.1-0.1-1.9-0.2-2.3,0.8c-0.3,0.9,0.9,1.8,2.8,2.5
			c1.9,0.7,2.5,0.3,3.7,0.9s2.3,1.2,3.3,1.2c1,0,1.5-0.3,1.7-1.1c0.1-0.4,0.1-0.9-0.1-1.3c0,0,0.5-0.3,0.7-1.4
			c0.2-1.1,0.2-2.4,0.9-3.8c0.6-1.4,2.8-5.4,2.8-6.6s0.4-1.7,1.4-3.2s4.2-6.6,4.2-6.6s2.1,4.7,2.6,5.7s1,1.3,1.3,1.7
			c0.3,0.4,0.2,1.2,0.8,1.9c0.6,0.7,2.6,2.2,3.1,4.2c0.5,2,0.4,3,0.9,4.2c0.5,1.2,0.5,0.9,0.3,1.4c-0.2,0.5-0.2,0.7-0.2,0.7
			c-0.7,0.4-1.5,0.7-2.2,1.1c-0.9,0.3-1.3,1-1.1,1.5c0.2,0.5,1.7,0.8,3.5,0.7c1.8-0.1,2.5-0.6,3.3-1s1.8-0.4,2.6-0.9
			c0.8-0.5,2.7-1.2,2.5-1.9c-0.1-0.7-0.4-1.1-0.8-1.6c-0.4-0.5-0.7-0.5-0.7-0.5c0-0.4-0.1-0.8-0.3-1.2c-0.3-0.6-0.5-2.2-1.2-3.2
			c-0.7-1-0.8-2.6-2.7-4.9c-1.9-2.3-1.8-3.2-2.4-4s-0.7-2-1.3-3.6c-0.6-1.5-0.9-1.6-0.9-2.3c0-0.3,0-0.7-0.1-1c0,0,2.4-0.3,2.4-0.6
			c0-0.4-0.6-3.4-1.4-4.8c-0.8-1.4-1.4-3.1-1.7-5.2s-0.8-5.8-0.8-5.8s3,2.1,3.8,3.3c0.9,1.2,2.9,2.9,3.3,3.6
			c0.5,0.7,1.3,0.3,1.3,0.3s0.6,1.1,0.6,1.8c-0.1,0.7,0.6,1.5,1,2s0.9,0.4,0.9,0.1c0-0.3-0.7-1.5-0.7-2s-0.1-0.8,0-0.6
			s1.5,1.1,1.8,1.4c0.4,0.3,1.4,0.7,1.6,0.5c0.1-0.1,0.1-0.3,0-0.4c0,0,0.4,0.1,0.5-0.3c0.1-0.3-0.1-0.4-0.1-0.4s0.3-0.2,0.3-0.4
			c0-0.1-0.1-0.2-0.1-0.3c0,0,0.3-0.3,0.2-0.7c-0.1-0.3-0.4-0.6-0.9-0.9c-0.5-0.3-1.4-1-1.9-1.1c-0.4-0.1-0.7,0.1-1.1-0.4
			c-0.2-0.2-0.3-0.5-0.5-0.7c0.1-0.3,0-0.7-0.2-1c-0.3-0.6-1.4-1.6-2.1-2.5c-0.7-0.9-1.7-2.5-2.5-3.3c-0.8-0.8-1.2-0.7-1.8-1.6
			C60.8,50,59,48.2,59,48.2s0.2-0.9-0.2-1.3c-0.4-0.3-1-0.6-1.4-1.6c-0.4-1-2.1-2-2.5-2.1C54.5,43.1,53.2,43.1,53.2,43.1z"/>
		<path d="M98,53.9c0,0,0-2.8-0.3-5.5c-0.3-2.7-0.4-3.5-1.4-4.9c-1-1.5-3-4.5-4.1-5.7c-1.1-1.2-2-1.7-2-1.7s-1.3-0.9-1.4-1
			s-0.7-0.3-0.8-0.9c-0.1-0.7,0-1-0.1-1.4c-0.1-0.3-0.2-0.5-0.5-0.6c0,0,0.3-0.5,0.2-0.9c0-0.2-0.2-0.4-0.3-0.6
			c0.3-0.2,0.4-0.6,0.2-0.9c-0.2-0.6-0.5-0.6-0.5-0.6s0.2-0.6,0-1c-0.2-0.3-0.3-0.6-0.5-0.9c0,0,0.1-0.4-0.2-1.3
			c-0.3-0.9-1.2-2.6-2.3-3.3c-1.1-0.8-1.6-0.3-1.6-0.3s-2.7-0.7-4.4,0.3c-1.7,1-2.2,2.7-2.2,3.5c0.1,0.8,0.4,0.8,0.4,0.8
			s-0.1,1.3,0.1,1.8c0.3,0.6,0.4,1.2,0.3,1.9c-0.1,0.8,0,1.9,0.7,2.6c0.7,0.7,1.2,1.6,1.8,1.8s1.6,0,1.6,0l0.4,0.6
			c0,0-2.7,1.5-3.3,2.2s0,1.3,0,1.3s0.2,0.8-0.6,2c-0.8,1.2-0.8,2-0.6,2.6c0.2,0.6,0,0.8,0,0.8c-0.3,0.7-0.5,1.5-0.6,2.2
			c-0.2,0.9-0.8,2.7-1.9,4.4c-1.1,1.7-2.2,5.2-2.8,5.9c-0.5,0.7-0.3,1-0.3,1s-0.8,1.2-1.4,1.7c-0.6,0.5-1.4,1-1.4,1.4
			s-1.4,2.7-0.4,3.5c1,0.8,0.8,0.3,0.8,0.3s0.5,0.4,0.8,0.4c0.2-0.1,0.3-0.3,0.3-0.3s0.2,0.5,0.7,0.4c0.5-0.1,0.7-0.4,1.2-1.6
			c0.4-1.2,0-1.6,0.8-2.9c0.8-1.3,1.3-1.8,1.3-1.8s1.4,0.7,1.9,0.8c0.3,0.1,0.5-0.1,0.7-0.3c0,0-0.1,3.1-0.1,3.8
			c0,0.9-0.2,1.7-0.4,2.5c-0.2,0.7,0.9,0.2,0.9,0.2s-0.7,2.2-1.3,3.5c-0.6,1.3-1.6,2.8-1.3,4.4c0.3,1.6,1.2,2.4,2.2,3.9
			s1.7,2.7,1.7,2.7s-0.5,0.5-0.4,0.8c0.1,0.3,2.2,4.3,2.8,5.3c0.6,0.9,1.6,1.9,0.9,3.5c-0.6,1.6-1.9,3.3-2.7,3.7
			c-0.8,0.4-2.8,0.9-2.5,1.8s3.2,0.6,4.4,0.5c1.2-0.1,3.7-1.1,4.1-1.2c0.4-0.1,0.6,0.7,1.1,0.7s3.6-0.7,3.8-1l0.2-0.3
			c0,0,0.6-0.1,0.7-0.2c0-0.1-0.1-1.2-0.4-1.7c-0.1-0.3-0.3-0.6-0.5-0.8c0,0-0.2-2.1-0.2-3.4s0.2-5.9,0.2-6.6c0-0.7-0.3-0.6-0.7-0.6
			h-0.4c-0.2-1.2-0.5-2.3-1-3.4c-0.7-1.6-0.9-1.6-0.9-2.7c0-1.1-0.3-3.3,0.4-5.5c0.4-1.3,0.5-2.8,0.2-4.1c0,0,0.5-0.1,1.3-0.7
			c0.7-0.6,0.9-1,0.9-1s1.3-0.2,1.7-0.6c0.2-0.2,0.4-0.3,0.6-0.4c0,0,1.8,0.4,3.3-0.3c1.5-0.7,1.6-1.2,1.6-1.2s1.1,0,1.3-0.2
			c0.2-0.2,0.6-1.3,0.8-2.5s0.5-2.4,0.7-3.1C99.1,54.8,98,53.9,98,53.9z M81,75.8c0,0-0.5-0.5-0.8-1c-0.3-0.5-0.4-0.7-0.2-1.3
			s0.5-1.6,0.5-1.6c0,0.6,0.1,1.1,0.2,1.6C80.9,74.6,81,75.8,81,75.8z"/>
		<path d="M25.5,17.1c-0.2-0.2-0.3-0.7,0.1-1.5c0.4-0.8,0.2-1.3,0.2-1.3s0.9,0,0.5,0.7c0,0.1,0.8,0,1.1-0.6c0.3-0.6,0.2-0.7,0.2-0.7
			c0.2,0.1,0.4,0.2,0.6,0.1c0.8-0.1,0.8-0.7,0.8-0.7s-0.4,0.2-0.6,0c-0.2-0.2-0.5-0.6-0.2-1.1c0.2-0.5,0.5-0.9,0.1-2.5
			c-0.3-1.1-0.7-2.1-1.4-3c-0.8-1.1-2.3-3.3-4.2-4s-5.1,0-6.7,0.5s-2.4,2.1-2.3,3.7c0.1,1.6,0.6,2,0.6,2s-0.1,0.6,0.1,0.9
			s-0.1,0.9-0.3,1.3c-0.2,0.5-0.8,1.1-0.7,1.4c0.1,0.3,0.7,0.2,0.7,0.5c0,0.3,0.1,0.6-0.1,0.9c-0.2,0.3,0.3,0.6,0.6,0.6h0.2
			c0,0-0.8,0.3-0.5,0.6c0.2,0.3,0.3,0.7,0.2,1.1c-0.1,0.3,0.1,0.8,0.9,1.1c0.6,0.2,1.2,0.3,1.8,0.3c0,0-1.7,1-1.6,1.6
			c0.1,0.6,0.6,0.9,0.5,2.8c0,2,0.1,3.9-1.1,5.9s-1.6,4-1.2,6.1c0.4,2.1,0.6,4.4,0.6,6.8c0,2.4-0.6,3.8,0.1,6.7s1.2,5.6,1.2,5.6
			c-0.6,2.8-1.3,5.6-2.2,8.4c-1.4,4.1-3.1,8.8-3,10c0.1,1.2,0.3,2.5-0.2,4.6C9.8,78,8.4,85.3,7.9,86.6c-0.5,1.3-4,4.3-4.2,4.5
			c-0.2,0.2,0.3,0.8,0.6,1c0.3,0.2-0.5,0.3-1.4,0.3c-0.8,0.1-2,0.3-2,1.1c0,0.8,0.4,1.2,1.9,1.5c1.5,0.3,3.8,0.3,4.7,0.6
			c0.9,0.2,4.7,0.7,5.9,0.5s1.3-1.2,1.3-1.2c0.1-0.7,0.1-1.4,0.1-2.1c-0.1-0.9-0.7-2.2,0.2-3.7s1.4-3.6,2.2-6c0.8-2.4,2.7-6.5,3-9
			c0.3-2.5,0.8-3.6,1.5-5.3c0.7-1.7,2-4.9,2-4.9s3.6,6.1,4.6,8.2c1,2.1,3.3,5.7,5.4,8.8s3.9,7.7,4.4,9.1c0.5,1.3,1.3,1.6,1.3,1.6
			s-3.4,1.3-2.7,2.6c0.8,1.3,4.3,0.7,5.5,0.2c1.1-0.5,3-1.5,3.7-1.7c0.7-0.2,3.1-1.4,3-2.3c0-0.9-1-1.8-1-1.8s0.7-0.8,0.4-1.3
			s-0.7-1.3-1.9-3.5s-2.8-6.7-3.7-8.5s-3-4.3-4.3-6.1c-1.3-1.7-1.1-2.8-2.3-4.1c-1.2-1.3-1.5-3.8-2.1-5.4s-0.9-4.6-0.8-6.4
			c0.1-1.8,0.2-2.3,0.2-2.3s4.7-0.7,6.1-2.5c1.3-1.8,0.7-3.1,1-6.1c0.3-3,0.5-8.6,0.4-10.5c-0.1-1.9-2.2-2-2.2-2s-0.1-1.4-0.9-1.8
			c-0.8-0.5-1.3-0.3-2.3-0.9c-1-0.5-2.6-1.8-2.6-1.8s-1-3.2-3.5-5.4s-3.2-1.9-3.2-1.9L25.5,17.1z"/>
	</g>
</g>
</symbol><symbol id="pupil-experience" viewBox="0 0 956 951"><title>pupil-experience</title><path d="M873.05,121.13Q795.4,50,684.14,50,536.94,50,479,175.93,421.07,50,273.86,50,162.6,50,85,121.13,3.81,195.76,3.82,305.35C3.82,641.63,455.8,893,479,900c23.2-7,475.18-258.37,475.18-594.65Q954.18,195.75,873.05,121.13ZM792.73,236.85c-.26,4.1-4.92,19-6,25.12s-10.61,25.74-16.31,30.37S748.91,311.76,746,313.9s-5.18,10-9.66,17.27-7.94,3-12.08,5.17-15,9.27-15,9.27,6,5.87,7.76,12.46-2.59,8-2.59,8-1,0,.18-2.32-5-7.48-5-7.48l-.17,2a15,15,0,0,0,1.38,9.27c2.42,5.16,5,6.05,5,6.05a19.45,19.45,0,0,1-5.17-2.67c-2.76-2-8.11-10.16-7.42-6.06s1.9,2.14,1.9,5.35-.52,2.67-.69,2.13-3.63-2.49-3.63-2,1.9,3.21,3.63,6.06,2.41.54,3.45-.35,0-3.75,0-3.75a7.89,7.89,0,0,1,1.38,5.71c-.35,3.74-8.46,3.56-11.56,1.6s-6.73-11.76-6.73-11.76,0,3,.17,7.84-3.1,11.94-3.1,11.94l.52-3.93c.51-3.91-1.9-3-1.9,2.68s1.38,40.79,3.28,46.31-.09,7,1.29,13.21-3.54,13-3,14.76.86,5-.52,9.44S684.9,476,684.9,476s-6.55,35.27-6.55,41.68-4.32,47.39-4.84,52-1.89,7.66-1.89,13.18-4,24.4-4,29,.52,25.83-1,33-6.55,40.26-6.38,41.33a13.87,13.87,0,0,1-.35,7.48c-1.2,4.28-2.06,2-2.58,3.57s.34,8.37,1.2,11.4A73.21,73.21,0,0,0,664,722c2.42,4.27,7.77,9.08,11.74,12.64s5.52,8,2.59,14.79-25.88,2.49-29.16,0S634.52,727.35,633,722.36s-5-24.76-4.66-27.07.87-4.46-.52-8.2,1.21-3.56.18-5.88,7.42.72,2.07-5.88,1.55-22.62,1.21-35.26-2.59-50.24-2.59-53.27-3.28-26.72-3.28-26.72-5,23.34-5,26.9-3.8,25.83-4.49,28.85-3.62,20.32-4.48,25.66-.52,9.62-1,9.62-3.28,17.63-2.93,19.6,2.41,7.12-1.9,8.72.17,1.43-1.21,8.55,0,2.14,0,5.35a48.85,48.85,0,0,1-.33,4.93c2,2.9,4.1,5.39,5.27,6.82,1.31,1.61,6.39,2.62,13.22,7.12s1.89,15.4-1.45,17.28-13.37,3.93-18.59,2.19a36.29,36.29,0,0,1-6.93-3.61c-.4,1.27-.8,2.56-1.19,3.92-4,13.72-12.08,16.75-22.61,15.15s-8.79-13-7.76-15.15c.51-1.05,3.64-9.3,6.38-17.77-2-4.22-.14-13.05-.14-13.05a12.23,12.23,0,0,0-1.74-2.9c-1-1.16-1.16-2-3.49-4.21s-.29-1.16-1.3-4.36-18.3-19.32-21.64-22.37S530.41,651.06,523.14,645s-42.55-28.61-57.94-37.62-26-12.93-35.3-15S401,593.69,392,596.6s-28.9,22.36-35,27.3-29.63,29.92-34.13,35.72-6.1,7.12-8.86,11-18.74,24.1-17.72,26.28,2.61,3.63.43,13.22-13.07,9.44-20.91,10.31-3.92,1.31-6.53,3.2-12.06,4.35-20.48,5.23-17.43-1.31-19-6.69,2.76-10.75,6-11.91,15.11-10.31,17.87-12,10.46-9.73,12.35-10.17,4.64-2.9,5.51-3.78,2.18-3,4.65-5.66,3.34-8.42,3.34-8.42,2.18-1.31,1.75-3.49,4.64-11,4.64-11l23.24-38.63c1.75-2.9,4.21-7.84,9.15-12.78s22.23-33.11,28.76-41.4,21.79-24.25,21.79-25-.44-3.49-.44-5.23,1.31-1.45,3.34-3.05.87-1.89-.87-4.07.73-1.6,2.61-8.57-3-21.21-3-25S360,454.4,360,454.4s-6.68,23-8.86,29.92-2.18,5.09-2.32,11.18-10.89,23.1-11,26.58-7.12,6.54-6.39,10-1,3.92,0,6.68-2.62,2.32-5.23,4.35-5.81,1.31-5.67,3.05-1.3,7.41-2.32,9.88a45.34,45.34,0,0,0-2.47,10.46c0,1.88-1.59,6.1-3.34,6.68s-3.48-5.09-2.76-7.12.88-9.73.88-9.73a44.68,44.68,0,0,0-7,4.07c-2.61,2-4.35,7-4.35,7a35,35,0,0,0,2.47,5.23,4.66,4.66,0,0,1,.58,3.34,4.84,4.84,0,0,1-.44,2c-.43.73-2.61.44-2.61.44a11.93,11.93,0,0,1-1,2c-.58.87-2.18,1-3.49-.15s-5.95-7.54-6.68-12.49,6.25-14.08,9-18,8.28-11.47,8.28-11.47-1.31-1.31-4.07-4.21,1.45-2,3.48-6.24,5.38-17.73,7.56-23.54,2.32-7.26,5.95-16.7,8.43-34.27,10.89-51.85S346.24,403,350.6,399.5s16-12.05,22.8-14.38,13.51-12.92,14.38-15.25-.72-9.58-6.82-13.8-5.76-15.15-7.5-25.6,6.92-26.54,8.8-28.57,19.32-11.91,16-12.92,2.18-1.46.29-2.18,1-1-1.74-2.62-.44-2.61-2.18-4.21-6.19-3.38-6.77-4.4-2.35-6.21-1.64-13.07c1-9.47,21.86-7.55,24.18-6.53s3.69,5.84,4.27,9.62-3.48,11-4.5,12.64c-.79,1.24-3.07,2.48-3.84,2.83.65-.07,2.1.44,2.1.94s-1.45,1.75-1.45,1.75,2,.14,2.46.72-1.16,2-1.16,2,.87-.59,2.47.29,1.45,1.88,2.47,1.16,5.35-1.64,14.5-1.93,17.39,6.64,24.51,10.13,19.68,17.75,21.57,23.85,3.06,8.17,4.25,18.95c1.2,11,.82,11.6-2.67,19.15s-13.8,13.8-16,14.38-2.91,2.32-4.07,5.67-.87,3.77-.15,7.11-1.74,3.77-2.76,3.77a27.22,27.22,0,0,1-2.9-.28l-.29,2.17s1.89.88,5.66,2.47,14.67,10.9,19,19.61,16.41,42.84,16.41,45,3,6.1,6.83,17.29,6.39,29.92,6.68,34.27-.87,5.82.58,9.3,2.76,8.43,4.36,11.33,1.59,3.78,1.59,5.95a1.51,1.51,0,0,1-2,1.6c0,1.45,5.81,10.75,9.59,16.55s1.59,12.64.29,17.14-4.8,6.54-4.07,7.85,19.75,22.37,29.63,34.57,19.75,23.81,23.24,32.24a88.2,88.2,0,0,0,6.39,11.23c0-4.35.05-8.51.05-11.23,0-7.3,3.28-38.84,3.8-46.14s-3.28-31-4.66-40.61-.17-40.62.51-46.14,4-32.6,1.73-39.55-.06-27.38,1.9-35.27c2.24-9.06,8.8-28,8.8-39.9,0-11.22-6.39-23.34-7.08-27.43S575,360.74,575,361.81s1.38,6.42.86,6.06-5-6.23-4.31-2.67,4.31,6.23,4.31,6.23-5-1.6-7.41-4.81-3.28-6.59-3.28-1.95-6.73,7.48-4.66,5.69,1.73-4.45-.17-9.79a36.71,36.71,0,0,1-2.07-9.8s-2.59,7.48-4.32,10.33-3.1,5.17-8.28,7.31-9-2.32-9-2.32,3.28-1.25,8.63-2.85,4-15.14,2.93-12.29-8.45,4.09-10,5.7a3.18,3.18,0,0,0-.45,3.52l.11.22h0a1.77,1.77,0,0,1-.11-.22l-1.27-2.63c-1.38-2.85,5.18-7.12,4.49-7.12a11.52,11.52,0,0,1-8.29-5.53c-3.1-4.81,1.21-8.55,1.21-8.55a16.7,16.7,0,0,0,1.55,7c1.73,3.92,7.25,1.24,11.56-4.1s-3.1-9.62-6.38-16.57,2.41-6.77,2.24-8.73S529.8,287,527,281.12s-4-10.33-7.94-16-2.93-8.2-3.62-18-3.62-25.47-3.62-25.47l2.59-1.07s-.52-1.25-1.38-3.38-1-11.22-.69-22.27a98.12,98.12,0,0,0-.7-16.57c0-1.24-4-12.11-6.38-16.92s-7.25-8.91-8.11-11.76,3.63-2.31,6.21.54,11.22,13.53,13.46,18.52,5,3.57,5,3.57a7.73,7.73,0,0,0,2.08-2.68c.86-1.77,10.69-10.15,14.49-14.78s7.59-4.28,8.11-2.49-5.52,9.79-9,13.18S529.45,176,529.45,176a64.59,64.59,0,0,1,7.94-1.25c3.11-.18,5.35.36,6.56,4.09.85,2.66-.11,3.16-.74,3.23a14.59,14.59,0,0,1,3.33.51c1.72.54,1.89,1.08,2.93,3.57s-3.45,2.5-6.21,1.42-6,3-6,6.24a47.5,47.5,0,0,1-3.62,16.39c-2.76,6.77,1.55,8.73,1.55,8.73a39.72,39.72,0,0,1,6.38,1.24c1.9.72,2.59,16.75,2.59,16.75a30.28,30.28,0,0,0,6,3.92c3.1,1.43,1.55,1.78,2.41,8.19s.87,3.57,3.28,8.55a180.1,180.1,0,0,1,8.28,19.24c2.07,6.24,3.63,5.7,5.18,8a5.64,5.64,0,0,0,4,2.49,40.65,40.65,0,0,1,5.34-3.2c2.08-.9.18-2.5,3.28-6.77s4.06-8.82,4.32-16.57,3.62-8.82,3.62-12.56,7-12.83,9.83-19.24,22.78-11.48,22.78-11.48c9.92-1,15,1.95,21.48,5.25s13.45,14.25,14.75,16.74,2.93,9.26,4.83,10.42,5.61,6.77,6.64,9.53,4.49,16.84,4.49,20.85,1,2.4,5.86,6.23,6.21,8.91,9.41,12.92a17.36,17.36,0,0,0,8,5.34l6.73-1.87s5.52-2.94,6.81-4.18,13.37-6.06,15.18-7.23,5.18-3.73,6.56-7,11.13-10.06,15.61-11.22,5-3,5.61-5.35,11.13-4.45,12.16-6.23,1.73-8.91,1.73-8.91-1-2.76-4.92-5.7-8.71-9.8-8.88-11.58,1-2.13,2.5-2.31,6,4.72,7.76,7,7.42,4.19,8.11,3.92,0-3.38-.17-4.8-3.88-6.6-7-10.16-7.5-9.27-7.5-11.58,2.24-2.49,3.53-1.78,13.37,14.88,13.72,15.5a56.19,56.19,0,0,0,4.48,4.18l-.17-.62c-.17-.62-.43-7.75-.52-8.2a84.76,84.76,0,0,0-3.1-8.46c-1.29-2.85-4.23-9.35-4.23-11.57s1.9-2.76,3.37-2.14,6,9.17,6.72,10.69,4.4,9,4.4,9,.52-6.5.52-8.9a74.07,74.07,0,0,1,1.12-10.43c.69-4.27,3-1.07,4.06,3.3S793,232.75,792.73,236.85Z"/></symbol></svg>