<svg id="Layer_1" data-name="Layer 1" xmlns="http://www.w3.org/2000/svg" viewBox="0 0 956 951"><title>experience</title><g id="expr-heart"><path id="expr-heart-2" data-name="expr-heart" d="M873.05,121.13Q795.4,50,684.14,50,536.94,50,479,175.93,421.07,50,273.86,50,162.6,50,85,121.13,3.81,195.76,3.82,305.35C3.82,641.63,455.8,893,479,900c23.2-7,475.18-258.37,475.18-594.65Q954.18,195.75,873.05,121.13Z" style="fill:#231f20;fill-rule:evenodd"/><g id="kids"><path d="M508.33,537.77a1.51,1.51,0,0,0,2-1.6c0-2.17,0-3-1.59-5.95s-2.91-7.85-4.36-11.33-.29-4.94-.58-9.3-2.83-23.09-6.68-34.27-6.83-15.11-6.83-17.29-12.05-36.31-16.41-45-15.25-18-19-19.61-5.66-2.47-5.66-2.47l.29-2.17a27.22,27.22,0,0,0,2.9.28c1,0,3.49-.43,2.76-3.77s-1-3.78.15-7.11,1.89-5.09,4.07-5.67,12.49-6.83,16-14.38,3.87-8.17,2.67-19.15c-1.19-10.78-2.36-12.85-4.25-18.95s-14.45-20.37-21.57-23.85S436.85,285.74,427.7,286s-13.48,1.2-14.5,1.93-.87-.29-2.47-1.16-2.47-.29-2.47-.29,1.6-1.46,1.16-2-2.46-.72-2.46-.72,1.45-1.17,1.45-1.75-1.89-1.16-2.33-.87a10.83,10.83,0,0,0,4.07-2.9c1-1.6,5.08-8.86,4.5-12.64s-1.94-8.61-4.27-9.62-23.2-2.94-24.18,6.53c-.71,6.87,1.06,12.06,1.64,13.07s5,2.8,6.77,4.4-.58,2.61,2.18,4.21-.15,1.89,1.74,2.62-3.63,1.16-.29,2.18-14.09,10.89-16,12.92-10.54,18.11-8.8,28.57,1.4,21.39,7.5,25.6,7.7,11.48,6.82,13.8-7.55,12.92-14.38,15.25S355,396,350.6,399.5s-19,18.74-21.5,36.31-7.26,42.41-10.89,51.85-3.77,10.9-5.95,16.7-5.52,19.32-7.56,23.54-6.24,3.34-3.48,6.24,4.07,4.21,4.07,4.21-5.52,7.55-8.28,11.47-9.73,13.07-9,18,5.38,11.34,6.68,12.49,2.91,1,3.49.15a11.93,11.93,0,0,0,1-2s2.18.29,2.61-.44a4.84,4.84,0,0,0,.44-2,4.66,4.66,0,0,0-.58-3.34,35,35,0,0,1-2.47-5.23s1.74-4.94,4.35-7a44.68,44.68,0,0,1,7-4.07s-.15,7.7-.88,9.73,1,7.7,2.76,7.12,3.34-4.8,3.34-6.68a45.34,45.34,0,0,1,2.47-10.46c1-2.47,2.47-8.13,2.32-9.88s3.06-1,5.67-3.05,6.25-1.59,5.23-4.35.73-3.2,0-6.68,6.24-6.54,6.39-10,10.89-20.47,11-26.58.14-4.21,2.32-11.18S360,454.4,360,454.4s10.31,33.84,10.31,37.62,4.94,18,3,25-4.35,6.39-2.61,8.57,2.9,2.47.87,4.07-3.34,1.3-3.34,3.05.44,4.5.44,5.23-15.26,16.7-21.79,25-23.82,36.46-28.76,41.4-7.4,9.88-9.15,12.78L285.82,655.7s-5.08,8.86-4.64,11-1.75,3.49-1.75,3.49-.87,5.81-3.34,8.42-3.77,4.79-4.65,5.66-3.63,3.35-5.51,3.78-9.59,8.43-12.35,10.17-14.67,10.9-17.87,12-7.55,6.54-6,11.91,10.61,7.56,19,6.69,17.86-3.34,20.47-5.23-1.3-2.33,6.54-3.2,18.74-.72,20.91-10.31.59-11-.43-13.22,15-22.36,17.72-26.28,4.36-5.23,8.86-11,28-30.79,34.13-35.72,26-24.4,35-27.3,28.61-6.25,37.91-4.22,19.9,6,35.3,15,50.68,31.52,57.94,37.62,15.54,19.32,18.89,22.36,20.62,19.18,21.64,22.37-1,2.18,1.3,4.36,2.47,3.05,3.49,4.21a12.23,12.23,0,0,1,1.74,2.9s-1.89,8.86.15,13.08,6.68,4.64,11,6.24,6.39,2.18,6.39,2.18,9.44,7.27,14.67,9,15.25-.3,18.59-2.19,8.27-12.78,1.45-17.28-11.91-5.51-13.22-7.12a88.58,88.58,0,0,1-5.95-7.84c-2.18-3.34-8.43-6.1-9.73-9.15a72.47,72.47,0,0,0-4.8-8.27s-18.3-25.28-21.78-33.7-13.36-20-23.24-32.24-28.9-33.27-29.63-34.57,2.76-3.34,4.07-7.85,3.48-11.32-.29-17.14S508.33,539.22,508.33,537.77Z" style="fill:#fff"/><path id="girl" d="M622.45,217.53S602.52,222.6,599.67,229s-9.83,15.5-9.83,19.24-3.36,4.81-3.62,12.56S585,273.1,581.9,277.38s-1.2,5.87-3.28,6.77a40.65,40.65,0,0,0-5.34,3.2,5.64,5.64,0,0,1-4-2.49c-1.55-2.32-3.11-1.78-5.18-8a180.1,180.1,0,0,0-8.28-19.24c-2.41-5-2.41-2.13-3.28-8.55s.69-6.76-2.41-8.19a30.28,30.28,0,0,1-6-3.92s-.69-16-2.59-16.75a39.72,39.72,0,0,0-6.38-1.24s-4.31-2-1.55-8.73a47.5,47.5,0,0,0,3.62-16.39c0-3.2,3.28-7.3,6-6.24s7.24,1.08,6.21-1.42-1.21-3-2.93-3.57a15.41,15.41,0,0,0-3.8-.52s2.41.52,1.21-3.22-3.45-4.27-6.56-4.09a64.59,64.59,0,0,0-7.94,1.25s4.66-7.13,8.11-10.51,9.49-11.4,9-13.18-4.32-2.14-8.11,2.49-13.63,13-14.49,14.78a7.73,7.73,0,0,1-2.08,2.68s-2.76,1.42-5-3.57S506,153,503.4,150.19s-7.07-3.39-6.21-.54,5.7,6.95,8.11,11.76,6.38,15.68,6.38,16.92a98.12,98.12,0,0,1,.7,16.57c-.35,11-.18,20.13.69,22.27s1.38,3.38,1.38,3.38l-2.59,1.07s2.93,15.67,3.62,25.47-.34,12.29,3.62,18,5.18,10.15,7.94,16,15.7,30.81,15.87,32.77-5.52,1.79-2.24,8.73,10.7,11.23,6.38,16.57-9.83,8-11.56,4.1a16.7,16.7,0,0,1-1.55-7s-4.31,3.74-1.21,8.55a11.52,11.52,0,0,0,8.29,5.53c.69,0-5.87,4.27-4.49,7.12l1.38,2.85s-1.21-2.14.34-3.74,9-2.85,10-5.7,2.42,10.69-2.93,12.29-8.63,2.85-8.63,2.85,3.8,4.45,9,2.32,6.56-4.46,8.28-7.31,4.32-10.33,4.32-10.33a36.71,36.71,0,0,0,2.07,9.8c1.9,5.34,2.24,8,.17,9.79s4.66-1.07,4.66-5.69.86-1.25,3.28,1.95,7.42,4.81,7.42,4.81-3.63-2.67-4.32-6.23,3.8,2.32,4.32,2.67-.87-5-.87-6.06,2.76,5.17,3.45,9.27,7.08,16.21,7.08,27.43c0,11.87-6.56,30.84-8.8,39.9-2,7.89-4.14,28.33-1.9,35.27s-1,34-1.73,39.55-1.89,36.52-.51,46.14,5.17,33.31,4.66,40.61-3.8,38.84-3.8,46.14-.52,24.94,1.72,29-6,1.24-1.55,5.34,1.38,2.32,1.21,6.23-2.93,4.82-.52,8.2S565,729.85,564,732s-2.76,13.54,7.76,15.15,18.64-1.43,22.61-15.15,8.62-22.62,9-26.9,1-8.55,1-11.75-1.38,1.78,0-5.35-3.11-7,1.21-8.55,2.24-6.77,1.9-8.72,2.41-19.6,2.93-19.6.17-4.27,1-9.62,3.79-22.62,4.48-25.66,4.49-25.28,4.49-28.85,5-26.9,5-26.9,3.28,23.69,3.28,26.72,2.24,40.61,2.59,53.27-6.56,28.67-1.21,35.26-3.11,3.56-2.07,5.88-1.56,2.14-.17,5.88.86,5.88.51,8.2,3.11,22.09,4.66,27.07,12.94,24.58,16.22,27.08,26.22,6.77,29.16,0,1.38-11.23-2.59-14.79S666.44,726.28,664,722a73.21,73.21,0,0,1-5.52-13.36c-.86-3-1.72-9.8-1.2-11.4s1.38.71,2.58-3.57a13.87,13.87,0,0,0,.35-7.48c-.17-1.07,4.83-34.2,6.38-41.33s1-28.32,1-33,4-23.52,4-29,1.38-8.55,1.89-13.18,4.84-45.6,4.84-52S684.9,476,684.9,476s1.38-1.43,2.76-5.88,1-7.66.52-9.44,4.4-8.53,3-14.76.6-7.69-1.29-13.21-3.28-40.61-3.28-46.31,2.41-6.59,1.9-2.68l-.52,3.93s3.27-7.13,3.1-11.94-.17-7.84-.17-7.84,3.62,9.8,6.73,11.76,11.21,2.14,11.56-1.6a7.89,7.89,0,0,0-1.38-5.71s1,2.85,0,3.75-1.73,3.2-3.45.35-3.63-5.52-3.63-6.06,3.46,1.43,3.63,2,.69,1.07.69-2.13-1.21-1.25-1.9-5.35,4.66,4.1,7.42,6.06a19.45,19.45,0,0,0,5.17,2.67s-2.58-.89-5-6.05a15,15,0,0,1-1.38-9.27l.17-2s6.21,5.17,5,7.48-.18,2.32-.18,2.32,4.32-1.42,2.59-8-7.76-12.46-7.76-12.46,10.87-7.13,15-9.27,7.59,2.14,12.08-5.17S743,316,746,313.9s18.8-16.93,24.49-21.56,15.27-24.23,16.31-30.37,5.69-21,6-25.12.43-24.31-.6-28.68-3.37-7.57-4.06-3.3A74.07,74.07,0,0,0,787,215.3c0,2.4-.52,8.9-.52,8.9s-3.71-7.48-4.4-9-5.26-10.07-6.72-10.69-3.37-.09-3.37,2.14,2.94,8.72,4.23,11.57a84.76,84.76,0,0,1,3.1,8.46c.09.45.35,7.58.52,8.2l.17.62a56.19,56.19,0,0,1-4.48-4.18c-.35-.62-12.42-14.79-13.72-15.5s-3.53-.53-3.53,1.78,4.4,8,7.5,11.58,6.82,8.73,7,10.16.86,4.54.17,4.8-6.3-1.6-8.11-3.92-6.21-7.21-7.76-7-2.68.53-2.5,2.31,4.91,8.64,8.88,11.58,4.92,5.7,4.92,5.7-.69,7.13-1.73,8.91-11.56,3.92-12.16,6.23-1.12,4.19-5.61,5.35-14.23,7.93-15.61,11.22-4.74,5.88-6.56,7-13.89,6-15.18,7.23-6.81,4.18-6.81,4.18l-6.73,1.87a17.36,17.36,0,0,1-8-5.34c-3.2-4-4.57-9.09-9.41-12.92s-5.86-2.23-5.86-6.23-3.45-18.08-4.49-20.85-4.74-8.37-6.64-9.53S660,242,658.68,239.52s-8.28-13.44-14.75-16.74S632.37,216.54,622.45,217.53Z" style="fill:#fff"/></g></g></svg>